  0
SECTION
  2
ENTITIES
  0
CIRCLE
  8
0
  6
CONTINUOUS
 62
7
 10
400.000000
 20
199.250000
 30
0
 40
58.971000
  0
POLYLINE
  8
0
  6
CONTINUOUS
 62
7
 66
1
 10
0
 20
0
 30
0
 70
128
 40
1.0
 41
1.0
  0
VERTEX
  8
0
  6
CONTINUOUS
 62
7
 10
1156.000000
 20
125.583962
 30
0
 40
0
 41
0
  0
VERTEX
  8
0
  6
CONTINUOUS
 62
7
 10
1151.797698
 20
126.477339
 30
0
 40
0
 41
0
  0
VERTEX
  8
0
  6
CONTINUOUS
 62
7
 10
1147.595397
 20
127.381868
 30
0
 40
0
 41
0
  0
VERTEX
  8
0
  6
CONTINUOUS
 62
7
 10
1143.393095
 20
128.297347
 30
0
 40
0
 41
0
  0
VERTEX
  8
0
  6
CONTINUOUS
 62
7
 10
1139.190793
 20
129.223570
 30
0
 40
0
 41
0
  0
VERTEX
  8
0
  6
CONTINUOUS
 62
7
 10
1134.988491
 20
130.160333
 30
0
 40
0
 41
0
  0
VERTEX
  8
0
  6
CONTINUOUS
 62
7
 10
1130.786190
 20
131.107432
 30
0
 40
0
 41
0
  0
VERTEX
  8
0
  6
CONTINUOUS
 62
7
 10
1126.583888
 20
132.065464
 30
0
 40
0
 41
0
  0
VERTEX
  8
0
  6
CONTINUOUS
 62
7
 10
1122.381586
 20
133.036737
 30
0
 40
0
 41
0
  0
VERTEX
  8
0
  6
CONTINUOUS
 62
7
 10
1118.179284
 20
134.020093
 30
0
 40
0
 41
0
  0
VERTEX
  8
0
  6
CONTINUOUS
 62
7
 10
1113.976983
 20
135.014042
 30
0
 40
0
 41
0
  0
VERTEX
  8
0
  6
CONTINUOUS
 62
7
 10
1109.774681
 20
136.017092
 30
0
 40
0
 41
0
  0
VERTEX
  8
0
  6
CONTINUOUS
 62
7
 10
1105.572379
 20
137.027751
 30
0
 40
0
 41
0
  0
VERTEX
  8
0
  6
CONTINUOUS
 62
7
 10
1101.370077
 20
138.044810
 30
0
 40
0
 41
0
  0
VERTEX
  8
0
  6
CONTINUOUS
 62
7
 10
1097.167776
 20
139.071072
 30
0
 40
0
 41
0
  0
VERTEX
  8
0
  6
CONTINUOUS
 62
7
 10
1092.965474
 20
140.106859
 30
0
 40
0
 41
0
  0
VERTEX
  8
0
  6
CONTINUOUS
 62
7
 10
1088.763172
 20
141.151142
 30
0
 40
0
 41
0
  0
VERTEX
  8
0
  6
CONTINUOUS
 62
7
 10
1084.560870
 20
142.202890
 30
0
 40
0
 41
0
  0
VERTEX
  8
0
  6
CONTINUOUS
 62
7
 10
1080.358569
 20
143.261075
 30
0
 40
0
 41
0
  0
VERTEX
  8
0
  6
CONTINUOUS
 62
7
 10
1076.156267
 20
144.324670
 30
0
 40
0
 41
0
  0
VERTEX
  8
0
  6
CONTINUOUS
 62
7
 10
1071.953965
 20
145.393599
 30
0
 40
0
 41
0
  0
VERTEX
  8
0
  6
CONTINUOUS
 62
7
 10
1067.751663
 20
146.468772
 30
0
 40
0
 41
0
  0
VERTEX
  8
0
  6
CONTINUOUS
 62
7
 10
1063.549362
 20
147.550868
 30
0
 40
0
 41
0
  0
VERTEX
  8
0
  6
CONTINUOUS
 62
7
 10
1059.347060
 20
148.640567
 30
0
 40
0
 41
0
  0
VERTEX
  8
0
  6
CONTINUOUS
 62
7
 10
1055.144758
 20
149.738549
 30
0
 40
0
 41
0
  0
VERTEX
  8
0
  6
CONTINUOUS
 62
7
 10
1050.942456
 20
150.845494
 30
0
 40
0
 41
0
  0
VERTEX
  8
0
  6
CONTINUOUS
 62
7
 10
1046.740155
 20
151.962710
 30
0
 40
0
 41
0
  0
VERTEX
  8
0
  6
CONTINUOUS
 62
7
 10
1042.537853
 20
153.090417
 30
0
 40
0
 41
0
  0
VERTEX
  8
0
  6
CONTINUOUS
 62
7
 10
1038.335551
 20
154.227088
 30
0
 40
0
 41
0
  0
VERTEX
  8
0
  6
CONTINUOUS
 62
7
 10
1034.133249
 20
155.371187
 30
0
 40
0
 41
0
  0
VERTEX
  8
0
  6
CONTINUOUS
 62
7
 10
1029.930948
 20
156.521176
 30
0
 40
0
 41
0
  0
VERTEX
  8
0
  6
CONTINUOUS
 62
7
 10
1025.728646
 20
157.675520
 30
0
 40
0
 41
0
  0
VERTEX
  8
0
  6
CONTINUOUS
 62
7
 10
1021.526344
 20
158.834546
 30
0
 40
0
 41
0
  0
VERTEX
  8
0
  6
CONTINUOUS
 62
7
 10
1017.324042
 20
160.000621
 30
0
 40
0
 41
0
  0
VERTEX
  8
0
  6
CONTINUOUS
 62
7
 10
1013.121741
 20
161.172775
 30
0
 40
0
 41
0
  0
VERTEX
  8
0
  6
CONTINUOUS
 62
7
 10
1008.919439
 20
162.349943
 30
0
 40
0
 41
0
  0
VERTEX
  8
0
  6
CONTINUOUS
 62
7
 10
1004.717137
 20
163.531063
 30
0
 40
0
 41
0
  0
VERTEX
  8
0
  6
CONTINUOUS
 62
7
 10
1000.514835
 20
164.715071
 30
0
 40
0
 41
0
  0
VERTEX
  8
0
  6
CONTINUOUS
 62
7
 10
996.312534
 20
165.901652
 30
0
 40
0
 41
0
  0
VERTEX
  8
0
  6
CONTINUOUS
 62
7
 10
992.110232
 20
167.091927
 30
0
 40
0
 41
0
  0
VERTEX
  8
0
  6
CONTINUOUS
 62
7
 10
987.907930
 20
168.286030
 30
0
 40
0
 41
0
  0
VERTEX
  8
0
  6
CONTINUOUS
 62
7
 10
983.705628
 20
169.484053
 30
0
 40
0
 41
0
  0
VERTEX
  8
0
  6
CONTINUOUS
 62
7
 10
979.503327
 20
170.686086
 30
0
 40
0
 41
0
  0
VERTEX
  8
0
  6
CONTINUOUS
 62
7
 10
975.301025
 20
171.892223
 30
0
 40
0
 41
0
  0
VERTEX
  8
0
  6
CONTINUOUS
 62
7
 10
971.098723
 20
173.103380
 30
0
 40
0
 41
0
  0
VERTEX
  8
0
  6
CONTINUOUS
 62
7
 10
966.896421
 20
174.320233
 30
0
 40
0
 41
0
  0
VERTEX
  8
0
  6
CONTINUOUS
 62
7
 10
962.694120
 20
175.541387
 30
0
 40
0
 41
0
  0
VERTEX
  8
0
  6
CONTINUOUS
 62
7
 10
958.491818
 20
176.765414
 30
0
 40
0
 41
0
  0
VERTEX
  8
0
  6
CONTINUOUS
 62
7
 10
954.289516
 20
177.990887
 30
0
 40
0
 41
0
  0
VERTEX
  8
0
  6
CONTINUOUS
 62
7
 10
950.087214
 20
179.216378
 30
0
 40
0
 41
0
  0
VERTEX
  8
0
  6
CONTINUOUS
 62
7
 10
945.884913
 20
180.442849
 30
0
 40
0
 41
0
  0
VERTEX
  8
0
  6
CONTINUOUS
 62
7
 10
941.682611
 20
181.671755
 30
0
 40
0
 41
0
  0
VERTEX
  8
0
  6
CONTINUOUS
 62
7
 10
937.480309
 20
182.901986
 30
0
 40
0
 41
0
  0
VERTEX
  8
0
  6
CONTINUOUS
 62
7
 10
933.278007
 20
184.132430
 30
0
 40
0
 41
0
  0
VERTEX
  8
0
  6
CONTINUOUS
 62
7
 10
929.075706
 20
185.361976
 30
0
 40
0
 41
0
  0
VERTEX
  8
0
  6
CONTINUOUS
 62
7
 10
924.873404
 20
186.589573
 30
0
 40
0
 41
0
  0
VERTEX
  8
0
  6
CONTINUOUS
 62
7
 10
920.671102
 20
187.816955
 30
0
 40
0
 41
0
  0
VERTEX
  8
0
  6
CONTINUOUS
 62
7
 10
916.468800
 20
189.044464
 30
0
 40
0
 41
0
  0
VERTEX
  8
0
  6
CONTINUOUS
 62
7
 10
912.266499
 20
190.270868
 30
0
 40
0
 41
0
  0
VERTEX
  8
0
  6
CONTINUOUS
 62
7
 10
908.064197
 20
191.494936
 30
0
 40
0
 41
0
  0
VERTEX
  8
0
  6
CONTINUOUS
 62
7
 10
903.861895
 20
192.715435
 30
0
 40
0
 41
0
  0
VERTEX
  8
0
  6
CONTINUOUS
 62
7
 10
899.659593
 20
193.931788
 30
0
 40
0
 41
0
  0
VERTEX
  8
0
  6
CONTINUOUS
 62
7
 10
895.457292
 20
195.147485
 30
0
 40
0
 41
0
  0
VERTEX
  8
0
  6
CONTINUOUS
 62
7
 10
891.254990
 20
196.361191
 30
0
 40
0
 41
0
  0
VERTEX
  8
0
  6
CONTINUOUS
 62
7
 10
887.052688
 20
197.570399
 30
0
 40
0
 41
0
  0
VERTEX
  8
0
  6
CONTINUOUS
 62
7
 10
882.850386
 20
198.772604
 30
0
 40
0
 41
0
  0
VERTEX
  8
0
  6
CONTINUOUS
 62
7
 10
878.648085
 20
199.965299
 30
0
 40
0
 41
0
  0
VERTEX
  8
0
  6
CONTINUOUS
 62
7
 10
874.445783
 20
201.147324
 30
0
 40
0
 41
0
  0
VERTEX
  8
0
  6
CONTINUOUS
 62
7
 10
870.243481
 20
202.320876
 30
0
 40
0
 41
0
  0
VERTEX
  8
0
  6
CONTINUOUS
 62
7
 10
866.041179
 20
203.486734
 30
0
 40
0
 41
0
  0
VERTEX
  8
0
  6
CONTINUOUS
 62
7
 10
861.838878
 20
204.645588
 30
0
 40
0
 41
0
  0
VERTEX
  8
0
  6
CONTINUOUS
 62
7
 10
857.636576
 20
205.798130
 30
0
 40
0
 41
0
  0
VERTEX
  8
0
  6
CONTINUOUS
 62
7
 10
853.434274
 20
206.945124
 30
0
 40
0
 41
0
  0
VERTEX
  8
0
  6
CONTINUOUS
 62
7
 10
849.231972
 20
208.089153
 30
0
 40
0
 41
0
  0
VERTEX
  8
0
  6
CONTINUOUS
 62
7
 10
845.029671
 20
209.228969
 30
0
 40
0
 41
0
  0
VERTEX
  8
0
  6
CONTINUOUS
 62
7
 10
840.827369
 20
210.361507
 30
0
 40
0
 41
0
  0
VERTEX
  8
0
  6
CONTINUOUS
 62
7
 10
836.625067
 20
211.483700
 30
0
 40
0
 41
0
  0
VERTEX
  8
0
  6
CONTINUOUS
 62
7
 10
832.422765
 20
212.592481
 30
0
 40
0
 41
0
  0
VERTEX
  8
0
  6
CONTINUOUS
 62
7
 10
828.220464
 20
213.686668
 30
0
 40
0
 41
0
  0
VERTEX
  8
0
  6
CONTINUOUS
 62
7
 10
824.018162
 20
214.770217
 30
0
 40
0
 41
0
  0
VERTEX
  8
0
  6
CONTINUOUS
 62
7
 10
819.815860
 20
215.842617
 30
0
 40
0
 41
0
  0
VERTEX
  8
0
  6
CONTINUOUS
 62
7
 10
815.613558
 20
216.902945
 30
0
 40
0
 41
0
  0
VERTEX
  8
0
  6
CONTINUOUS
 62
7
 10
811.411257
 20
217.950276
 30
0
 40
0
 41
0
  0
VERTEX
  8
0
  6
CONTINUOUS
 62
7
 10
807.208955
 20
218.983647
 30
0
 40
0
 41
0
  0
VERTEX
  8
0
  6
CONTINUOUS
 62
7
 10
803.006653
 20
220.001949
 30
0
 40
0
 41
0
  0
VERTEX
  8
0
  6
CONTINUOUS
 62
7
 10
798.804351
 20
221.006720
 30
0
 40
0
 41
0
  0
VERTEX
  8
0
  6
CONTINUOUS
 62
7
 10
794.602050
 20
222.000258
 30
0
 40
0
 41
0
  0
VERTEX
  8
0
  6
CONTINUOUS
 62
7
 10
790.399748
 20
222.984862
 30
0
 40
0
 41
0
  0
VERTEX
  8
0
  6
CONTINUOUS
 62
7
 10
786.197446
 20
223.962829
 30
0
 40
0
 41
0
  0
VERTEX
  8
0
  6
CONTINUOUS
 62
7
 10
781.995144
 20
224.937225
 30
0
 40
0
 41
0
  0
VERTEX
  8
0
  6
CONTINUOUS
 62
7
 10
777.792843
 20
225.907780
 30
0
 40
0
 41
0
  0
VERTEX
  8
0
  6
CONTINUOUS
 62
7
 10
773.590541
 20
226.870092
 30
0
 40
0
 41
0
  0
VERTEX
  8
0
  6
CONTINUOUS
 62
7
 10
769.388239
 20
227.819714
 30
0
 40
0
 41
0
  0
VERTEX
  8
0
  6
CONTINUOUS
 62
7
 10
765.185937
 20
228.752200
 30
0
 40
0
 41
0
  0
VERTEX
  8
0
  6
CONTINUOUS
 62
7
 10
760.983636
 20
229.664244
 30
0
 40
0
 41
0
  0
VERTEX
  8
0
  6
CONTINUOUS
 62
7
 10
756.781334
 20
230.559343
 30
0
 40
0
 41
0
  0
VERTEX
  8
0
  6
CONTINUOUS
 62
7
 10
752.579032
 20
231.439623
 30
0
 40
0
 41
0
  0
VERTEX
  8
0
  6
CONTINUOUS
 62
7
 10
748.376730
 20
232.306681
 30
0
 40
0
 41
0
  0
VERTEX
  8
0
  6
CONTINUOUS
 62
7
 10
744.174429
 20
233.162119
 30
0
 40
0
 41
0
  0
VERTEX
  8
0
  6
CONTINUOUS
 62
7
 10
739.972127
 20
234.007269
 30
0
 40
0
 41
0
  0
VERTEX
  8
0
  6
CONTINUOUS
 62
7
 10
735.769825
 20
234.840218
 30
0
 40
0
 41
0
  0
VERTEX
  8
0
  6
CONTINUOUS
 62
7
 10
731.567523
 20
235.661490
 30
0
 40
0
 41
0
  0
VERTEX
  8
0
  6
CONTINUOUS
 62
7
 10
727.365222
 20
236.472712
 30
0
 40
0
 41
0
  0
VERTEX
  8
0
  6
CONTINUOUS
 62
7
 10
723.162920
 20
237.275509
 30
0
 40
0
 41
0
  0
VERTEX
  8
0
  6
CONTINUOUS
 62
7
 10
718.960618
 20
238.071648
 30
0
 40
0
 41
0
  0
VERTEX
  8
0
  6
CONTINUOUS
 62
7
 10
714.758316
 20
238.866698
 30
0
 40
0
 41
0
  0
VERTEX
  8
0
  6
CONTINUOUS
 62
7
 10
710.556015
 20
239.657604
 30
0
 40
0
 41
0
  0
VERTEX
  8
0
  6
CONTINUOUS
 62
7
 10
706.353713
 20
240.437139
 30
0
 40
0
 41
0
  0
VERTEX
  8
0
  6
CONTINUOUS
 62
7
 10
702.151411
 20
241.198078
 30
0
 40
0
 41
0
  0
VERTEX
  8
0
  6
CONTINUOUS
 62
7
 10
697.949109
 20
241.933209
 30
0
 40
0
 41
0
  0
VERTEX
  8
0
  6
CONTINUOUS
 62
7
 10
693.746808
 20
242.640219
 30
0
 40
0
 41
0
  0
VERTEX
  8
0
  6
CONTINUOUS
 62
7
 10
689.544506
 20
243.325476
 30
0
 40
0
 41
0
  0
VERTEX
  8
0
  6
CONTINUOUS
 62
7
 10
685.342204
 20
243.995761
 30
0
 40
0
 41
0
  0
VERTEX
  8
0
  6
CONTINUOUS
 62
7
 10
681.139902
 20
244.657856
 30
0
 40
0
 41
0
  0
VERTEX
  8
0
  6
CONTINUOUS
 62
7
 10
676.937601
 20
245.318533
 30
0
 40
0
 41
0
  0
VERTEX
  8
0
  6
CONTINUOUS
 62
7
 10
672.735299
 20
245.980678
 30
0
 40
0
 41
0
  0
VERTEX
  8
0
  6
CONTINUOUS
 62
7
 10
668.532997
 20
246.639563
 30
0
 40
0
 41
0
  0
VERTEX
  8
0
  6
CONTINUOUS
 62
7
 10
664.330695
 20
247.289908
 30
0
 40
0
 41
0
  0
VERTEX
  8
0
  6
CONTINUOUS
 62
7
 10
660.128394
 20
247.926429
 30
0
 40
0
 41
0
  0
VERTEX
  8
0
  6
CONTINUOUS
 62
7
 10
655.926092
 20
248.543927
 30
0
 40
0
 41
0
  0
VERTEX
  8
0
  6
CONTINUOUS
 62
7
 10
651.723790
 20
249.143753
 30
0
 40
0
 41
0
  0
VERTEX
  8
0
  6
CONTINUOUS
 62
7
 10
647.521488
 20
249.729488
 30
0
 40
0
 41
0
  0
VERTEX
  8
0
  6
CONTINUOUS
 62
7
 10
643.319187
 20
250.302426
 30
0
 40
0
 41
0
  0
VERTEX
  8
0
  6
CONTINUOUS
 62
7
 10
639.116885
 20
250.863861
 30
0
 40
0
 41
0
  0
VERTEX
  8
0
  6
CONTINUOUS
 62
7
 10
634.914583
 20
251.414990
 30
0
 40
0
 41
0
  0
VERTEX
  8
0
  6
CONTINUOUS
 62
7
 10
630.712281
 20
251.955178
 30
0
 40
0
 41
0
  0
VERTEX
  8
0
  6
CONTINUOUS
 62
7
 10
626.509980
 20
252.484651
 30
0
 40
0
 41
0
  0
VERTEX
  8
0
  6
CONTINUOUS
 62
7
 10
622.307678
 20
253.004279
 30
0
 40
0
 41
0
  0
VERTEX
  8
0
  6
CONTINUOUS
 62
7
 10
618.105376
 20
253.514933
 30
0
 40
0
 41
0
  0
VERTEX
  8
0
  6
CONTINUOUS
 62
7
 10
613.903074
 20
254.018179
 30
0
 40
0
 41
0
  0
VERTEX
  8
0
  6
CONTINUOUS
 62
7
 10
609.700773
 20
254.517312
 30
0
 40
0
 41
0
  0
VERTEX
  8
0
  6
CONTINUOUS
 62
7
 10
605.498471
 20
255.008504
 30
0
 40
0
 41
0
  0
VERTEX
  8
0
  6
CONTINUOUS
 62
7
 10
601.296169
 20
255.486841
 30
0
 40
0
 41
0
  0
VERTEX
  8
0
  6
CONTINUOUS
 62
7
 10
597.093867
 20
255.947412
 30
0
 40
0
 41
0
  0
VERTEX
  8
0
  6
CONTINUOUS
 62
7
 10
592.891566
 20
256.386243
 30
0
 40
0
 41
0
  0
VERTEX
  8
0
  6
CONTINUOUS
 62
7
 10
588.689264
 20
256.806324
 30
0
 40
0
 41
0
  0
VERTEX
  8
0
  6
CONTINUOUS
 62
7
 10
584.486962
 20
257.213737
 30
0
 40
0
 41
0
  0
VERTEX
  8
0
  6
CONTINUOUS
 62
7
 10
580.284660
 20
257.614577
 30
0
 40
0
 41
0
  0
VERTEX
  8
0
  6
CONTINUOUS
 62
7
 10
576.082359
 20
258.014972
 30
0
 40
0
 41
0
  0
VERTEX
  8
0
  6
CONTINUOUS
 62
7
 10
571.880057
 20
258.421337
 30
0
 40
0
 41
0
  0
VERTEX
  8
0
  6
CONTINUOUS
 62
7
 10
567.677755
 20
258.827834
 30
0
 40
0
 41
0
  0
VERTEX
  8
0
  6
CONTINUOUS
 62
7
 10
563.475453
 20
259.223909
 30
0
 40
0
 41
0
  0
VERTEX
  8
0
  6
CONTINUOUS
 62
7
 10
559.273152
 20
259.599010
 30
0
 40
0
 41
0
  0
VERTEX
  8
0
  6
CONTINUOUS
 62
7
 10
555.070850
 20
259.943905
 30
0
 40
0
 41
0
  0
VERTEX
  8
0
  6
CONTINUOUS
 62
7
 10
550.868548
 20
260.262970
 30
0
 40
0
 41
0
  0
VERTEX
  8
0
  6
CONTINUOUS
 62
7
 10
546.666246
 20
260.566038
 30
0
 40
0
 41
0
  0
VERTEX
  8
0
  6
CONTINUOUS
 62
7
 10
542.463945
 20
260.862629
 30
0
 40
0
 41
0
  0
VERTEX
  8
0
  6
CONTINUOUS
 62
7
 10
538.261643
 20
261.162264
 30
0
 40
0
 41
0
  0
VERTEX
  8
0
  6
CONTINUOUS
 62
7
 10
534.059341
 20
261.473530
 30
0
 40
0
 41
0
  0
VERTEX
  8
0
  6
CONTINUOUS
 62
7
 10
529.857039
 20
261.789205
 30
0
 40
0
 41
0
  0
VERTEX
  8
0
  6
CONTINUOUS
 62
7
 10
525.654738
 20
262.095468
 30
0
 40
0
 41
0
  0
VERTEX
  8
0
  6
CONTINUOUS
 62
7
 10
521.452436
 20
262.378495
 30
0
 40
0
 41
0
  0
VERTEX
  8
0
  6
CONTINUOUS
 62
7
 10
517.250134
 20
262.627305
 30
0
 40
0
 41
0
  0
VERTEX
  8
0
  6
CONTINUOUS
 62
7
 10
513.047832
 20
262.850385
 30
0
 40
0
 41
0
  0
VERTEX
  8
0
  6
CONTINUOUS
 62
7
 10
508.845531
 20
263.058623
 30
0
 40
0
 41
0
  0
VERTEX
  8
0
  6
CONTINUOUS
 62
7
 10
504.643229
 20
263.262185
 30
0
 40
0
 41
0
  0
VERTEX
  8
0
  6
CONTINUOUS
 62
7
 10
500.440927
 20
263.471405
 30
0
 40
0
 41
0
  0
VERTEX
  8
0
  6
CONTINUOUS
 62
7
 10
496.238625
 20
263.694332
 30
0
 40
0
 41
0
  0
VERTEX
  8
0
  6
CONTINUOUS
 62
7
 10
492.036324
 20
263.919236
 30
0
 40
0
 41
0
  0
VERTEX
  8
0
  6
CONTINUOUS
 62
7
 10
487.834022
 20
264.129716
 30
0
 40
0
 41
0
  0
VERTEX
  8
0
  6
CONTINUOUS
 62
7
 10
483.631720
 20
264.309365
 30
0
 40
0
 41
0
  0
VERTEX
  8
0
  6
CONTINUOUS
 62
7
 10
479.429418
 20
264.453802
 30
0
 40
0
 41
0
  0
VERTEX
  8
0
  6
CONTINUOUS
 62
7
 10
475.227117
 20
264.578546
 30
0
 40
0
 41
0
  0
VERTEX
  8
0
  6
CONTINUOUS
 62
7
 10
471.024815
 20
264.693657
 30
0
 40
0
 41
0
  0
VERTEX
  8
0
  6
CONTINUOUS
 62
7
 10
466.822513
 20
264.809157
 30
0
 40
0
 41
0
  0
VERTEX
  8
0
  6
CONTINUOUS
 62
7
 10
462.620211
 20
264.938211
 30
0
 40
0
 41
0
  0
VERTEX
  8
0
  6
CONTINUOUS
 62
7
 10
458.417910
 20
265.082178
 30
0
 40
0
 41
0
  0
VERTEX
  8
0
  6
CONTINUOUS
 62
7
 10
454.215608
 20
265.216908
 30
0
 40
0
 41
0
  0
VERTEX
  8
0
  6
CONTINUOUS
 62
7
 10
450.013306
 20
265.317289
 30
0
 40
0
 41
0
  0
VERTEX
  8
0
  6
CONTINUOUS
 62
7
 10
445.811004
 20
265.367796
 30
0
 40
0
 41
0
  0
VERTEX
  8
0
  6
CONTINUOUS
 62
7
 10
441.608703
 20
265.400091
 30
0
 40
0
 41
0
  0
VERTEX
  8
0
  6
CONTINUOUS
 62
7
 10
437.406401
 20
265.425036
 30
0
 40
0
 41
0
  0
VERTEX
  8
0
  6
CONTINUOUS
 62
7
 10
433.204099
 20
265.449052
 30
0
 40
0
 41
0
  0
VERTEX
  8
0
  6
CONTINUOUS
 62
7
 10
429.001797
 20
265.478932
 30
0
 40
0
 41
0
  0
VERTEX
  8
0
  6
CONTINUOUS
 62
7
 10
424.799496
 20
265.516870
 30
0
 40
0
 41
0
  0
VERTEX
  8
0
  6
CONTINUOUS
 62
7
 10
420.597194
 20
265.553017
 30
0
 40
0
 41
0
  0
VERTEX
  8
0
  6
CONTINUOUS
 62
7
 10
416.394892
 20
265.576407
 30
0
 40
0
 41
0
  0
VERTEX
  8
0
  6
CONTINUOUS
 62
7
 10
412.192590
 20
265.572828
 30
0
 40
0
 41
0
  0
VERTEX
  8
0
  6
CONTINUOUS
 62
7
 10
407.990289
 20
265.524072
 30
0
 40
0
 41
0
  0
VERTEX
  8
0
  6
CONTINUOUS
 62
7
 10
403.787987
 20
265.448171
 30
0
 40
0
 41
0
  0
VERTEX
  8
0
  6
CONTINUOUS
 62
7
 10
399.585685
 20
265.367952
 30
0
 40
0
 41
0
  0
VERTEX
  8
0
  6
CONTINUOUS
 62
7
 10
395.383383
 20
265.302259
 30
0
 40
0
 41
0
  0
VERTEX
  8
0
  6
CONTINUOUS
 62
7
 10
391.181082
 20
265.242504
 30
0
 40
0
 41
0
  0
VERTEX
  8
0
  6
CONTINUOUS
 62
7
 10
386.978780
 20
265.178666
 30
0
 40
0
 41
0
  0
VERTEX
  8
0
  6
CONTINUOUS
 62
7
 10
382.776478
 20
265.102073
 30
0
 40
0
 41
0
  0
VERTEX
  8
0
  6
CONTINUOUS
 62
7
 10
378.574176
 20
264.999176
 30
0
 40
0
 41
0
  0
VERTEX
  8
0
  6
CONTINUOUS
 62
7
 10
374.371875
 20
264.860194
 30
0
 40
0
 41
0
  0
VERTEX
  8
0
  6
CONTINUOUS
 62
7
 10
370.169573
 20
264.701212
 30
0
 40
0
 41
0
  0
VERTEX
  8
0
  6
CONTINUOUS
 62
7
 10
365.967271
 20
264.539501
 30
0
 40
0
 41
0
  0
VERTEX
  8
0
  6
CONTINUOUS
 62
7
 10
361.764969
 20
264.382134
 30
0
 40
0
 41
0
  0
VERTEX
  8
0
  6
CONTINUOUS
 62
7
 10
357.562668
 20
264.219251
 30
0
 40
0
 41
0
  0
VERTEX
  8
0
  6
CONTINUOUS
 62
7
 10
353.360366
 20
264.046219
 30
0
 40
0
 41
0
  0
VERTEX
  8
0
  6
CONTINUOUS
 62
7
 10
349.158064
 20
263.858414
 30
0
 40
0
 41
0
  0
VERTEX
  8
0
  6
CONTINUOUS
 62
7
 10
344.955762
 20
263.651862
 30
0
 40
0
 41
0
  0
VERTEX
  8
0
  6
CONTINUOUS
 62
7
 10
340.753461
 20
263.428317
 30
0
 40
0
 41
0
  0
VERTEX
  8
0
  6
CONTINUOUS
 62
7
 10
336.551159
 20
263.190940
 30
0
 40
0
 41
0
  0
VERTEX
  8
0
  6
CONTINUOUS
 62
7
 10
332.348857
 20
262.941396
 30
0
 40
0
 41
0
  0
VERTEX
  8
0
  6
CONTINUOUS
 62
7
 10
328.146555
 20
262.675266
 30
0
 40
0
 41
0
  0
VERTEX
  8
0
  6
CONTINUOUS
 62
7
 10
323.944254
 20
262.393172
 30
0
 40
0
 41
0
  0
VERTEX
  8
0
  6
CONTINUOUS
 62
7
 10
319.741952
 20
262.096540
 30
0
 40
0
 41
0
  0
VERTEX
  8
0
  6
CONTINUOUS
 62
7
 10
309.582482
 20
261.410547
 30
0
 40
0
 41
0
  0
VERTEX
  8
0
  6
CONTINUOUS
 62
7
 10
301.123215
 20
260.724554
 30
0
 40
0
 41
0
  0
VERTEX
  8
0
  6
CONTINUOUS
 62
7
 10
293.969840
 20
260.038561
 30
0
 40
0
 41
0
  0
VERTEX
  8
0
  6
CONTINUOUS
 62
7
 10
286.621227
 20
259.352568
 30
0
 40
0
 41
0
  0
VERTEX
  8
0
  6
CONTINUOUS
 62
7
 10
279.163745
 20
258.666575
 30
0
 40
0
 41
0
  0
VERTEX
  8
0
  6
CONTINUOUS
 62
7
 10
272.585433
 20
257.980582
 30
0
 40
0
 41
0
  0
VERTEX
  8
0
  6
CONTINUOUS
 62
7
 10
266.647718
 20
257.294589
 30
0
 40
0
 41
0
  0
VERTEX
  8
0
  6
CONTINUOUS
 62
7
 10
260.865703
 20
256.608596
 30
0
 40
0
 41
0
  0
VERTEX
  8
0
  6
CONTINUOUS
 62
7
 10
255.206130
 20
255.922603
 30
0
 40
0
 41
0
  0
VERTEX
  8
0
  6
CONTINUOUS
 62
7
 10
249.669182
 20
255.236610
 30
0
 40
0
 41
0
  0
VERTEX
  8
0
  6
CONTINUOUS
 62
7
 10
244.136311
 20
254.550617
 30
0
 40
0
 41
0
  0
VERTEX
  8
0
  6
CONTINUOUS
 62
7
 10
238.743239
 20
253.864624
 30
0
 40
0
 41
0
  0
VERTEX
  8
0
  6
CONTINUOUS
 62
7
 10
233.826203
 20
253.178631
 30
0
 40
0
 41
0
  0
VERTEX
  8
0
  6
CONTINUOUS
 62
7
 10
229.347031
 20
252.492638
 30
0
 40
0
 41
0
  0
VERTEX
  8
0
  6
CONTINUOUS
 62
7
 10
225.002038
 20
251.806645
 30
0
 40
0
 41
0
  0
VERTEX
  8
0
  6
CONTINUOUS
 62
7
 10
220.524914
 20
251.120652
 30
0
 40
0
 41
0
  0
VERTEX
  8
0
  6
CONTINUOUS
 62
7
 10
215.981104
 20
250.434659
 30
0
 40
0
 41
0
  0
VERTEX
  8
0
  6
CONTINUOUS
 62
7
 10
211.560692
 20
249.748666
 30
0
 40
0
 41
0
  0
VERTEX
  8
0
  6
CONTINUOUS
 62
7
 10
207.377309
 20
249.062673
 30
0
 40
0
 41
0
  0
VERTEX
  8
0
  6
CONTINUOUS
 62
7
 10
203.350283
 20
248.376680
 30
0
 40
0
 41
0
  0
VERTEX
  8
0
  6
CONTINUOUS
 62
7
 10
199.451352
 20
247.690687
 30
0
 40
0
 41
0
  0
VERTEX
  8
0
  6
CONTINUOUS
 62
7
 10
195.681412
 20
247.004694
 30
0
 40
0
 41
0
  0
VERTEX
  8
0
  6
CONTINUOUS
 62
7
 10
192.048563
 20
246.318701
 30
0
 40
0
 41
0
  0
VERTEX
  8
0
  6
CONTINUOUS
 62
7
 10
188.460848
 20
245.632708
 30
0
 40
0
 41
0
  0
VERTEX
  8
0
  6
CONTINUOUS
 62
7
 10
184.820283
 20
244.946715
 30
0
 40
0
 41
0
  0
VERTEX
  8
0
  6
CONTINUOUS
 62
7
 10
181.102893
 20
244.260722
 30
0
 40
0
 41
0
  0
VERTEX
  8
0
  6
CONTINUOUS
 62
7
 10
177.439365
 20
243.574729
 30
0
 40
0
 41
0
  0
VERTEX
  8
0
  6
CONTINUOUS
 62
7
 10
173.972228
 20
242.888736
 30
0
 40
0
 41
0
  0
VERTEX
  8
0
  6
CONTINUOUS
 62
7
 10
170.711856
 20
242.202743
 30
0
 40
0
 41
0
  0
VERTEX
  8
0
  6
CONTINUOUS
 62
7
 10
167.574332
 20
241.516750
 30
0
 40
0
 41
0
  0
VERTEX
  8
0
  6
CONTINUOUS
 62
7
 10
164.489418
 20
240.830757
 30
0
 40
0
 41
0
  0
VERTEX
  8
0
  6
CONTINUOUS
 62
7
 10
161.413803
 20
240.144764
 30
0
 40
0
 41
0
  0
VERTEX
  8
0
  6
CONTINUOUS
 62
7
 10
158.388397
 20
239.458771
 30
0
 40
0
 41
0
  0
VERTEX
  8
0
  6
CONTINUOUS
 62
7
 10
155.388426
 20
238.772778
 30
0
 40
0
 41
0
  0
VERTEX
  8
0
  6
CONTINUOUS
 62
7
 10
152.381857
 20
238.086785
 30
0
 40
0
 41
0
  0
VERTEX
  8
0
  6
CONTINUOUS
 62
7
 10
149.318012
 20
237.400792
 30
0
 40
0
 41
0
  0
VERTEX
  8
0
  6
CONTINUOUS
 62
7
 10
146.233565
 20
236.714799
 30
0
 40
0
 41
0
  0
VERTEX
  8
0
  6
CONTINUOUS
 62
7
 10
143.231033
 20
236.028806
 30
0
 40
0
 41
0
  0
VERTEX
  8
0
  6
CONTINUOUS
 62
7
 10
140.404575
 20
235.342813
 30
0
 40
0
 41
0
  0
VERTEX
  8
0
  6
CONTINUOUS
 62
7
 10
137.733791
 20
234.656820
 30
0
 40
0
 41
0
  0
VERTEX
  8
0
  6
CONTINUOUS
 62
7
 10
135.155017
 20
233.970827
 30
0
 40
0
 41
0
  0
VERTEX
  8
0
  6
CONTINUOUS
 62
7
 10
132.611069
 20
233.284834
 30
0
 40
0
 41
0
  0
VERTEX
  8
0
  6
CONTINUOUS
 62
7
 10
130.053736
 20
232.598841
 30
0
 40
0
 41
0
  0
VERTEX
  8
0
  6
CONTINUOUS
 62
7
 10
127.515624
 20
231.912848
 30
0
 40
0
 41
0
  0
VERTEX
  8
0
  6
CONTINUOUS
 62
7
 10
124.996421
 20
231.226856
 30
0
 40
0
 41
0
  0
VERTEX
  8
0
  6
CONTINUOUS
 62
7
 10
122.481082
 20
230.540863
 30
0
 40
0
 41
0
  0
VERTEX
  8
0
  6
CONTINUOUS
 62
7
 10
119.950113
 20
229.854870
 30
0
 40
0
 41
0
  0
VERTEX
  8
0
  6
CONTINUOUS
 62
7
 10
117.374759
 20
229.168877
 30
0
 40
0
 41
0
  0
VERTEX
  8
0
  6
CONTINUOUS
 62
7
 10
114.806383
 20
228.482884
 30
0
 40
0
 41
0
  0
VERTEX
  8
0
  6
CONTINUOUS
 62
7
 10
112.310752
 20
227.796891
 30
0
 40
0
 41
0
  0
VERTEX
  8
0
  6
CONTINUOUS
 62
7
 10
109.944563
 20
227.110898
 30
0
 40
0
 41
0
  0
VERTEX
  8
0
  6
CONTINUOUS
 62
7
 10
107.683477
 20
226.424905
 30
0
 40
0
 41
0
  0
VERTEX
  8
0
  6
CONTINUOUS
 62
7
 10
105.489821
 20
225.738912
 30
0
 40
0
 41
0
  0
VERTEX
  8
0
  6
CONTINUOUS
 62
7
 10
103.330394
 20
225.052919
 30
0
 40
0
 41
0
  0
VERTEX
  8
0
  6
CONTINUOUS
 62
7
 10
101.173262
 20
224.366926
 30
0
 40
0
 41
0
  0
VERTEX
  8
0
  6
CONTINUOUS
 62
7
 10
99.034757
 20
223.680933
 30
0
 40
0
 41
0
  0
VERTEX
  8
0
  6
CONTINUOUS
 62
7
 10
96.920926
 20
222.994940
 30
0
 40
0
 41
0
  0
VERTEX
  8
0
  6
CONTINUOUS
 62
7
 10
94.817401
 20
222.308947
 30
0
 40
0
 41
0
  0
VERTEX
  8
0
  6
CONTINUOUS
 62
7
 10
92.709812
 20
221.622954
 30
0
 40
0
 41
0
  0
VERTEX
  8
0
  6
CONTINUOUS
 62
7
 10
90.578874
 20
220.936961
 30
0
 40
0
 41
0
  0
VERTEX
  8
0
  6
CONTINUOUS
 62
7
 10
88.428331
 20
220.250968
 30
0
 40
0
 41
0
  0
VERTEX
  8
0
  6
CONTINUOUS
 62
7
 10
86.292397
 20
219.564975
 30
0
 40
0
 41
0
  0
VERTEX
  8
0
  6
CONTINUOUS
 62
7
 10
84.205738
 20
218.878982
 30
0
 40
0
 41
0
  0
VERTEX
  8
0
  6
CONTINUOUS
 62
7
 10
82.192833
 20
218.192989
 30
0
 40
0
 41
0
  0
VERTEX
  8
0
  6
CONTINUOUS
 62
7
 10
80.230340
 20
217.506996
 30
0
 40
0
 41
0
  0
VERTEX
  8
0
  6
CONTINUOUS
 62
7
 10
78.309626
 20
216.821003
 30
0
 40
0
 41
0
  0
VERTEX
  8
0
  6
CONTINUOUS
 62
7
 10
76.425277
 20
216.135010
 30
0
 40
0
 41
0
  0
VERTEX
  8
0
  6
CONTINUOUS
 62
7
 10
74.572084
 20
215.449017
 30
0
 40
0
 41
0
  0
VERTEX
  8
0
  6
CONTINUOUS
 62
7
 10
72.762434
 20
214.763024
 30
0
 40
0
 41
0
  0
VERTEX
  8
0
  6
CONTINUOUS
 62
7
 10
70.992410
 20
214.077031
 30
0
 40
0
 41
0
  0
VERTEX
  8
0
  6
CONTINUOUS
 62
7
 10
69.242477
 20
213.391038
 30
0
 40
0
 41
0
  0
VERTEX
  8
0
  6
CONTINUOUS
 62
7
 10
67.493099
 20
212.705045
 30
0
 40
0
 41
0
  0
VERTEX
  8
0
  6
CONTINUOUS
 62
7
 10
65.726460
 20
212.019052
 30
0
 40
0
 41
0
  0
VERTEX
  8
0
  6
CONTINUOUS
 62
7
 10
63.948007
 20
211.333059
 30
0
 40
0
 41
0
  0
VERTEX
  8
0
  6
CONTINUOUS
 62
7
 10
62.168600
 20
210.647066
 30
0
 40
0
 41
0
  0
VERTEX
  8
0
  6
CONTINUOUS
 62
7
 10
60.396999
 20
209.961073
 30
0
 40
0
 41
0
  0
VERTEX
  8
0
  6
CONTINUOUS
 62
7
 10
58.641966
 20
209.275080
 30
0
 40
0
 41
0
  0
VERTEX
  8
0
  6
CONTINUOUS
 62
7
 10
56.893060
 20
208.589087
 30
0
 40
0
 41
0
  0
VERTEX
  8
0
  6
CONTINUOUS
 62
7
 10
55.139239
 20
207.903094
 30
0
 40
0
 41
0
  0
VERTEX
  8
0
  6
CONTINUOUS
 62
7
 10
53.408655
 20
207.217101
 30
0
 40
0
 41
0
  0
VERTEX
  8
0
  6
CONTINUOUS
 62
7
 10
51.729963
 20
206.531108
 30
0
 40
0
 41
0
  0
VERTEX
  8
0
  6
CONTINUOUS
 62
7
 10
50.130816
 20
205.845115
 30
0
 40
0
 41
0
  0
VERTEX
  8
0
  6
CONTINUOUS
 62
7
 10
48.611250
 20
205.159122
 30
0
 40
0
 41
0
  0
VERTEX
  8
0
  6
CONTINUOUS
 62
7
 10
47.145130
 20
204.473129
 30
0
 40
0
 41
0
  0
VERTEX
  8
0
  6
CONTINUOUS
 62
7
 10
45.705843
 20
203.787136
 30
0
 40
0
 41
0
  0
VERTEX
  8
0
  6
CONTINUOUS
 62
7
 10
44.266774
 20
203.101143
 30
0
 40
0
 41
0
  0
VERTEX
  8
0
  6
CONTINUOUS
 62
7
 10
42.803610
 20
202.415150
 30
0
 40
0
 41
0
  0
VERTEX
  8
0
  6
CONTINUOUS
 62
7
 10
41.331284
 20
201.729157
 30
0
 40
0
 41
0
  0
VERTEX
  8
0
  6
CONTINUOUS
 62
7
 10
39.858957
 20
201.043164
 30
0
 40
0
 41
0
  0
VERTEX
  8
0
  6
CONTINUOUS
 62
7
 10
38.386631
 20
200.357171
 30
0
 40
0
 41
0
  0
VERTEX
  8
0
  6
CONTINUOUS
 62
7
 10
36.914304
 20
199.671178
 30
0
 40
0
 41
0
  0
VERTEX
  8
0
  6
CONTINUOUS
 62
7
 10
35.437562
 20
198.985185
 30
0
 40
0
 41
0
  0
VERTEX
  8
0
  6
CONTINUOUS
 62
7
 10
33.937320
 20
198.299192
 30
0
 40
0
 41
0
  0
VERTEX
  8
0
  6
CONTINUOUS
 62
7
 10
32.435146
 20
197.613199
 30
0
 40
0
 41
0
  0
VERTEX
  8
0
  6
CONTINUOUS
 62
7
 10
30.959296
 20
196.927206
 30
0
 40
0
 41
0
  0
VERTEX
  8
0
  6
CONTINUOUS
 62
7
 10
29.538029
 20
196.241213
 30
0
 40
0
 41
0
  0
VERTEX
  8
0
  6
CONTINUOUS
 62
7
 10
28.184524
 20
195.555220
 30
0
 40
0
 41
0
  0
VERTEX
  8
0
  6
CONTINUOUS
 62
7
 10
26.877405
 20
194.869227
 30
0
 40
0
 41
0
  0
VERTEX
  8
0
  6
CONTINUOUS
 62
7
 10
25.604094
 20
194.183234
 30
0
 40
0
 41
0
  0
VERTEX
  8
0
  6
CONTINUOUS
 62
7
 10
24.352360
 20
193.497241
 30
0
 40
0
 41
0
  0
VERTEX
  8
0
  6
CONTINUOUS
 62
7
 10
23.109972
 20
192.811248
 30
0
 40
0
 41
0
  0
VERTEX
  8
0
  6
CONTINUOUS
 62
7
 10
21.874686
 20
192.125255
 30
0
 40
0
 41
0
  0
VERTEX
  8
0
  6
CONTINUOUS
 62
7
 10
20.660127
 20
191.439262
 30
0
 40
0
 41
0
  0
VERTEX
  8
0
  6
CONTINUOUS
 62
7
 10
19.459148
 20
190.753269
 30
0
 40
0
 41
0
  0
VERTEX
  8
0
  6
CONTINUOUS
 62
7
 10
18.263630
 20
190.067276
 30
0
 40
0
 41
0
  0
VERTEX
  8
0
  6
CONTINUOUS
 62
7
 10
17.065452
 20
189.381283
 30
0
 40
0
 41
0
  0
VERTEX
  8
0
  6
CONTINUOUS
 62
7
 10
15.858506
 20
188.695291
 30
0
 40
0
 41
0
  0
VERTEX
  8
0
  6
CONTINUOUS
 62
7
 10
14.647583
 20
188.009298
 30
0
 40
0
 41
0
  0
VERTEX
  8
0
  6
CONTINUOUS
 62
7
 10
13.436594
 20
187.323305
 30
0
 40
0
 41
0
  0
VERTEX
  8
0
  6
CONTINUOUS
 62
7
 10
12.228931
 20
186.637312
 30
0
 40
0
 41
0
  0
VERTEX
  8
0
  6
CONTINUOUS
 62
7
 10
11.027988
 20
185.951319
 30
0
 40
0
 41
0
  0
VERTEX
  8
0
  6
CONTINUOUS
 62
7
 10
9.826580
 20
185.265326
 30
0
 40
0
 41
0
  0
VERTEX
  8
0
  6
CONTINUOUS
 62
7
 10
8.610246
 20
184.579333
 30
0
 40
0
 41
0
  0
VERTEX
  8
0
  6
CONTINUOUS
 62
7
 10
7.402908
 20
183.893340
 30
0
 40
0
 41
0
  0
VERTEX
  8
0
  6
CONTINUOUS
 62
7
 10
6.230432
 20
183.207347
 30
0
 40
0
 41
0
  0
VERTEX
  8
0
  6
CONTINUOUS
 62
7
 10
5.118685
 20
182.521354
 30
0
 40
0
 41
0
  0
VERTEX
  8
0
  6
CONTINUOUS
 62
7
 10
4.078574
 20
181.835361
 30
0
 40
0
 41
0
  0
VERTEX
  8
0
  6
CONTINUOUS
 62
7
 10
3.089852
 20
181.149368
 30
0
 40
0
 41
0
  0
VERTEX
  8
0
  6
CONTINUOUS
 62
7
 10
2.133182
 20
180.463375
 30
0
 40
0
 41
0
  0
VERTEX
  8
0
  6
CONTINUOUS
 62
7
 10
1.189238
 20
179.777382
 30
0
 40
0
 41
0
  0
VERTEX
  8
0
  6
CONTINUOUS
 62
7
 10
0.238694
 20
179.091389
 30
0
 40
0
 41
0
  0
VERTEX
  8
0
  6
CONTINUOUS
 62
7
 10
-0.732415
 20
178.405396
 30
0
 40
0
 41
0
  0
VERTEX
  8
0
  6
CONTINUOUS
 62
7
 10
-1.707087
 20
177.719403
 30
0
 40
0
 41
0
  0
VERTEX
  8
0
  6
CONTINUOUS
 62
7
 10
-2.681759
 20
177.033410
 30
0
 40
0
 41
0
  0
VERTEX
  8
0
  6
CONTINUOUS
 62
7
 10
-3.656432
 20
176.347417
 30
0
 40
0
 41
0
  0
VERTEX
  8
0
  6
CONTINUOUS
 62
7
 10
-4.631104
 20
175.661424
 30
0
 40
0
 41
0
  0
VERTEX
  8
0
  6
CONTINUOUS
 62
7
 10
-5.607442
 20
174.975431
 30
0
 40
0
 41
0
  0
VERTEX
  8
0
  6
CONTINUOUS
 62
7
 10
-6.596306
 20
174.289438
 30
0
 40
0
 41
0
  0
VERTEX
  8
0
  6
CONTINUOUS
 62
7
 10
-7.588116
 20
173.603445
 30
0
 40
0
 41
0
  0
VERTEX
  8
0
  6
CONTINUOUS
 62
7
 10
-8.568655
 20
172.917452
 30
0
 40
0
 41
0
  0
VERTEX
  8
0
  6
CONTINUOUS
 62
7
 10
-9.523704
 20
172.231459
 30
0
 40
0
 41
0
  0
VERTEX
  8
0
  6
CONTINUOUS
 62
7
 10
-10.444030
 20
171.545466
 30
0
 40
0
 41
0
  0
VERTEX
  8
0
  6
CONTINUOUS
 62
7
 10
-11.343088
 20
170.859473
 30
0
 40
0
 41
0
  0
VERTEX
  8
0
  6
CONTINUOUS
 62
7
 10
-12.222462
 20
170.173480
 30
0
 40
0
 41
0
  0
VERTEX
  8
0
  6
CONTINUOUS
 62
7
 10
-13.081529
 20
169.487487
 30
0
 40
0
 41
0
  0
VERTEX
  8
0
  6
CONTINUOUS
 62
7
 10
-13.919665
 20
168.801494
 30
0
 40
0
 41
0
  0
VERTEX
  8
0
  6
CONTINUOUS
 62
7
 10
-14.734587
 20
168.115501
 30
0
 40
0
 41
0
  0
VERTEX
  8
0
  6
CONTINUOUS
 62
7
 10
-15.520935
 20
167.429508
 30
0
 40
0
 41
0
  0
VERTEX
  8
0
  6
CONTINUOUS
 62
7
 10
-16.287053
 20
166.743515
 30
0
 40
0
 41
0
  0
VERTEX
  8
0
  6
CONTINUOUS
 62
7
 10
-17.042994
 20
166.057522
 30
0
 40
0
 41
0
  0
VERTEX
  8
0
  6
CONTINUOUS
 62
7
 10
-17.798811
 20
165.371529
 30
0
 40
0
 41
0
  0
VERTEX
  8
0
  6
CONTINUOUS
 62
7
 10
-18.564121
 20
164.685536
 30
0
 40
0
 41
0
  0
VERTEX
  8
0
  6
CONTINUOUS
 62
7
 10
-19.334086
 20
163.999543
 30
0
 40
0
 41
0
  0
VERTEX
  8
0
  6
CONTINUOUS
 62
7
 10
-20.104050
 20
163.313550
 30
0
 40
0
 41
0
  0
VERTEX
  8
0
  6
CONTINUOUS
 62
7
 10
-20.874015
 20
162.627557
 30
0
 40
0
 41
0
  0
VERTEX
  8
0
  6
CONTINUOUS
 62
7
 10
-21.643980
 20
161.941564
 30
0
 40
0
 41
0
  0
VERTEX
  8
0
  6
CONTINUOUS
 62
7
 10
-22.415617
 20
161.255571
 30
0
 40
0
 41
0
  0
VERTEX
  8
0
  6
CONTINUOUS
 62
7
 10
-23.208150
 20
160.569578
 30
0
 40
0
 41
0
  0
VERTEX
  8
0
  6
CONTINUOUS
 62
7
 10
-24.006316
 20
159.883585
 30
0
 40
0
 41
0
  0
VERTEX
  8
0
  6
CONTINUOUS
 62
7
 10
-24.783364
 20
159.197592
 30
0
 40
0
 41
0
  0
VERTEX
  8
0
  6
CONTINUOUS
 62
7
 10
-25.512541
 20
158.511599
 30
0
 40
0
 41
0
  0
VERTEX
  8
0
  6
CONTINUOUS
 62
7
 10
-26.178343
 20
157.825606
 30
0
 40
0
 41
0
  0
VERTEX
  8
0
  6
CONTINUOUS
 62
7
 10
-26.800948
 20
157.139613
 30
0
 40
0
 41
0
  0
VERTEX
  8
0
  6
CONTINUOUS
 62
7
 10
-27.395209
 20
156.453620
 30
0
 40
0
 41
0
  0
VERTEX
  8
0
  6
CONTINUOUS
 62
7
 10
-27.975354
 20
155.767627
 30
0
 40
0
 41
0
  0
VERTEX
  8
0
  6
CONTINUOUS
 62
7
 10
-28.555613
 20
155.081634
 30
0
 40
0
 41
0
  0
VERTEX
  8
0
  6
CONTINUOUS
 62
7
 10
-29.146383
 20
154.395641
 30
0
 40
0
 41
0
  0
VERTEX
  8
0
  6
CONTINUOUS
 62
7
 10
-29.734381
 20
153.709648
 30
0
 40
0
 41
0
  0
VERTEX
  8
0
  6
CONTINUOUS
 62
7
 10
-30.318467
 20
153.023655
 30
0
 40
0
 41
0
  0
VERTEX
  8
0
  6
CONTINUOUS
 62
7
 10
-30.900839
 20
152.337662
 30
0
 40
0
 41
0
  0
VERTEX
  8
0
  6
CONTINUOUS
 62
7
 10
-31.483696
 20
151.651669
 30
0
 40
0
 41
0
  0
VERTEX
  8
0
  6
CONTINUOUS
 62
7
 10
-32.072300
 20
150.965676
 30
0
 40
0
 41
0
  0
VERTEX
  8
0
  6
CONTINUOUS
 62
7
 10
-32.674194
 20
150.279683
 30
0
 40
0
 41
0
  0
VERTEX
  8
0
  6
CONTINUOUS
 62
7
 10
-33.274107
 20
149.593690
 30
0
 40
0
 41
0
  0
VERTEX
  8
0
  6
CONTINUOUS
 62
7
 10
-33.854597
 20
148.907697
 30
0
 40
0
 41
0
  0
VERTEX
  8
0
  6
CONTINUOUS
 62
7
 10
-34.398673
 20
148.221704
 30
0
 40
0
 41
0
  0
VERTEX
  8
0
  6
CONTINUOUS
 62
7
 10
-34.911846
 20
147.535711
 30
0
 40
0
 41
0
  0
VERTEX
  8
0
  6
CONTINUOUS
 62
7
 10
-35.403933
 20
146.849718
 30
0
 40
0
 41
0
  0
VERTEX
  8
0
  6
CONTINUOUS
 62
7
 10
-35.877449
 20
146.163725
 30
0
 40
0
 41
0
  0
VERTEX
  8
0
  6
CONTINUOUS
 62
7
 10
-36.334912
 20
145.477733
 30
0
 40
0
 41
0
  0
VERTEX
  8
0
  6
CONTINUOUS
 62
7
 10
-36.777350
 20
144.791740
 30
0
 40
0
 41
0
  0
VERTEX
  8
0
  6
CONTINUOUS
 62
7
 10
-37.198824
 20
144.105747
 30
0
 40
0
 41
0
  0
VERTEX
  8
0
  6
CONTINUOUS
 62
7
 10
-37.605487
 20
143.419754
 30
0
 40
0
 41
0
  0
VERTEX
  8
0
  6
CONTINUOUS
 62
7
 10
-38.005859
 20
142.733761
 30
0
 40
0
 41
0
  0
VERTEX
  8
0
  6
CONTINUOUS
 62
7
 10
-38.408460
 20
142.047768
 30
0
 40
0
 41
0
  0
VERTEX
  8
0
  6
CONTINUOUS
 62
7
 10
-38.823399
 20
141.361775
 30
0
 40
0
 41
0
  0
VERTEX
  8
0
  6
CONTINUOUS
 62
7
 10
-39.251245
 20
140.675782
 30
0
 40
0
 41
0
  0
VERTEX
  8
0
  6
CONTINUOUS
 62
7
 10
-39.672854
 20
139.989789
 30
0
 40
0
 41
0
  0
VERTEX
  8
0
  6
CONTINUOUS
 62
7
 10
-40.068134
 20
139.303796
 30
0
 40
0
 41
0
  0
VERTEX
  8
0
  6
CONTINUOUS
 62
7
 10
-40.423700
 20
138.617803
 30
0
 40
0
 41
0
  0
VERTEX
  8
0
  6
CONTINUOUS
 62
7
 10
-40.755876
 20
137.931810
 30
0
 40
0
 41
0
  0
VERTEX
  8
0
  6
CONTINUOUS
 62
7
 10
-41.068589
 20
137.245817
 30
0
 40
0
 41
0
  0
VERTEX
  8
0
  6
CONTINUOUS
 62
7
 10
-41.363468
 20
136.559824
 30
0
 40
0
 41
0
  0
VERTEX
  8
0
  6
CONTINUOUS
 62
7
 10
-41.641800
 20
135.873831
 30
0
 40
0
 41
0
  0
VERTEX
  8
0
  6
CONTINUOUS
 62
7
 10
-41.899203
 20
135.187838
 30
0
 40
0
 41
0
  0
VERTEX
  8
0
  6
CONTINUOUS
 62
7
 10
-42.141035
 20
134.501845
 30
0
 40
0
 41
0
  0
VERTEX
  8
0
  6
CONTINUOUS
 62
7
 10
-42.376778
 20
133.815852
 30
0
 40
0
 41
0
  0
VERTEX
  8
0
  6
CONTINUOUS
 62
7
 10
-42.615914
 20
133.129859
 30
0
 40
0
 41
0
  0
VERTEX
  8
0
  6
CONTINUOUS
 62
7
 10
-42.882741
 20
132.443866
 30
0
 40
0
 41
0
  0
VERTEX
  8
0
  6
CONTINUOUS
 62
7
 10
-43.157542
 20
131.757873
 30
0
 40
0
 41
0
  0
VERTEX
  8
0
  6
CONTINUOUS
 62
7
 10
-43.368926
 20
131.071880
 30
0
 40
0
 41
0
  0
VERTEX
  8
0
  6
CONTINUOUS
 62
7
 10
-43.492773
 20
130.385887
 30
0
 40
0
 41
0
  0
VERTEX
  8
0
  6
CONTINUOUS
 62
7
 10
-43.590851
 20
129.699894
 30
0
 40
0
 41
0
  0
VERTEX
  8
0
  6
CONTINUOUS
 62
7
 10
-43.671713
 20
129.013901
 30
0
 40
0
 41
0
  0
VERTEX
  8
0
  6
CONTINUOUS
 62
7
 10
-43.742181
 20
128.327908
 30
0
 40
0
 41
0
  0
VERTEX
  8
0
  6
CONTINUOUS
 62
7
 10
-43.809079
 20
127.641915
 30
0
 40
0
 41
0
  0
VERTEX
  8
0
  6
CONTINUOUS
 62
7
 10
-43.877825
 20
126.955922
 30
0
 40
0
 41
0
  0
VERTEX
  8
0
  6
CONTINUOUS
 62
7
 10
-43.941806
 20
126.269929
 30
0
 40
0
 41
0
  0
VERTEX
  8
0
  6
CONTINUOUS
 62
7
 10
-44.000000
 20
125.583936
 30
0
 40
0
 41
0
  0
VERTEX
  8
0
  6
CONTINUOUS
 62
7
 10
-43.999725
 20
125.486209
 30
0
 40
0
 41
0
  0
VERTEX
  8
0
  6
CONTINUOUS
 62
7
 10
-43.998913
 20
125.388483
 30
0
 40
0
 41
0
  0
VERTEX
  8
0
  6
CONTINUOUS
 62
7
 10
-43.997581
 20
125.290756
 30
0
 40
0
 41
0
  0
VERTEX
  8
0
  6
CONTINUOUS
 62
7
 10
-43.995749
 20
125.193029
 30
0
 40
0
 41
0
  0
VERTEX
  8
0
  6
CONTINUOUS
 62
7
 10
-43.993434
 20
125.095302
 30
0
 40
0
 41
0
  0
VERTEX
  8
0
  6
CONTINUOUS
 62
7
 10
-43.990655
 20
124.997576
 30
0
 40
0
 41
0
  0
VERTEX
  8
0
  6
CONTINUOUS
 62
7
 10
-43.987430
 20
124.899849
 30
0
 40
0
 41
0
  0
VERTEX
  8
0
  6
CONTINUOUS
 62
7
 10
-43.983777
 20
124.802122
 30
0
 40
0
 41
0
  0
VERTEX
  8
0
  6
CONTINUOUS
 62
7
 10
-43.979715
 20
124.704395
 30
0
 40
0
 41
0
  0
VERTEX
  8
0
  6
CONTINUOUS
 62
7
 10
-43.975261
 20
124.606669
 30
0
 40
0
 41
0
  0
VERTEX
  8
0
  6
CONTINUOUS
 62
7
 10
-43.970435
 20
124.508942
 30
0
 40
0
 41
0
  0
VERTEX
  8
0
  6
CONTINUOUS
 62
7
 10
-43.965255
 20
124.411215
 30
0
 40
0
 41
0
  0
VERTEX
  8
0
  6
CONTINUOUS
 62
7
 10
-43.959738
 20
124.313489
 30
0
 40
0
 41
0
  0
VERTEX
  8
0
  6
CONTINUOUS
 62
7
 10
-43.953903
 20
124.215762
 30
0
 40
0
 41
0
  0
VERTEX
  8
0
  6
CONTINUOUS
 62
7
 10
-43.947769
 20
124.118035
 30
0
 40
0
 41
0
  0
VERTEX
  8
0
  6
CONTINUOUS
 62
7
 10
-43.941353
 20
124.020308
 30
0
 40
0
 41
0
  0
VERTEX
  8
0
  6
CONTINUOUS
 62
7
 10
-43.934675
 20
123.922582
 30
0
 40
0
 41
0
  0
VERTEX
  8
0
  6
CONTINUOUS
 62
7
 10
-43.927751
 20
123.824855
 30
0
 40
0
 41
0
  0
VERTEX
  8
0
  6
CONTINUOUS
 62
7
 10
-43.920602
 20
123.727128
 30
0
 40
0
 41
0
  0
VERTEX
  8
0
  6
CONTINUOUS
 62
7
 10
-43.913244
 20
123.629402
 30
0
 40
0
 41
0
  0
VERTEX
  8
0
  6
CONTINUOUS
 62
7
 10
-43.905696
 20
123.531675
 30
0
 40
0
 41
0
  0
VERTEX
  8
0
  6
CONTINUOUS
 62
7
 10
-43.897977
 20
123.433948
 30
0
 40
0
 41
0
  0
VERTEX
  8
0
  6
CONTINUOUS
 62
7
 10
-43.890105
 20
123.336221
 30
0
 40
0
 41
0
  0
VERTEX
  8
0
  6
CONTINUOUS
 62
7
 10
-43.882097
 20
123.238495
 30
0
 40
0
 41
0
  0
VERTEX
  8
0
  6
CONTINUOUS
 62
7
 10
-43.873974
 20
123.140768
 30
0
 40
0
 41
0
  0
VERTEX
  8
0
  6
CONTINUOUS
 62
7
 10
-43.865751
 20
123.043041
 30
0
 40
0
 41
0
  0
VERTEX
  8
0
  6
CONTINUOUS
 62
7
 10
-43.857449
 20
122.945315
 30
0
 40
0
 41
0
  0
VERTEX
  8
0
  6
CONTINUOUS
 62
7
 10
-43.849085
 20
122.847588
 30
0
 40
0
 41
0
  0
VERTEX
  8
0
  6
CONTINUOUS
 62
7
 10
-43.840131
 20
122.749861
 30
0
 40
0
 41
0
  0
VERTEX
  8
0
  6
CONTINUOUS
 62
7
 10
-43.829923
 20
122.652134
 30
0
 40
0
 41
0
  0
VERTEX
  8
0
  6
CONTINUOUS
 62
7
 10
-43.818522
 20
122.554408
 30
0
 40
0
 41
0
  0
VERTEX
  8
0
  6
CONTINUOUS
 62
7
 10
-43.805996
 20
122.456681
 30
0
 40
0
 41
0
  0
VERTEX
  8
0
  6
CONTINUOUS
 62
7
 10
-43.792409
 20
122.358954
 30
0
 40
0
 41
0
  0
VERTEX
  8
0
  6
CONTINUOUS
 62
7
 10
-43.777827
 20
122.261227
 30
0
 40
0
 41
0
  0
VERTEX
  8
0
  6
CONTINUOUS
 62
7
 10
-43.762316
 20
122.163501
 30
0
 40
0
 41
0
  0
VERTEX
  8
0
  6
CONTINUOUS
 62
7
 10
-43.745942
 20
122.065774
 30
0
 40
0
 41
0
  0
VERTEX
  8
0
  6
CONTINUOUS
 62
7
 10
-43.728770
 20
121.968047
 30
0
 40
0
 41
0
  0
VERTEX
  8
0
  6
CONTINUOUS
 62
7
 10
-43.710866
 20
121.870321
 30
0
 40
0
 41
0
  0
VERTEX
  8
0
  6
CONTINUOUS
 62
7
 10
-43.692297
 20
121.772594
 30
0
 40
0
 41
0
  0
VERTEX
  8
0
  6
CONTINUOUS
 62
7
 10
-43.673127
 20
121.674867
 30
0
 40
0
 41
0
  0
VERTEX
  8
0
  6
CONTINUOUS
 62
7
 10
-43.653422
 20
121.577140
 30
0
 40
0
 41
0
  0
VERTEX
  8
0
  6
CONTINUOUS
 62
7
 10
-43.633248
 20
121.479414
 30
0
 40
0
 41
0
  0
VERTEX
  8
0
  6
CONTINUOUS
 62
7
 10
-43.612670
 20
121.381687
 30
0
 40
0
 41
0
  0
VERTEX
  8
0
  6
CONTINUOUS
 62
7
 10
-43.591756
 20
121.283960
 30
0
 40
0
 41
0
  0
VERTEX
  8
0
  6
CONTINUOUS
 62
7
 10
-43.570569
 20
121.186234
 30
0
 40
0
 41
0
  0
VERTEX
  8
0
  6
CONTINUOUS
 62
7
 10
-43.549176
 20
121.088507
 30
0
 40
0
 41
0
  0
VERTEX
  8
0
  6
CONTINUOUS
 62
7
 10
-43.527643
 20
120.990780
 30
0
 40
0
 41
0
  0
VERTEX
  8
0
  6
CONTINUOUS
 62
7
 10
-43.506035
 20
120.893053
 30
0
 40
0
 41
0
  0
VERTEX
  8
0
  6
CONTINUOUS
 62
7
 10
-43.484418
 20
120.795327
 30
0
 40
0
 41
0
  0
VERTEX
  8
0
  6
CONTINUOUS
 62
7
 10
-43.462858
 20
120.697600
 30
0
 40
0
 41
0
  0
VERTEX
  8
0
  6
CONTINUOUS
 62
7
 10
-43.441420
 20
120.599873
 30
0
 40
0
 41
0
  0
VERTEX
  8
0
  6
CONTINUOUS
 62
7
 10
-43.420170
 20
120.502147
 30
0
 40
0
 41
0
  0
VERTEX
  8
0
  6
CONTINUOUS
 62
7
 10
-43.399174
 20
120.404420
 30
0
 40
0
 41
0
  0
VERTEX
  8
0
  6
CONTINUOUS
 62
7
 10
-43.378458
 20
120.306693
 30
0
 40
0
 41
0
  0
VERTEX
  8
0
  6
CONTINUOUS
 62
7
 10
-43.357929
 20
120.208966
 30
0
 40
0
 41
0
  0
VERTEX
  8
0
  6
CONTINUOUS
 62
7
 10
-43.337539
 20
120.111240
 30
0
 40
0
 41
0
  0
VERTEX
  8
0
  6
CONTINUOUS
 62
7
 10
-43.317240
 20
120.013513
 30
0
 40
0
 41
0
  0
VERTEX
  8
0
  6
CONTINUOUS
 62
7
 10
-43.296986
 20
119.915786
 30
0
 40
0
 41
0
  0
VERTEX
  8
0
  6
CONTINUOUS
 62
7
 10
-43.276728
 20
119.818059
 30
0
 40
0
 41
0
  0
VERTEX
  8
0
  6
CONTINUOUS
 62
7
 10
-43.256421
 20
119.720333
 30
0
 40
0
 41
0
  0
VERTEX
  8
0
  6
CONTINUOUS
 62
7
 10
-43.236017
 20
119.622606
 30
0
 40
0
 41
0
  0
VERTEX
  8
0
  6
CONTINUOUS
 62
7
 10
-43.215469
 20
119.524879
 30
0
 40
0
 41
0
  0
VERTEX
  8
0
  6
CONTINUOUS
 62
7
 10
-43.194730
 20
119.427153
 30
0
 40
0
 41
0
  0
VERTEX
  8
0
  6
CONTINUOUS
 62
7
 10
-43.173753
 20
119.329426
 30
0
 40
0
 41
0
  0
VERTEX
  8
0
  6
CONTINUOUS
 62
7
 10
-43.152491
 20
119.231699
 30
0
 40
0
 41
0
  0
VERTEX
  8
0
  6
CONTINUOUS
 62
7
 10
-43.130897
 20
119.133972
 30
0
 40
0
 41
0
  0
VERTEX
  8
0
  6
CONTINUOUS
 62
7
 10
-43.108924
 20
119.036246
 30
0
 40
0
 41
0
  0
VERTEX
  8
0
  6
CONTINUOUS
 62
7
 10
-43.086525
 20
118.938519
 30
0
 40
0
 41
0
  0
VERTEX
  8
0
  6
CONTINUOUS
 62
7
 10
-43.063652
 20
118.840792
 30
0
 40
0
 41
0
  0
VERTEX
  8
0
  6
CONTINUOUS
 62
7
 10
-43.040260
 20
118.743066
 30
0
 40
0
 41
0
  0
VERTEX
  8
0
  6
CONTINUOUS
 62
7
 10
-43.016301
 20
118.645339
 30
0
 40
0
 41
0
  0
VERTEX
  8
0
  6
CONTINUOUS
 62
7
 10
-42.991727
 20
118.547612
 30
0
 40
0
 41
0
  0
VERTEX
  8
0
  6
CONTINUOUS
 62
7
 10
-42.966493
 20
118.449885
 30
0
 40
0
 41
0
  0
VERTEX
  8
0
  6
CONTINUOUS
 62
7
 10
-42.940550
 20
118.352159
 30
0
 40
0
 41
0
  0
VERTEX
  8
0
  6
CONTINUOUS
 62
7
 10
-42.913852
 20
118.254432
 30
0
 40
0
 41
0
  0
VERTEX
  8
0
  6
CONTINUOUS
 62
7
 10
-42.886351
 20
118.156705
 30
0
 40
0
 41
0
  0
VERTEX
  8
0
  6
CONTINUOUS
 62
7
 10
-42.858002
 20
118.058978
 30
0
 40
0
 41
0
  0
VERTEX
  8
0
  6
CONTINUOUS
 62
7
 10
-42.828756
 20
117.961252
 30
0
 40
0
 41
0
  0
VERTEX
  8
0
  6
CONTINUOUS
 62
7
 10
-42.798566
 20
117.863525
 30
0
 40
0
 41
0
  0
VERTEX
  8
0
  6
CONTINUOUS
 62
7
 10
-42.767387
 20
117.765798
 30
0
 40
0
 41
0
  0
VERTEX
  8
0
  6
CONTINUOUS
 62
7
 10
-42.735170
 20
117.668072
 30
0
 40
0
 41
0
  0
VERTEX
  8
0
  6
CONTINUOUS
 62
7
 10
-42.701868
 20
117.570345
 30
0
 40
0
 41
0
  0
VERTEX
  8
0
  6
CONTINUOUS
 62
7
 10
-42.667436
 20
117.472618
 30
0
 40
0
 41
0
  0
VERTEX
  8
0
  6
CONTINUOUS
 62
7
 10
-42.631796
 20
117.374891
 30
0
 40
0
 41
0
  0
VERTEX
  8
0
  6
CONTINUOUS
 62
7
 10
-42.592931
 20
117.277165
 30
0
 40
0
 41
0
  0
VERTEX
  8
0
  6
CONTINUOUS
 62
7
 10
-42.549870
 20
117.179438
 30
0
 40
0
 41
0
  0
VERTEX
  8
0
  6
CONTINUOUS
 62
7
 10
-42.502961
 20
117.081711
 30
0
 40
0
 41
0
  0
VERTEX
  8
0
  6
CONTINUOUS
 62
7
 10
-42.452548
 20
116.983985
 30
0
 40
0
 41
0
  0
VERTEX
  8
0
  6
CONTINUOUS
 62
7
 10
-42.398979
 20
116.886258
 30
0
 40
0
 41
0
  0
VERTEX
  8
0
  6
CONTINUOUS
 62
7
 10
-42.342600
 20
116.788531
 30
0
 40
0
 41
0
  0
VERTEX
  8
0
  6
CONTINUOUS
 62
7
 10
-42.283757
 20
116.690804
 30
0
 40
0
 41
0
  0
VERTEX
  8
0
  6
CONTINUOUS
 62
7
 10
-42.222797
 20
116.593078
 30
0
 40
0
 41
0
  0
VERTEX
  8
0
  6
CONTINUOUS
 62
7
 10
-42.160065
 20
116.495351
 30
0
 40
0
 41
0
  0
VERTEX
  8
0
  6
CONTINUOUS
 62
7
 10
-42.095909
 20
116.397624
 30
0
 40
0
 41
0
  0
VERTEX
  8
0
  6
CONTINUOUS
 62
7
 10
-42.030674
 20
116.299898
 30
0
 40
0
 41
0
  0
VERTEX
  8
0
  6
CONTINUOUS
 62
7
 10
-41.964707
 20
116.202171
 30
0
 40
0
 41
0
  0
VERTEX
  8
0
  6
CONTINUOUS
 62
7
 10
-41.898354
 20
116.104444
 30
0
 40
0
 41
0
  0
VERTEX
  8
0
  6
CONTINUOUS
 62
7
 10
-41.831962
 20
116.006717
 30
0
 40
0
 41
0
  0
VERTEX
  8
0
  6
CONTINUOUS
 62
7
 10
-41.765876
 20
115.908991
 30
0
 40
0
 41
0
  0
VERTEX
  8
0
  6
CONTINUOUS
 62
7
 10
-41.700443
 20
115.811264
 30
0
 40
0
 41
0
  0
VERTEX
  8
0
  6
CONTINUOUS
 62
7
 10
-41.636010
 20
115.713537
 30
0
 40
0
 41
0
  0
VERTEX
  8
0
  6
CONTINUOUS
 62
7
 10
-41.572922
 20
115.615810
 30
0
 40
0
 41
0
  0
VERTEX
  8
0
  6
CONTINUOUS
 62
7
 10
-41.511016
 20
115.518084
 30
0
 40
0
 41
0
  0
VERTEX
  8
0
  6
CONTINUOUS
 62
7
 10
-41.449837
 20
115.420357
 30
0
 40
0
 41
0
  0
VERTEX
  8
0
  6
CONTINUOUS
 62
7
 10
-41.389183
 20
115.322630
 30
0
 40
0
 41
0
  0
VERTEX
  8
0
  6
CONTINUOUS
 62
7
 10
-41.328853
 20
115.224904
 30
0
 40
0
 41
0
  0
VERTEX
  8
0
  6
CONTINUOUS
 62
7
 10
-41.268645
 20
115.127177
 30
0
 40
0
 41
0
  0
VERTEX
  8
0
  6
CONTINUOUS
 62
7
 10
-41.208357
 20
115.029450
 30
0
 40
0
 41
0
  0
VERTEX
  8
0
  6
CONTINUOUS
 62
7
 10
-41.147787
 20
114.931723
 30
0
 40
0
 41
0
  0
VERTEX
  8
0
  6
CONTINUOUS
 62
7
 10
-41.086734
 20
114.833997
 30
0
 40
0
 41
0
  0
VERTEX
  8
0
  6
CONTINUOUS
 62
7
 10
-41.024996
 20
114.736270
 30
0
 40
0
 41
0
  0
VERTEX
  8
0
  6
CONTINUOUS
 62
7
 10
-40.962372
 20
114.638543
 30
0
 40
0
 41
0
  0
VERTEX
  8
0
  6
CONTINUOUS
 62
7
 10
-40.898659
 20
114.540817
 30
0
 40
0
 41
0
  0
VERTEX
  8
0
  6
CONTINUOUS
 62
7
 10
-40.833656
 20
114.443090
 30
0
 40
0
 41
0
  0
VERTEX
  8
0
  6
CONTINUOUS
 62
7
 10
-40.767160
 20
114.345363
 30
0
 40
0
 41
0
  0
VERTEX
  8
0
  6
CONTINUOUS
 62
7
 10
-40.698972
 20
114.247636
 30
0
 40
0
 41
0
  0
VERTEX
  8
0
  6
CONTINUOUS
 62
7
 10
-40.628888
 20
114.149910
 30
0
 40
0
 41
0
  0
VERTEX
  8
0
  6
CONTINUOUS
 62
7
 10
-40.556707
 20
114.052183
 30
0
 40
0
 41
0
  0
VERTEX
  8
0
  6
CONTINUOUS
 62
7
 10
-40.482227
 20
113.954456
 30
0
 40
0
 41
0
  0
VERTEX
  8
0
  6
CONTINUOUS
 62
7
 10
-40.405246
 20
113.856730
 30
0
 40
0
 41
0
  0
VERTEX
  8
0
  6
CONTINUOUS
 62
7
 10
-40.325564
 20
113.759003
 30
0
 40
0
 41
0
  0
VERTEX
  8
0
  6
CONTINUOUS
 62
7
 10
-40.242977
 20
113.661276
 30
0
 40
0
 41
0
  0
VERTEX
  8
0
  6
CONTINUOUS
 62
7
 10
-40.156745
 20
113.563549
 30
0
 40
0
 41
0
  0
VERTEX
  8
0
  6
CONTINUOUS
 62
7
 10
-40.065031
 20
113.465823
 30
0
 40
0
 41
0
  0
VERTEX
  8
0
  6
CONTINUOUS
 62
7
 10
-39.968088
 20
113.368096
 30
0
 40
0
 41
0
  0
VERTEX
  8
0
  6
CONTINUOUS
 62
7
 10
-39.866350
 20
113.270369
 30
0
 40
0
 41
0
  0
VERTEX
  8
0
  6
CONTINUOUS
 62
7
 10
-39.760252
 20
113.172642
 30
0
 40
0
 41
0
  0
VERTEX
  8
0
  6
CONTINUOUS
 62
7
 10
-39.650229
 20
113.074916
 30
0
 40
0
 41
0
  0
VERTEX
  8
0
  6
CONTINUOUS
 62
7
 10
-39.536714
 20
112.977189
 30
0
 40
0
 41
0
  0
VERTEX
  8
0
  6
CONTINUOUS
 62
7
 10
-39.420143
 20
112.879462
 30
0
 40
0
 41
0
  0
VERTEX
  8
0
  6
CONTINUOUS
 62
7
 10
-39.300950
 20
112.781736
 30
0
 40
0
 41
0
  0
VERTEX
  8
0
  6
CONTINUOUS
 62
7
 10
-39.179570
 20
112.684009
 30
0
 40
0
 41
0
  0
VERTEX
  8
0
  6
CONTINUOUS
 62
7
 10
-39.056437
 20
112.586282
 30
0
 40
0
 41
0
  0
VERTEX
  8
0
  6
CONTINUOUS
 62
7
 10
-38.931987
 20
112.488555
 30
0
 40
0
 41
0
  0
VERTEX
  8
0
  6
CONTINUOUS
 62
7
 10
-38.806653
 20
112.390829
 30
0
 40
0
 41
0
  0
VERTEX
  8
0
  6
CONTINUOUS
 62
7
 10
-38.680870
 20
112.293102
 30
0
 40
0
 41
0
  0
VERTEX
  8
0
  6
CONTINUOUS
 62
7
 10
-38.555074
 20
112.195375
 30
0
 40
0
 41
0
  0
VERTEX
  8
0
  6
CONTINUOUS
 62
7
 10
-38.429690
 20
112.097649
 30
0
 40
0
 41
0
  0
VERTEX
  8
0
  6
CONTINUOUS
 62
7
 10
-38.304486
 20
111.999922
 30
0
 40
0
 41
0
  0
VERTEX
  8
0
  6
CONTINUOUS
 62
7
 10
-38.178837
 20
111.902195
 30
0
 40
0
 41
0
  0
VERTEX
  8
0
  6
CONTINUOUS
 62
7
 10
-38.052117
 20
111.804468
 30
0
 40
0
 41
0
  0
VERTEX
  8
0
  6
CONTINUOUS
 62
7
 10
-37.923700
 20
111.706742
 30
0
 40
0
 41
0
  0
VERTEX
  8
0
  6
CONTINUOUS
 62
7
 10
-37.792959
 20
111.609015
 30
0
 40
0
 41
0
  0
VERTEX
  8
0
  6
CONTINUOUS
 62
7
 10
-37.659269
 20
111.511288
 30
0
 40
0
 41
0
  0
VERTEX
  8
0
  6
CONTINUOUS
 62
7
 10
-37.522004
 20
111.413561
 30
0
 40
0
 41
0
  0
VERTEX
  8
0
  6
CONTINUOUS
 62
7
 10
-37.380537
 20
111.315835
 30
0
 40
0
 41
0
  0
VERTEX
  8
0
  6
CONTINUOUS
 62
7
 10
-37.234242
 20
111.218108
 30
0
 40
0
 41
0
  0
VERTEX
  8
0
  6
CONTINUOUS
 62
7
 10
-37.082494
 20
111.120381
 30
0
 40
0
 41
0
  0
VERTEX
  8
0
  6
CONTINUOUS
 62
7
 10
-36.924666
 20
111.022655
 30
0
 40
0
 41
0
  0
VERTEX
  8
0
  6
CONTINUOUS
 62
7
 10
-36.760133
 20
110.924928
 30
0
 40
0
 41
0
  0
VERTEX
  8
0
  6
CONTINUOUS
 62
7
 10
-36.588268
 20
110.827201
 30
0
 40
0
 41
0
  0
VERTEX
  8
0
  6
CONTINUOUS
 62
7
 10
-36.404592
 20
110.729474
 30
0
 40
0
 41
0
  0
VERTEX
  8
0
  6
CONTINUOUS
 62
7
 10
-36.205303
 20
110.631748
 30
0
 40
0
 41
0
  0
VERTEX
  8
0
  6
CONTINUOUS
 62
7
 10
-35.992609
 20
110.534021
 30
0
 40
0
 41
0
  0
VERTEX
  8
0
  6
CONTINUOUS
 62
7
 10
-35.768737
 20
110.436294
 30
0
 40
0
 41
0
  0
VERTEX
  8
0
  6
CONTINUOUS
 62
7
 10
-35.535915
 20
110.338568
 30
0
 40
0
 41
0
  0
VERTEX
  8
0
  6
CONTINUOUS
 62
7
 10
-35.296371
 20
110.240841
 30
0
 40
0
 41
0
  0
VERTEX
  8
0
  6
CONTINUOUS
 62
7
 10
-35.052335
 20
110.143114
 30
0
 40
0
 41
0
  0
VERTEX
  8
0
  6
CONTINUOUS
 62
7
 10
-34.806033
 20
110.045387
 30
0
 40
0
 41
0
  0
VERTEX
  8
0
  6
CONTINUOUS
 62
7
 10
-34.559695
 20
109.947661
 30
0
 40
0
 41
0
  0
VERTEX
  8
0
  6
CONTINUOUS
 62
7
 10
-34.315548
 20
109.849934
 30
0
 40
0
 41
0
  0
VERTEX
  8
0
  6
CONTINUOUS
 62
7
 10
-34.078151
 20
109.752207
 30
0
 40
0
 41
0
  0
VERTEX
  8
0
  6
CONTINUOUS
 62
7
 10
-33.848218
 20
109.654481
 30
0
 40
0
 41
0
  0
VERTEX
  8
0
  6
CONTINUOUS
 62
7
 10
-33.621216
 20
109.556754
 30
0
 40
0
 41
0
  0
VERTEX
  8
0
  6
CONTINUOUS
 62
7
 10
-33.392602
 20
109.459027
 30
0
 40
0
 41
0
  0
VERTEX
  8
0
  6
CONTINUOUS
 62
7
 10
-33.157834
 20
109.361300
 30
0
 40
0
 41
0
  0
VERTEX
  8
0
  6
CONTINUOUS
 62
7
 10
-32.912370
 20
109.263574
 30
0
 40
0
 41
0
  0
VERTEX
  8
0
  6
CONTINUOUS
 62
7
 10
-32.651667
 20
109.165847
 30
0
 40
0
 41
0
  0
VERTEX
  8
0
  6
CONTINUOUS
 62
7
 10
-32.371184
 20
109.068120
 30
0
 40
0
 41
0
  0
VERTEX
  8
0
  6
CONTINUOUS
 62
7
 10
-32.066377
 20
108.970393
 30
0
 40
0
 41
0
  0
VERTEX
  8
0
  6
CONTINUOUS
 62
7
 10
-31.732706
 20
108.872667
 30
0
 40
0
 41
0
  0
VERTEX
  8
0
  6
CONTINUOUS
 62
7
 10
-31.337098
 20
108.774940
 30
0
 40
0
 41
0
  0
VERTEX
  8
0
  6
CONTINUOUS
 62
7
 10
-30.865629
 20
108.677213
 30
0
 40
0
 41
0
  0
VERTEX
  8
0
  6
CONTINUOUS
 62
7
 10
-30.344749
 20
108.579487
 30
0
 40
0
 41
0
  0
VERTEX
  8
0
  6
CONTINUOUS
 62
7
 10
-29.800910
 20
108.481760
 30
0
 40
0
 41
0
  0
VERTEX
  8
0
  6
CONTINUOUS
 62
7
 10
-29.260564
 20
108.384033
 30
0
 40
0
 41
0
  0
VERTEX
  8
0
  6
CONTINUOUS
 62
7
 10
-28.749590
 20
108.286306
 30
0
 40
0
 41
0
  0
VERTEX
  8
0
  6
CONTINUOUS
 62
7
 10
-28.266768
 20
108.188580
 30
0
 40
0
 41
0
  0
VERTEX
  8
0
  6
CONTINUOUS
 62
7
 10
-27.795230
 20
108.090853
 30
0
 40
0
 41
0
  0
VERTEX
  8
0
  6
CONTINUOUS
 62
7
 10
-27.322814
 20
107.993126
 30
0
 40
0
 41
0
  0
VERTEX
  8
0
  6
CONTINUOUS
 62
7
 10
-26.837356
 20
107.895400
 30
0
 40
0
 41
0
  0
VERTEX
  8
0
  6
CONTINUOUS
 62
7
 10
-26.326692
 20
107.797673
 30
0
 40
0
 41
0
  0
VERTEX
  8
0
  6
CONTINUOUS
 62
7
 10
-25.778659
 20
107.699946
 30
0
 40
0
 41
0
  0
VERTEX
  8
0
  6
CONTINUOUS
 62
7
 10
-25.198205
 20
107.602219
 30
0
 40
0
 41
0
  0
VERTEX
  8
0
  6
CONTINUOUS
 62
7
 10
-24.599084
 20
107.504493
 30
0
 40
0
 41
0
  0
VERTEX
  8
0
  6
CONTINUOUS
 62
7
 10
-23.955045
 20
107.406766
 30
0
 40
0
 41
0
  0
VERTEX
  8
0
  6
CONTINUOUS
 62
7
 10
-23.238797
 20
107.309039
 30
0
 40
0
 41
0
  0
VERTEX
  8
0
  6
CONTINUOUS
 62
7
 10
-22.423047
 20
107.211313
 30
0
 40
0
 41
0
  0
VERTEX
  8
0
  6
CONTINUOUS
 62
7
 10
-21.410905
 20
107.113586
 30
0
 40
0
 41
0
  0
VERTEX
  8
0
  6
CONTINUOUS
 62
7
 10
-20.121335
 20
107.015859
 30
0
 40
0
 41
0
  0
VERTEX
  8
0
  6
CONTINUOUS
 62
7
 10
-18.768067
 20
106.918132
 30
0
 40
0
 41
0
  0
VERTEX
  8
0
  6
CONTINUOUS
 62
7
 10
-17.506049
 20
106.820406
 30
0
 40
0
 41
0
  0
VERTEX
  8
0
  6
CONTINUOUS
 62
7
 10
-16.252632
 20
106.722679
 30
0
 40
0
 41
0
  0
VERTEX
  8
0
  6
CONTINUOUS
 62
7
 10
-14.999214
 20
106.624952
 30
0
 40
0
 41
0
  0
VERTEX
  8
0
  6
CONTINUOUS
 62
7
 10
-13.803130
 20
106.527225
 30
0
 40
0
 41
0
  0
VERTEX
  8
0
  6
CONTINUOUS
 62
7
 10
-12.895978
 20
106.429499
 30
0
 40
0
 41
0
  0
VERTEX
  8
0
  6
CONTINUOUS
 62
7
 10
-11.832018
 20
106.331772
 30
0
 40
0
 41
0
  0
VERTEX
  8
0
  6
CONTINUOUS
 62
7
 10
-10.049589
 20
106.234045
 30
0
 40
0
 41
0
  0
VERTEX
  8
0
  6
CONTINUOUS
 62
7
 10
-0.217649
 20
106.136319
 30
0
 40
0
 41
0
  0
VERTEX
  8
0
  6
CONTINUOUS
 62
7
 10
5.592490
 20
106.118458
 30
0
 40
0
 41
0
  0
VERTEX
  8
0
  6
CONTINUOUS
 62
7
 10
11.402629
 20
106.105213
 30
0
 40
0
 41
0
  0
VERTEX
  8
0
  6
CONTINUOUS
 62
7
 10
17.212768
 20
106.216868
 30
0
 40
0
 41
0
  0
VERTEX
  8
0
  6
CONTINUOUS
 62
7
 10
23.022906
 20
106.447469
 30
0
 40
0
 41
0
  0
VERTEX
  8
0
  6
CONTINUOUS
 62
7
 10
28.833045
 20
106.670435
 30
0
 40
0
 41
0
  0
VERTEX
  8
0
  6
CONTINUOUS
 62
7
 10
34.643184
 20
106.893401
 30
0
 40
0
 41
0
  0
VERTEX
  8
0
  6
CONTINUOUS
 62
7
 10
40.453323
 20
107.107958
 30
0
 40
0
 41
0
  0
VERTEX
  8
0
  6
CONTINUOUS
 62
7
 10
46.263462
 20
107.387856
 30
0
 40
0
 41
0
  0
VERTEX
  8
0
  6
CONTINUOUS
 62
7
 10
52.073601
 20
107.749043
 30
0
 40
0
 41
0
  0
VERTEX
  8
0
  6
CONTINUOUS
 62
7
 10
57.883740
 20
108.107627
 30
0
 40
0
 41
0
  0
VERTEX
  8
0
  6
CONTINUOUS
 62
7
 10
63.693879
 20
108.465232
 30
0
 40
0
 41
0
  0
VERTEX
  8
0
  6
CONTINUOUS
 62
7
 10
69.504018
 20
108.820208
 30
0
 40
0
 41
0
  0
VERTEX
  8
0
  6
CONTINUOUS
 62
7
 10
75.314157
 20
109.182525
 30
0
 40
0
 41
0
  0
VERTEX
  8
0
  6
CONTINUOUS
 62
7
 10
81.124296
 20
109.582301
 30
0
 40
0
 41
0
  0
VERTEX
  8
0
  6
CONTINUOUS
 62
7
 10
86.934435
 20
110.005882
 30
0
 40
0
 41
0
  0
VERTEX
  8
0
  6
CONTINUOUS
 62
7
 10
92.744574
 20
110.444353
 30
0
 40
0
 41
0
  0
VERTEX
  8
0
  6
CONTINUOUS
 62
7
 10
98.554713
 20
110.879113
 30
0
 40
0
 41
0
  0
VERTEX
  8
0
  6
CONTINUOUS
 62
7
 10
104.364852
 20
111.312790
 30
0
 40
0
 41
0
  0
VERTEX
  8
0
  6
CONTINUOUS
 62
7
 10
110.174991
 20
111.747168
 30
0
 40
0
 41
0
  0
VERTEX
  8
0
  6
CONTINUOUS
 62
7
 10
115.985130
 20
112.198447
 30
0
 40
0
 41
0
  0
VERTEX
  8
0
  6
CONTINUOUS
 62
7
 10
121.795268
 20
112.660858
 30
0
 40
0
 41
0
  0
VERTEX
  8
0
  6
CONTINUOUS
 62
7
 10
127.605407
 20
113.131663
 30
0
 40
0
 41
0
  0
VERTEX
  8
0
  6
CONTINUOUS
 62
7
 10
133.415546
 20
113.603540
 30
0
 40
0
 41
0
  0
VERTEX
  8
0
  6
CONTINUOUS
 62
7
 10
139.225685
 20
114.074467
 30
0
 40
0
 41
0
  0
VERTEX
  8
0
  6
CONTINUOUS
 62
7
 10
145.035824
 20
114.544516
 30
0
 40
0
 41
0
  0
VERTEX
  8
0
  6
CONTINUOUS
 62
7
 10
150.845963
 20
115.015091
 30
0
 40
0
 41
0
  0
VERTEX
  8
0
  6
CONTINUOUS
 62
7
 10
156.656102
 20
115.496211
 30
0
 40
0
 41
0
  0
VERTEX
  8
0
  6
CONTINUOUS
 62
7
 10
162.466241
 20
115.983715
 30
0
 40
0
 41
0
  0
VERTEX
  8
0
  6
CONTINUOUS
 62
7
 10
168.276380
 20
116.469354
 30
0
 40
0
 41
0
  0
VERTEX
  8
0
  6
CONTINUOUS
 62
7
 10
174.086519
 20
116.954901
 30
0
 40
0
 41
0
  0
VERTEX
  8
0
  6
CONTINUOUS
 62
7
 10
179.896658
 20
117.440450
 30
0
 40
0
 41
0
  0
VERTEX
  8
0
  6
CONTINUOUS
 62
7
 10
185.706797
 20
117.925996
 30
0
 40
0
 41
0
  0
VERTEX
  8
0
  6
CONTINUOUS
 62
7
 10
191.516936
 20
118.411536
 30
0
 40
0
 41
0
  0
VERTEX
  8
0
  6
CONTINUOUS
 62
7
 10
197.327075
 20
118.897071
 30
0
 40
0
 41
0
  0
VERTEX
  8
0
  6
CONTINUOUS
 62
7
 10
203.137214
 20
119.382603
 30
0
 40
0
 41
0
  0
VERTEX
  8
0
  6
CONTINUOUS
 62
7
 10
208.947353
 20
119.868134
 30
0
 40
0
 41
0
  0
VERTEX
  8
0
  6
CONTINUOUS
 62
7
 10
214.757492
 20
120.354073
 30
0
 40
0
 41
0
  0
VERTEX
  8
0
  6
CONTINUOUS
 62
7
 10
220.567630
 20
120.839949
 30
0
 40
0
 41
0
  0
VERTEX
  8
0
  6
CONTINUOUS
 62
7
 10
226.377769
 20
121.322887
 30
0
 40
0
 41
0
  0
VERTEX
  8
0
  6
CONTINUOUS
 62
7
 10
232.187908
 20
121.803153
 30
0
 40
0
 41
0
  0
VERTEX
  8
0
  6
CONTINUOUS
 62
7
 10
237.998047
 20
122.281615
 30
0
 40
0
 41
0
  0
VERTEX
  8
0
  6
CONTINUOUS
 62
7
 10
243.808186
 20
122.757993
 30
0
 40
0
 41
0
  0
VERTEX
  8
0
  6
CONTINUOUS
 62
7
 10
249.618325
 20
123.233951
 30
0
 40
0
 41
0
  0
VERTEX
  8
0
  6
CONTINUOUS
 62
7
 10
255.428464
 20
123.711618
 30
0
 40
0
 41
0
  0
VERTEX
  8
0
  6
CONTINUOUS
 62
7
 10
261.238603
 20
124.187751
 30
0
 40
0
 41
0
  0
VERTEX
  8
0
  6
CONTINUOUS
 62
7
 10
267.048742
 20
124.658038
 30
0
 40
0
 41
0
  0
VERTEX
  8
0
  6
CONTINUOUS
 62
7
 10
272.858881
 20
125.124057
 30
0
 40
0
 41
0
  0
VERTEX
  8
0
  6
CONTINUOUS
 62
7
 10
278.669020
 20
125.588337
 30
0
 40
0
 41
0
  0
VERTEX
  8
0
  6
CONTINUOUS
 62
7
 10
284.479159
 20
126.050536
 30
0
 40
0
 41
0
  0
VERTEX
  8
0
  6
CONTINUOUS
 62
7
 10
290.289298
 20
126.512153
 30
0
 40
0
 41
0
  0
VERTEX
  8
0
  6
CONTINUOUS
 62
7
 10
296.099437
 20
126.976392
 30
0
 40
0
 41
0
  0
VERTEX
  8
0
  6
CONTINUOUS
 62
7
 10
301.909576
 20
127.439609
 30
0
 40
0
 41
0
  0
VERTEX
  8
0
  6
CONTINUOUS
 62
7
 10
307.719715
 20
127.893143
 30
0
 40
0
 41
0
  0
VERTEX
  8
0
  6
CONTINUOUS
 62
7
 10
313.529854
 20
128.336775
 30
0
 40
0
 41
0
  0
VERTEX
  8
0
  6
CONTINUOUS
 62
7
 10
319.339992
 20
128.778348
 30
0
 40
0
 41
0
  0
VERTEX
  8
0
  6
CONTINUOUS
 62
7
 10
325.150131
 20
129.222945
 30
0
 40
0
 41
0
  0
VERTEX
  8
0
  6
CONTINUOUS
 62
7
 10
330.960270
 20
129.667041
 30
0
 40
0
 41
0
  0
VERTEX
  8
0
  6
CONTINUOUS
 62
7
 10
336.770409
 20
130.106760
 30
0
 40
0
 41
0
  0
VERTEX
  8
0
  6
CONTINUOUS
 62
7
 10
342.580548
 20
130.542731
 30
0
 40
0
 41
0
  0
VERTEX
  8
0
  6
CONTINUOUS
 62
7
 10
348.390687
 20
130.974112
 30
0
 40
0
 41
0
  0
VERTEX
  8
0
  6
CONTINUOUS
 62
7
 10
354.200826
 20
131.398661
 30
0
 40
0
 41
0
  0
VERTEX
  8
0
  6
CONTINUOUS
 62
7
 10
360.010965
 20
131.817229
 30
0
 40
0
 41
0
  0
VERTEX
  8
0
  6
CONTINUOUS
 62
7
 10
365.821104
 20
132.235373
 30
0
 40
0
 41
0
  0
VERTEX
  8
0
  6
CONTINUOUS
 62
7
 10
371.631243
 20
132.658243
 30
0
 40
0
 41
0
  0
VERTEX
  8
0
  6
CONTINUOUS
 62
7
 10
377.441382
 20
133.079867
 30
0
 40
0
 41
0
  0
VERTEX
  8
0
  6
CONTINUOUS
 62
7
 10
383.251521
 20
133.489813
 30
0
 40
0
 41
0
  0
VERTEX
  8
0
  6
CONTINUOUS
 62
7
 10
389.061660
 20
133.885572
 30
0
 40
0
 41
0
  0
VERTEX
  8
0
  6
CONTINUOUS
 62
7
 10
394.871799
 20
134.275800
 30
0
 40
0
 41
0
  0
VERTEX
  8
0
  6
CONTINUOUS
 62
7
 10
400.681938
 20
134.669418
 30
0
 40
0
 41
0
  0
VERTEX
  8
0
  6
CONTINUOUS
 62
7
 10
406.492077
 20
135.066211
 30
0
 40
0
 41
0
  0
VERTEX
  8
0
  6
CONTINUOUS
 62
7
 10
412.302216
 20
135.458402
 30
0
 40
0
 41
0
  0
VERTEX
  8
0
  6
CONTINUOUS
 62
7
 10
418.112354
 20
135.839569
 30
0
 40
0
 41
0
  0
VERTEX
  8
0
  6
CONTINUOUS
 62
7
 10
423.922493
 20
136.212232
 30
0
 40
0
 41
0
  0
VERTEX
  8
0
  6
CONTINUOUS
 62
7
 10
429.732632
 20
136.580160
 30
0
 40
0
 41
0
  0
VERTEX
  8
0
  6
CONTINUOUS
 62
7
 10
435.542771
 20
136.946127
 30
0
 40
0
 41
0
  0
VERTEX
  8
0
  6
CONTINUOUS
 62
7
 10
441.352910
 20
137.308937
 30
0
 40
0
 41
0
  0
VERTEX
  8
0
  6
CONTINUOUS
 62
7
 10
447.163049
 20
137.666541
 30
0
 40
0
 41
0
  0
VERTEX
  8
0
  6
CONTINUOUS
 62
7
 10
452.973188
 20
138.018265
 30
0
 40
0
 41
0
  0
VERTEX
  8
0
  6
CONTINUOUS
 62
7
 10
458.783327
 20
138.364922
 30
0
 40
0
 41
0
  0
VERTEX
  8
0
  6
CONTINUOUS
 62
7
 10
464.593466
 20
138.704968
 30
0
 40
0
 41
0
  0
VERTEX
  8
0
  6
CONTINUOUS
 62
7
 10
470.403605
 20
139.037085
 30
0
 40
0
 41
0
  0
VERTEX
  8
0
  6
CONTINUOUS
 62
7
 10
476.213744
 20
139.362346
 30
0
 40
0
 41
0
  0
VERTEX
  8
0
  6
CONTINUOUS
 62
7
 10
482.023883
 20
139.682999
 30
0
 40
0
 41
0
  0
VERTEX
  8
0
  6
CONTINUOUS
 62
7
 10
487.834022
 20
140.001668
 30
0
 40
0
 41
0
  0
VERTEX
  8
0
  6
CONTINUOUS
 62
7
 10
493.644161
 20
140.317643
 30
0
 40
0
 41
0
  0
VERTEX
  8
0
  6
CONTINUOUS
 62
7
 10
499.454300
 20
140.625975
 30
0
 40
0
 41
0
  0
VERTEX
  8
0
  6
CONTINUOUS
 62
7
 10
505.264439
 20
140.922445
 30
0
 40
0
 41
0
  0
VERTEX
  8
0
  6
CONTINUOUS
 62
7
 10
511.074578
 20
141.208990
 30
0
 40
0
 41
0
  0
VERTEX
  8
0
  6
CONTINUOUS
 62
7
 10
516.884716
 20
141.489896
 30
0
 40
0
 41
0
  0
VERTEX
  8
0
  6
CONTINUOUS
 62
7
 10
522.694855
 20
141.769593
 30
0
 40
0
 41
0
  0
VERTEX
  8
0
  6
CONTINUOUS
 62
7
 10
528.504994
 20
142.049030
 30
0
 40
0
 41
0
  0
VERTEX
  8
0
  6
CONTINUOUS
 62
7
 10
534.315133
 20
142.321734
 30
0
 40
0
 41
0
  0
VERTEX
  8
0
  6
CONTINUOUS
 62
7
 10
540.125272
 20
142.580861
 30
0
 40
0
 41
0
  0
VERTEX
  8
0
  6
CONTINUOUS
 62
7
 10
545.935411
 20
142.826282
 30
0
 40
0
 41
0
  0
VERTEX
  8
0
  6
CONTINUOUS
 62
7
 10
551.745550
 20
143.063079
 30
0
 40
0
 41
0
  0
VERTEX
  8
0
  6
CONTINUOUS
 62
7
 10
557.555689
 20
143.296088
 30
0
 40
0
 41
0
  0
VERTEX
  8
0
  6
CONTINUOUS
 62
7
 10
563.365828
 20
143.529513
 30
0
 40
0
 41
0
  0
VERTEX
  8
0
  6
CONTINUOUS
 62
7
 10
569.175967
 20
143.759230
 30
0
 40
0
 41
0
  0
VERTEX
  8
0
  6
CONTINUOUS
 62
7
 10
574.986106
 20
143.977957
 30
0
 40
0
 41
0
  0
VERTEX
  8
0
  6
CONTINUOUS
 62
7
 10
580.796245
 20
144.180677
 30
0
 40
0
 41
0
  0
VERTEX
  8
0
  6
CONTINUOUS
 62
7
 10
586.606384
 20
144.371612
 30
0
 40
0
 41
0
  0
VERTEX
  8
0
  6
CONTINUOUS
 62
7
 10
592.416523
 20
144.554957
 30
0
 40
0
 41
0
  0
VERTEX
  8
0
  6
CONTINUOUS
 62
7
 10
598.226662
 20
144.734774
 30
0
 40
0
 41
0
  0
VERTEX
  8
0
  6
CONTINUOUS
 62
7
 10
604.036801
 20
144.912656
 30
0
 40
0
 41
0
  0
VERTEX
  8
0
  6
CONTINUOUS
 62
7
 10
609.846940
 20
145.084445
 30
0
 40
0
 41
0
  0
VERTEX
  8
0
  6
CONTINUOUS
 62
7
 10
615.657078
 20
145.245314
 30
0
 40
0
 41
0
  0
VERTEX
  8
0
  6
CONTINUOUS
 62
7
 10
621.467217
 20
145.394370
 30
0
 40
0
 41
0
  0
VERTEX
  8
0
  6
CONTINUOUS
 62
7
 10
627.277356
 20
145.534906
 30
0
 40
0
 41
0
  0
VERTEX
  8
0
  6
CONTINUOUS
 62
7
 10
633.087495
 20
145.667507
 30
0
 40
0
 41
0
  0
VERTEX
  8
0
  6
CONTINUOUS
 62
7
 10
638.897634
 20
145.793016
 30
0
 40
0
 41
0
  0
VERTEX
  8
0
  6
CONTINUOUS
 62
7
 10
644.707773
 20
145.912912
 30
0
 40
0
 41
0
  0
VERTEX
  8
0
  6
CONTINUOUS
 62
7
 10
650.517912
 20
146.026014
 30
0
 40
0
 41
0
  0
VERTEX
  8
0
  6
CONTINUOUS
 62
7
 10
656.328051
 20
146.130750
 30
0
 40
0
 41
0
  0
VERTEX
  8
0
  6
CONTINUOUS
 62
7
 10
662.138190
 20
146.229624
 30
0
 40
0
 41
0
  0
VERTEX
  8
0
  6
CONTINUOUS
 62
7
 10
667.948329
 20
146.323383
 30
0
 40
0
 41
0
  0
VERTEX
  8
0
  6
CONTINUOUS
 62
7
 10
673.758468
 20
146.406880
 30
0
 40
0
 41
0
  0
VERTEX
  8
0
  6
CONTINUOUS
 62
7
 10
679.568607
 20
146.475762
 30
0
 40
0
 41
0
  0
VERTEX
  8
0
  6
CONTINUOUS
 62
7
 10
685.378746
 20
146.534606
 30
0
 40
0
 41
0
  0
VERTEX
  8
0
  6
CONTINUOUS
 62
7
 10
691.188885
 20
146.586371
 30
0
 40
0
 41
0
  0
VERTEX
  8
0
  6
CONTINUOUS
 62
7
 10
696.999024
 20
146.632548
 30
0
 40
0
 41
0
  0
VERTEX
  8
0
  6
CONTINUOUS
 62
7
 10
702.809163
 20
146.678251
 30
0
 40
0
 41
0
  0
VERTEX
  8
0
  6
CONTINUOUS
 62
7
 10
708.619302
 20
146.725659
 30
0
 40
0
 41
0
  0
VERTEX
  8
0
  6
CONTINUOUS
 62
7
 10
714.429440
 20
146.762249
 30
0
 40
0
 41
0
  0
VERTEX
  8
0
  6
CONTINUOUS
 62
7
 10
720.239579
 20
146.775169
 30
0
 40
0
 41
0
  0
VERTEX
  8
0
  6
CONTINUOUS
 62
7
 10
726.049718
 20
146.769628
 30
0
 40
0
 41
0
  0
VERTEX
  8
0
  6
CONTINUOUS
 62
7
 10
731.859857
 20
146.757131
 30
0
 40
0
 41
0
  0
VERTEX
  8
0
  6
CONTINUOUS
 62
7
 10
737.669996
 20
146.740931
 30
0
 40
0
 41
0
  0
VERTEX
  8
0
  6
CONTINUOUS
 62
7
 10
743.480135
 20
146.723841
 30
0
 40
0
 41
0
  0
VERTEX
  8
0
  6
CONTINUOUS
 62
7
 10
749.290274
 20
146.703100
 30
0
 40
0
 41
0
  0
VERTEX
  8
0
  6
CONTINUOUS
 62
7
 10
755.100413
 20
146.676969
 30
0
 40
0
 41
0
  0
VERTEX
  8
0
  6
CONTINUOUS
 62
7
 10
760.910552
 20
146.644762
 30
0
 40
0
 41
0
  0
VERTEX
  8
0
  6
CONTINUOUS
 62
7
 10
766.720691
 20
146.602840
 30
0
 40
0
 41
0
  0
VERTEX
  8
0
  6
CONTINUOUS
 62
7
 10
772.530830
 20
146.541345
 30
0
 40
0
 41
0
  0
VERTEX
  8
0
  6
CONTINUOUS
 62
7
 10
778.340969
 20
146.466563
 30
0
 40
0
 41
0
  0
VERTEX
  8
0
  6
CONTINUOUS
 62
7
 10
784.151108
 20
146.386516
 30
0
 40
0
 41
0
  0
VERTEX
  8
0
  6
CONTINUOUS
 62
7
 10
789.961247
 20
146.304757
 30
0
 40
0
 41
0
  0
VERTEX
  8
0
  6
CONTINUOUS
 62
7
 10
795.771386
 20
146.215137
 30
0
 40
0
 41
0
  0
VERTEX
  8
0
  6
CONTINUOUS
 62
7
 10
801.581525
 20
146.118781
 30
0
 40
0
 41
0
  0
VERTEX
  8
0
  6
CONTINUOUS
 62
7
 10
807.391664
 20
146.017233
 30
0
 40
0
 41
0
  0
VERTEX
  8
0
  6
CONTINUOUS
 62
7
 10
813.201802
 20
145.911335
 30
0
 40
0
 41
0
  0
VERTEX
  8
0
  6
CONTINUOUS
 62
7
 10
819.011941
 20
145.799502
 30
0
 40
0
 41
0
  0
VERTEX
  8
0
  6
CONTINUOUS
 62
7
 10
824.822080
 20
145.679863
 30
0
 40
0
 41
0
  0
VERTEX
  8
0
  6
CONTINUOUS
 62
7
 10
830.632219
 20
145.550554
 30
0
 40
0
 41
0
  0
VERTEX
  8
0
  6
CONTINUOUS
 62
7
 10
836.442358
 20
145.407067
 30
0
 40
0
 41
0
  0
VERTEX
  8
0
  6
CONTINUOUS
 62
7
 10
842.252497
 20
145.248809
 30
0
 40
0
 41
0
  0
VERTEX
  8
0
  6
CONTINUOUS
 62
7
 10
848.062636
 20
145.081515
 30
0
 40
0
 41
0
  0
VERTEX
  8
0
  6
CONTINUOUS
 62
7
 10
853.872775
 20
144.910941
 30
0
 40
0
 41
0
  0
VERTEX
  8
0
  6
CONTINUOUS
 62
7
 10
859.682914
 20
144.739537
 30
0
 40
0
 41
0
  0
VERTEX
  8
0
  6
CONTINUOUS
 62
7
 10
865.493053
 20
144.563741
 30
0
 40
0
 41
0
  0
VERTEX
  8
0
  6
CONTINUOUS
 62
7
 10
871.303192
 20
144.381072
 30
0
 40
0
 41
0
  0
VERTEX
  8
0
  6
CONTINUOUS
 62
7
 10
877.113331
 20
144.189058
 30
0
 40
0
 41
0
  0
VERTEX
  8
0
  6
CONTINUOUS
 62
7
 10
882.923470
 20
143.985435
 30
0
 40
0
 41
0
  0
VERTEX
  8
0
  6
CONTINUOUS
 62
7
 10
888.733609
 20
143.770509
 30
0
 40
0
 41
0
  0
VERTEX
  8
0
  6
CONTINUOUS
 62
7
 10
894.543748
 20
143.545925
 30
0
 40
0
 41
0
  0
VERTEX
  8
0
  6
CONTINUOUS
 62
7
 10
900.353887
 20
143.313331
 30
0
 40
0
 41
0
  0
VERTEX
  8
0
  6
CONTINUOUS
 62
7
 10
906.164026
 20
143.072045
 30
0
 40
0
 41
0
  0
VERTEX
  8
0
  6
CONTINUOUS
 62
7
 10
911.974164
 20
142.819651
 30
0
 40
0
 41
0
  0
VERTEX
  8
0
  6
CONTINUOUS
 62
7
 10
917.784303
 20
142.558877
 30
0
 40
0
 41
0
  0
VERTEX
  8
0
  6
CONTINUOUS
 62
7
 10
923.594442
 20
142.292594
 30
0
 40
0
 41
0
  0
VERTEX
  8
0
  6
CONTINUOUS
 62
7
 10
929.404581
 20
142.023263
 30
0
 40
0
 41
0
  0
VERTEX
  8
0
  6
CONTINUOUS
 62
7
 10
935.214720
 20
141.749826
 30
0
 40
0
 41
0
  0
VERTEX
  8
0
  6
CONTINUOUS
 62
7
 10
941.024859
 20
141.469573
 30
0
 40
0
 41
0
  0
VERTEX
  8
0
  6
CONTINUOUS
 62
7
 10
946.834998
 20
141.179796
 30
0
 40
0
 41
0
  0
VERTEX
  8
0
  6
CONTINUOUS
 62
7
 10
952.645137
 20
140.877691
 30
0
 40
0
 41
0
  0
VERTEX
  8
0
  6
CONTINUOUS
 62
7
 10
958.455276
 20
140.561856
 30
0
 40
0
 41
0
  0
VERTEX
  8
0
  6
CONTINUOUS
 62
7
 10
964.265415
 20
140.234759
 30
0
 40
0
 41
0
  0
VERTEX
  8
0
  6
CONTINUOUS
 62
7
 10
970.075554
 20
139.899269
 30
0
 40
0
 41
0
  0
VERTEX
  8
0
  6
CONTINUOUS
 62
7
 10
975.885693
 20
139.558092
 30
0
 40
0
 41
0
  0
VERTEX
  8
0
  6
CONTINUOUS
 62
7
 10
981.695832
 20
139.208927
 30
0
 40
0
 41
0
  0
VERTEX
  8
0
  6
CONTINUOUS
 62
7
 10
987.505971
 20
138.851372
 30
0
 40
0
 41
0
  0
VERTEX
  8
0
  6
CONTINUOUS
 62
7
 10
993.316110
 20
138.487200
 30
0
 40
0
 41
0
  0
VERTEX
  8
0
  6
CONTINUOUS
 62
7
 10
999.126249
 20
138.118187
 30
0
 40
0
 41
0
  0
VERTEX
  8
0
  6
CONTINUOUS
 62
7
 10
1004.936388
 20
137.745516
 30
0
 40
0
 41
0
  0
VERTEX
  8
0
  6
CONTINUOUS
 62
7
 10
1010.746526
 20
137.368008
 30
0
 40
0
 41
0
  0
VERTEX
  8
0
  6
CONTINUOUS
 62
7
 10
1016.556665
 20
136.983941
 30
0
 40
0
 41
0
  0
VERTEX
  8
0
  6
CONTINUOUS
 62
7
 10
1022.366804
 20
136.591593
 30
0
 40
0
 41
0
  0
VERTEX
  8
0
  6
CONTINUOUS
 62
7
 10
1028.176943
 20
136.189093
 30
0
 40
0
 41
0
  0
VERTEX
  8
0
  6
CONTINUOUS
 62
7
 10
1033.987082
 20
135.775642
 30
0
 40
0
 41
0
  0
VERTEX
  8
0
  6
CONTINUOUS
 62
7
 10
1039.797221
 20
135.353379
 30
0
 40
0
 41
0
  0
VERTEX
  8
0
  6
CONTINUOUS
 62
7
 10
1045.607360
 20
134.924672
 30
0
 40
0
 41
0
  0
VERTEX
  8
0
  6
CONTINUOUS
 62
7
 10
1051.417499
 20
134.491849
 30
0
 40
0
 41
0
  0
VERTEX
  8
0
  6
CONTINUOUS
 62
7
 10
1057.227638
 20
134.054361
 30
0
 40
0
 41
0
  0
VERTEX
  8
0
  6
CONTINUOUS
 62
7
 10
1063.037777
 20
133.611068
 30
0
 40
0
 41
0
  0
VERTEX
  8
0
  6
CONTINUOUS
 62
7
 10
1068.847916
 20
133.161925
 30
0
 40
0
 41
0
  0
VERTEX
  8
0
  6
CONTINUOUS
 62
7
 10
1074.658055
 20
132.706888
 30
0
 40
0
 41
0
  0
VERTEX
  8
0
  6
CONTINUOUS
 62
7
 10
1080.468194
 20
132.246174
 30
0
 40
0
 41
0
  0
VERTEX
  8
0
  6
CONTINUOUS
 62
7
 10
1086.278333
 20
131.780050
 30
0
 40
0
 41
0
  0
VERTEX
  8
0
  6
CONTINUOUS
 62
7
 10
1092.088472
 20
131.307536
 30
0
 40
0
 41
0
  0
VERTEX
  8
0
  6
CONTINUOUS
 62
7
 10
1097.898611
 20
130.827579
 30
0
 40
0
 41
0
  0
VERTEX
  8
0
  6
CONTINUOUS
 62
7
 10
1103.708750
 20
130.339132
 30
0
 40
0
 41
0
  0
VERTEX
  8
0
  6
CONTINUOUS
 62
7
 10
1109.518888
 20
129.841622
 30
0
 40
0
 41
0
  0
VERTEX
  8
0
  6
CONTINUOUS
 62
7
 10
1115.329027
 20
129.335570
 30
0
 40
0
 41
0
  0
VERTEX
  8
0
  6
CONTINUOUS
 62
7
 10
1121.139166
 20
128.821648
 30
0
 40
0
 41
0
  0
VERTEX
  8
0
  6
CONTINUOUS
 62
7
 10
1126.949305
 20
128.300528
 30
0
 40
0
 41
0
  0
VERTEX
  8
0
  6
CONTINUOUS
 62
7
 10
1132.759444
 20
127.772543
 30
0
 40
0
 41
0
  0
VERTEX
  8
0
  6
CONTINUOUS
 62
7
 10
1138.569583
 20
127.236823
 30
0
 40
0
 41
0
  0
VERTEX
  8
0
  6
CONTINUOUS
 62
7
 10
1144.379722
 20
126.693391
 30
0
 40
0
 41
0
  0
VERTEX
  8
0
  6
CONTINUOUS
 62
7
 10
1150.189861
 20
126.142386
 30
0
 40
0
 41
0
  0
VERTEX
  8
0
  6
CONTINUOUS
 62
7
 10
1156.000000
 20
125.583947
 30
0
 40
0
 41
0
  0
SEQEND
  8
0
  6
CONTINUOUS
 62
7
  0
POLYLINE
  8
0
  6
CONTINUOUS
 62
7
 66
1
 10
0
 20
0
 30
0
 70
128
 40
1.0
 41
1.0
  0
VERTEX
  8
0
  6
CONTINUOUS
 62
7
 10
-41.504521
 20
125.433655
 30
0
 40
0
 41
0
  0
VERTEX
  8
0
  6
CONTINUOUS
 62
7
 10
-41.495525
 20
125.530844
 30
0
 40
0
 41
0
  0
VERTEX
  8
0
  6
CONTINUOUS
 62
7
 10
-41.456275
 20
125.993851
 30
0
 40
0
 41
0
  0
VERTEX
  8
0
  6
CONTINUOUS
 62
7
 10
-41.390750
 20
126.701144
 30
0
 40
0
 41
0
  0
VERTEX
  8
0
  6
CONTINUOUS
 62
7
 10
-41.297797
 20
127.636117
 30
0
 40
0
 41
0
  0
VERTEX
  8
0
  6
CONTINUOUS
 62
7
 10
-41.180842
 20
128.789696
 30
0
 40
0
 41
0
  0
VERTEX
  8
0
  6
CONTINUOUS
 62
7
 10
-41.046165
 20
129.835791
 30
0
 40
0
 41
0
  0
VERTEX
  8
0
  6
CONTINUOUS
 62
7
 10
-40.910039
 20
130.580256
 30
0
 40
0
 41
0
  0
VERTEX
  8
0
  6
CONTINUOUS
 62
7
 10
-40.784854
 20
130.963341
 30
0
 40
0
 41
0
  0
VERTEX
  8
0
  6
CONTINUOUS
 62
7
 10
-40.587657
 20
131.450290
 30
0
 40
0
 41
0
  0
VERTEX
  8
0
  6
CONTINUOUS
 62
7
 10
-40.313368
 20
132.154039
 30
0
 40
0
 41
0
  0
VERTEX
  8
0
  6
CONTINUOUS
 62
7
 10
-40.015951
 20
132.993399
 30
0
 40
0
 41
0
  0
VERTEX
  8
0
  6
CONTINUOUS
 62
7
 10
-39.711017
 20
133.875587
 30
0
 40
0
 41
0
  0
VERTEX
  8
0
  6
CONTINUOUS
 62
7
 10
-39.395005
 20
134.745509
 30
0
 40
0
 41
0
  0
VERTEX
  8
0
  6
CONTINUOUS
 62
7
 10
-39.061129
 20
135.585070
 30
0
 40
0
 41
0
  0
VERTEX
  8
0
  6
CONTINUOUS
 62
7
 10
-38.701607
 20
136.411110
 30
0
 40
0
 41
0
  0
VERTEX
  8
0
  6
CONTINUOUS
 62
7
 10
-38.316712
 20
137.232758
 30
0
 40
0
 41
0
  0
VERTEX
  8
0
  6
CONTINUOUS
 62
7
 10
-37.919180
 20
138.017756
 30
0
 40
0
 41
0
  0
VERTEX
  8
0
  6
CONTINUOUS
 62
7
 10
-37.500984
 20
138.749642
 30
0
 40
0
 41
0
  0
VERTEX
  8
0
  6
CONTINUOUS
 62
7
 10
-37.026327
 20
139.519073
 30
0
 40
0
 41
0
  0
VERTEX
  8
0
  6
CONTINUOUS
 62
7
 10
-36.491780
 20
140.386126
 30
0
 40
0
 41
0
  0
VERTEX
  8
0
  6
CONTINUOUS
 62
7
 10
-35.927162
 20
141.336486
 30
0
 40
0
 41
0
  0
VERTEX
  8
0
  6
CONTINUOUS
 62
7
 10
-35.354555
 20
142.314282
 30
0
 40
0
 41
0
  0
VERTEX
  8
0
  6
CONTINUOUS
 62
7
 10
-34.776556
 20
143.272660
 30
0
 40
0
 41
0
  0
VERTEX
  8
0
  6
CONTINUOUS
 62
7
 10
-34.180559
 20
144.202366
 30
0
 40
0
 41
0
  0
VERTEX
  8
0
  6
CONTINUOUS
 62
7
 10
-33.555520
 20
145.126710
 30
0
 40
0
 41
0
  0
VERTEX
  8
0
  6
CONTINUOUS
 62
7
 10
-32.910305
 20
146.037130
 30
0
 40
0
 41
0
  0
VERTEX
  8
0
  6
CONTINUOUS
 62
7
 10
-32.251625
 20
146.905656
 30
0
 40
0
 41
0
  0
VERTEX
  8
0
  6
CONTINUOUS
 62
7
 10
-31.565096
 20
147.743138
 30
0
 40
0
 41
0
  0
VERTEX
  8
0
  6
CONTINUOUS
 62
7
 10
-30.825613
 20
148.595857
 30
0
 40
0
 41
0
  0
VERTEX
  8
0
  6
CONTINUOUS
 62
7
 10
-30.027422
 20
149.509731
 30
0
 40
0
 41
0
  0
VERTEX
  8
0
  6
CONTINUOUS
 62
7
 10
-29.197520
 20
150.481355
 30
0
 40
0
 41
0
  0
VERTEX
  8
0
  6
CONTINUOUS
 62
7
 10
-28.351793
 20
151.477146
 30
0
 40
0
 41
0
  0
VERTEX
  8
0
  6
CONTINUOUS
 62
7
 10
-27.483817
 20
152.493828
 30
0
 40
0
 41
0
  0
VERTEX
  8
0
  6
CONTINUOUS
 62
7
 10
-26.580603
 20
153.545475
 30
0
 40
0
 41
0
  0
VERTEX
  8
0
  6
CONTINUOUS
 62
7
 10
-25.660195
 20
154.633770
 30
0
 40
0
 41
0
  0
VERTEX
  8
0
  6
CONTINUOUS
 62
7
 10
-24.751156
 20
155.678231
 30
0
 40
0
 41
0
  0
VERTEX
  8
0
  6
CONTINUOUS
 62
7
 10
-23.856177
 20
156.629037
 30
0
 40
0
 41
0
  0
VERTEX
  8
0
  6
CONTINUOUS
 62
7
 10
-22.938324
 20
157.491898
 30
0
 40
0
 41
0
  0
VERTEX
  8
0
  6
CONTINUOUS
 62
7
 10
-21.945058
 20
158.358729
 30
0
 40
0
 41
0
  0
VERTEX
  8
0
  6
CONTINUOUS
 62
7
 10
-20.877071
 20
159.280898
 30
0
 40
0
 41
0
  0
VERTEX
  8
0
  6
CONTINUOUS
 62
7
 10
-19.775450
 20
160.258018
 30
0
 40
0
 41
0
  0
VERTEX
  8
0
  6
CONTINUOUS
 62
7
 10
-18.659364
 20
161.252382
 30
0
 40
0
 41
0
  0
VERTEX
  8
0
  6
CONTINUOUS
 62
7
 10
-17.517094
 20
162.270078
 30
0
 40
0
 41
0
  0
VERTEX
  8
0
  6
CONTINUOUS
 62
7
 10
-16.341714
 20
163.320293
 30
0
 40
0
 41
0
  0
VERTEX
  8
0
  6
CONTINUOUS
 62
7
 10
-15.143522
 20
164.405319
 30
0
 40
0
 41
0
  0
VERTEX
  8
0
  6
CONTINUOUS
 62
7
 10
-13.943623
 20
165.486198
 30
0
 40
0
 41
0
  0
VERTEX
  8
0
  6
CONTINUOUS
 62
7
 10
-12.735663
 20
166.530336
 30
0
 40
0
 41
0
  0
VERTEX
  8
0
  6
CONTINUOUS
 62
7
 10
-11.501782
 20
167.549759
 30
0
 40
0
 41
0
  0
VERTEX
  8
0
  6
CONTINUOUS
 62
7
 10
-10.234328
 20
168.553699
 30
0
 40
0
 41
0
  0
VERTEX
  8
0
  6
CONTINUOUS
 62
7
 10
-8.940221
 20
169.548323
 30
0
 40
0
 41
0
  0
VERTEX
  8
0
  6
CONTINUOUS
 62
7
 10
-7.624884
 20
170.517277
 30
0
 40
0
 41
0
  0
VERTEX
  8
0
  6
CONTINUOUS
 62
7
 10
-6.271970
 20
171.473154
 30
0
 40
0
 41
0
  0
VERTEX
  8
0
  6
CONTINUOUS
 62
7
 10
-4.868160
 20
172.445626
 30
0
 40
0
 41
0
  0
VERTEX
  8
0
  6
CONTINUOUS
 62
7
 10
-3.424446
 20
173.453848
 30
0
 40
0
 41
0
  0
VERTEX
  8
0
  6
CONTINUOUS
 62
7
 10
-1.957663
 20
174.485918
 30
0
 40
0
 41
0
  0
VERTEX
  8
0
  6
CONTINUOUS
 62
7
 10
-0.467217
 20
175.534923
 30
0
 40
0
 41
0
  0
VERTEX
  8
0
  6
CONTINUOUS
 62
7
 10
1.057530
 20
176.608979
 30
0
 40
0
 41
0
  0
VERTEX
  8
0
  6
CONTINUOUS
 62
7
 10
2.613620
 20
177.722293
 30
0
 40
0
 41
0
  0
VERTEX
  8
0
  6
CONTINUOUS
 62
7
 10
4.169344
 20
178.847183
 30
0
 40
0
 41
0
  0
VERTEX
  8
0
  6
CONTINUOUS
 62
7
 10
5.706930
 20
179.914573
 30
0
 40
0
 41
0
  0
VERTEX
  8
0
  6
CONTINUOUS
 62
7
 10
7.252384
 20
180.900323
 30
0
 40
0
 41
0
  0
VERTEX
  8
0
  6
CONTINUOUS
 62
7
 10
8.846943
 20
181.838526
 30
0
 40
0
 41
0
  0
VERTEX
  8
0
  6
CONTINUOUS
 62
7
 10
10.508690
 20
182.779846
 30
0
 40
0
 41
0
  0
VERTEX
  8
0
  6
CONTINUOUS
 62
7
 10
12.216484
 20
183.751106
 30
0
 40
0
 41
0
  0
VERTEX
  8
0
  6
CONTINUOUS
 62
7
 10
13.946661
 20
184.737864
 30
0
 40
0
 41
0
  0
VERTEX
  8
0
  6
CONTINUOUS
 62
7
 10
15.702250
 20
185.733487
 30
0
 40
0
 41
0
  0
VERTEX
  8
0
  6
CONTINUOUS
 62
7
 10
17.490408
 20
186.747223
 30
0
 40
0
 41
0
  0
VERTEX
  8
0
  6
CONTINUOUS
 62
7
 10
19.307473
 20
187.784163
 30
0
 40
0
 41
0
  0
VERTEX
  8
0
  6
CONTINUOUS
 62
7
 10
21.143649
 20
188.836361
 30
0
 40
0
 41
0
  0
VERTEX
  8
0
  6
CONTINUOUS
 62
7
 10
22.994430
 20
189.886505
 30
0
 40
0
 41
0
  0
VERTEX
  8
0
  6
CONTINUOUS
 62
7
 10
24.872161
 20
190.928473
 30
0
 40
0
 41
0
  0
VERTEX
  8
0
  6
CONTINUOUS
 62
7
 10
26.774037
 20
191.973623
 30
0
 40
0
 41
0
  0
VERTEX
  8
0
  6
CONTINUOUS
 62
7
 10
28.688735
 20
192.996467
 30
0
 40
0
 41
0
  0
VERTEX
  8
0
  6
CONTINUOUS
 62
7
 10
30.612324
 20
193.983053
 30
0
 40
0
 41
0
  0
VERTEX
  8
0
  6
CONTINUOUS
 62
7
 10
32.564560
 20
194.916504
 30
0
 40
0
 41
0
  0
VERTEX
  8
0
  6
CONTINUOUS
 62
7
 10
34.572270
 20
195.840812
 30
0
 40
0
 41
0
  0
VERTEX
  8
0
  6
CONTINUOUS
 62
7
 10
36.630327
 20
196.782701
 30
0
 40
0
 41
0
  0
VERTEX
  8
0
  6
CONTINUOUS
 62
7
 10
38.718524
 20
197.753768
 30
0
 40
0
 41
0
  0
VERTEX
  8
0
  6
CONTINUOUS
 62
7
 10
40.826707
 20
198.736023
 30
0
 40
0
 41
0
  0
VERTEX
  8
0
  6
CONTINUOUS
 62
7
 10
42.962508
 20
199.731145
 30
0
 40
0
 41
0
  0
VERTEX
  8
0
  6
CONTINUOUS
 62
7
 10
45.132896
 20
200.746097
 30
0
 40
0
 41
0
  0
VERTEX
  8
0
  6
CONTINUOUS
 62
7
 10
47.324207
 20
201.789050
 30
0
 40
0
 41
0
  0
VERTEX
  8
0
  6
CONTINUOUS
 62
7
 10
49.511592
 20
202.820338
 30
0
 40
0
 41
0
  0
VERTEX
  8
0
  6
CONTINUOUS
 62
7
 10
51.702072
 20
203.798837
 30
0
 40
0
 41
0
  0
VERTEX
  8
0
  6
CONTINUOUS
 62
7
 10
53.923249
 20
204.726703
 30
0
 40
0
 41
0
  0
VERTEX
  8
0
  6
CONTINUOUS
 62
7
 10
56.192317
 20
205.630575
 30
0
 40
0
 41
0
  0
VERTEX
  8
0
  6
CONTINUOUS
 62
7
 10
58.507528
 20
206.536910
 30
0
 40
0
 41
0
  0
VERTEX
  8
0
  6
CONTINUOUS
 62
7
 10
60.852764
 20
207.455030
 30
0
 40
0
 41
0
  0
VERTEX
  8
0
  6
CONTINUOUS
 62
7
 10
63.222613
 20
208.374061
 30
0
 40
0
 41
0
  0
VERTEX
  8
0
  6
CONTINUOUS
 62
7
 10
65.624721
 20
209.300276
 30
0
 40
0
 41
0
  0
VERTEX
  8
0
  6
CONTINUOUS
 62
7
 10
68.060319
 20
210.243440
 30
0
 40
0
 41
0
  0
VERTEX
  8
0
  6
CONTINUOUS
 62
7
 10
70.519465
 20
211.206404
 30
0
 40
0
 41
0
  0
VERTEX
  8
0
  6
CONTINUOUS
 62
7
 10
72.992133
 20
212.170861
 30
0
 40
0
 41
0
  0
VERTEX
  8
0
  6
CONTINUOUS
 62
7
 10
75.485172
 20
213.121281
 30
0
 40
0
 41
0
  0
VERTEX
  8
0
  6
CONTINUOUS
 62
7
 10
76.864312
 20
213.631746
 30
0
 40
0
 41
0
  0
VERTEX
  8
0
  6
CONTINUOUS
 62
7
 10
77.990870
 20
214.044453
 30
0
 40
0
 41
0
  0
VERTEX
  8
0
  6
CONTINUOUS
 62
7
 10
80.540731
 20
214.963191
 30
0
 40
0
 41
0
  0
VERTEX
  8
0
  6
CONTINUOUS
 62
7
 10
83.107370
 20
215.863481
 30
0
 40
0
 41
0
  0
VERTEX
  8
0
  6
CONTINUOUS
 62
7
 10
85.697552
 20
216.737793
 30
0
 40
0
 41
0
  0
VERTEX
  8
0
  6
CONTINUOUS
 62
7
 10
88.322693
 20
217.591270
 30
0
 40
0
 41
0
  0
VERTEX
  8
0
  6
CONTINUOUS
 62
7
 10
90.990279
 20
218.444087
 30
0
 40
0
 41
0
  0
VERTEX
  8
0
  6
CONTINUOUS
 62
7
 10
93.694690
 20
219.314428
 30
0
 40
0
 41
0
  0
VERTEX
  8
0
  6
CONTINUOUS
 62
7
 10
96.423168
 20
220.203032
 30
0
 40
0
 41
0
  0
VERTEX
  8
0
  6
CONTINUOUS
 62
7
 10
99.170442
 20
221.096616
 30
0
 40
0
 41
0
  0
VERTEX
  8
0
  6
CONTINUOUS
 62
7
 10
101.941031
 20
221.987718
 30
0
 40
0
 41
0
  0
VERTEX
  8
0
  6
CONTINUOUS
 62
7
 10
104.739584
 20
222.877468
 30
0
 40
0
 41
0
  0
VERTEX
  8
0
  6
CONTINUOUS
 62
7
 10
107.559012
 20
223.766598
 30
0
 40
0
 41
0
  0
VERTEX
  8
0
  6
CONTINUOUS
 62
7
 10
110.390105
 20
224.633578
 30
0
 40
0
 41
0
  0
VERTEX
  8
0
  6
CONTINUOUS
 62
7
 10
113.239286
 20
225.459444
 30
0
 40
0
 41
0
  0
VERTEX
  8
0
  6
CONTINUOUS
 62
7
 10
116.126277
 20
226.247789
 30
0
 40
0
 41
0
  0
VERTEX
  8
0
  6
CONTINUOUS
 62
7
 10
119.060851
 20
227.030830
 30
0
 40
0
 41
0
  0
VERTEX
  8
0
  6
CONTINUOUS
 62
7
 10
122.033199
 20
227.829268
 30
0
 40
0
 41
0
  0
VERTEX
  8
0
  6
CONTINUOUS
 62
7
 10
125.030675
 20
228.644892
 30
0
 40
0
 41
0
  0
VERTEX
  8
0
  6
CONTINUOUS
 62
7
 10
128.048510
 20
229.466927
 30
0
 40
0
 41
0
  0
VERTEX
  8
0
  6
CONTINUOUS
 62
7
 10
131.091264
 20
230.288773
 30
0
 40
0
 41
0
  0
VERTEX
  8
0
  6
CONTINUOUS
 62
7
 10
134.162630
 20
231.113927
 30
0
 40
0
 41
0
  0
VERTEX
  8
0
  6
CONTINUOUS
 62
7
 10
137.253607
 20
231.942145
 30
0
 40
0
 41
0
  0
VERTEX
  8
0
  6
CONTINUOUS
 62
7
 10
140.355792
 20
232.749153
 30
0
 40
0
 41
0
  0
VERTEX
  8
0
  6
CONTINUOUS
 62
7
 10
143.475575
 20
233.515608
 30
0
 40
0
 41
0
  0
VERTEX
  8
0
  6
CONTINUOUS
 62
7
 10
146.630245
 20
234.241016
 30
0
 40
0
 41
0
  0
VERTEX
  8
0
  6
CONTINUOUS
 62
7
 10
149.831460
 20
234.953903
 30
0
 40
0
 41
0
  0
VERTEX
  8
0
  6
CONTINUOUS
 62
7
 10
153.072754
 20
235.680180
 30
0
 40
0
 41
0
  0
VERTEX
  8
0
  6
CONTINUOUS
 62
7
 10
156.339309
 20
236.425686
 30
0
 40
0
 41
0
  0
VERTEX
  8
0
  6
CONTINUOUS
 62
7
 10
159.624875
 20
237.175675
 30
0
 40
0
 41
0
  0
VERTEX
  8
0
  6
CONTINUOUS
 62
7
 10
162.933922
 20
237.922387
 30
0
 40
0
 41
0
  0
VERTEX
  8
0
  6
CONTINUOUS
 62
7
 10
166.270389
 20
238.665728
 30
0
 40
0
 41
0
  0
VERTEX
  8
0
  6
CONTINUOUS
 62
7
 10
169.629587
 20
239.407058
 30
0
 40
0
 41
0
  0
VERTEX
  8
0
  6
CONTINUOUS
 62
7
 10
173.005142
 20
240.130524
 30
0
 40
0
 41
0
  0
VERTEX
  8
0
  6
CONTINUOUS
 62
7
 10
176.401585
 20
240.820935
 30
0
 40
0
 41
0
  0
VERTEX
  8
0
  6
CONTINUOUS
 62
7
 10
179.830670
 20
241.479052
 30
0
 40
0
 41
0
  0
VERTEX
  8
0
  6
CONTINUOUS
 62
7
 10
183.300408
 20
242.124035
 30
0
 40
0
 41
0
  0
VERTEX
  8
0
  6
CONTINUOUS
 62
7
 10
186.808074
 20
242.777280
 30
0
 40
0
 41
0
  0
VERTEX
  8
0
  6
CONTINUOUS
 62
7
 10
190.343026
 20
243.447304
 30
0
 40
0
 41
0
  0
VERTEX
  8
0
  6
CONTINUOUS
 62
7
 10
193.898615
 20
244.123867
 30
0
 40
0
 41
0
  0
VERTEX
  8
0
  6
CONTINUOUS
 62
7
 10
196.457802
 20
244.604940
 30
0
 40
0
 41
0
  0
VERTEX
  8
0
  6
CONTINUOUS
 62
7
 10
197.461353
 20
244.787530
 30
0
 40
0
 41
0
  0
VERTEX
  8
0
  6
CONTINUOUS
 62
7
 10
201.064480
 20
245.436109
 30
0
 40
0
 41
0
  0
VERTEX
  8
0
  6
CONTINUOUS
 62
7
 10
204.689341
 20
246.068775
 30
0
 40
0
 41
0
  0
VERTEX
  8
0
  6
CONTINUOUS
 62
7
 10
208.340909
 20
246.687304
 30
0
 40
0
 41
0
  0
VERTEX
  8
0
  6
CONTINUOUS
 62
7
 10
212.015065
 20
247.289277
 30
0
 40
0
 41
0
  0
VERTEX
  8
0
  6
CONTINUOUS
 62
7
 10
215.718532
 20
247.863990
 30
0
 40
0
 41
0
  0
VERTEX
  8
0
  6
CONTINUOUS
 62
7
 10
219.460064
 20
248.431559
 30
0
 40
0
 41
0
  0
VERTEX
  8
0
  6
CONTINUOUS
 62
7
 10
223.236134
 20
249.006895
 30
0
 40
0
 41
0
  0
VERTEX
  8
0
  6
CONTINUOUS
 62
7
 10
227.039709
 20
249.597394
 30
0
 40
0
 41
0
  0
VERTEX
  8
0
  6
CONTINUOUS
 62
7
 10
230.860451
 20
250.195272
 30
0
 40
0
 41
0
  0
VERTEX
  8
0
  6
CONTINUOUS
 62
7
 10
234.692213
 20
250.775281
 30
0
 40
0
 41
0
  0
VERTEX
  8
0
  6
CONTINUOUS
 62
7
 10
238.544069
 20
251.312659
 30
0
 40
0
 41
0
  0
VERTEX
  8
0
  6
CONTINUOUS
 62
7
 10
242.433183
 20
251.813838
 30
0
 40
0
 41
0
  0
VERTEX
  8
0
  6
CONTINUOUS
 62
7
 10
246.360053
 20
252.307186
 30
0
 40
0
 41
0
  0
VERTEX
  8
0
  6
CONTINUOUS
 62
7
 10
250.317620
 20
252.797833
 30
0
 40
0
 41
0
  0
VERTEX
  8
0
  6
CONTINUOUS
 62
7
 10
254.301751
 20
253.291443
 30
0
 40
0
 41
0
  0
VERTEX
  8
0
  6
CONTINUOUS
 62
7
 10
258.310929
 20
253.780636
 30
0
 40
0
 41
0
  0
VERTEX
  8
0
  6
CONTINUOUS
 62
7
 10
262.347022
 20
254.266811
 30
0
 40
0
 41
0
  0
VERTEX
  8
0
  6
CONTINUOUS
 62
7
 10
266.408551
 20
254.748682
 30
0
 40
0
 41
0
  0
VERTEX
  8
0
  6
CONTINUOUS
 62
7
 10
270.492799
 20
255.222194
 30
0
 40
0
 41
0
  0
VERTEX
  8
0
  6
CONTINUOUS
 62
7
 10
274.599248
 20
255.677041
 30
0
 40
0
 41
0
  0
VERTEX
  8
0
  6
CONTINUOUS
 62
7
 10
278.726218
 20
256.107425
 30
0
 40
0
 41
0
  0
VERTEX
  8
0
  6
CONTINUOUS
 62
7
 10
282.885638
 20
256.498388
 30
0
 40
0
 41
0
  0
VERTEX
  8
0
  6
CONTINUOUS
 62
7
 10
287.086141
 20
256.885099
 30
0
 40
0
 41
0
  0
VERTEX
  8
0
  6
CONTINUOUS
 62
7
 10
291.316879
 20
257.280038
 30
0
 40
0
 41
0
  0
VERTEX
  8
0
  6
CONTINUOUS
 62
7
 10
295.575011
 20
257.681025
 30
0
 40
0
 41
0
  0
VERTEX
  8
0
  6
CONTINUOUS
 62
7
 10
299.847036
 20
258.090731
 30
0
 40
0
 41
0
  0
VERTEX
  8
0
  6
CONTINUOUS
 62
7
 10
304.137435
 20
258.460789
 30
0
 40
0
 41
0
  0
VERTEX
  8
0
  6
CONTINUOUS
 62
7
 10
308.454821
 20
258.810922
 30
0
 40
0
 41
0
  0
VERTEX
  8
0
  6
CONTINUOUS
 62
7
 10
312.800380
 20
259.122140
 30
0
 40
0
 41
0
  0
VERTEX
  8
0
  6
CONTINUOUS
 62
7
 10
317.185980
 20
259.418262
 30
0
 40
0
 41
0
  0
VERTEX
  8
0
  6
CONTINUOUS
 62
7
 10
321.603974
 20
259.721759
 30
0
 40
0
 41
0
  0
VERTEX
  8
0
  6
CONTINUOUS
 62
7
 10
326.042596
 20
260.028404
 30
0
 40
0
 41
0
  0
VERTEX
  8
0
  6
CONTINUOUS
 62
7
 10
330.502478
 20
260.319457
 30
0
 40
0
 41
0
  0
VERTEX
  8
0
  6
CONTINUOUS
 62
7
 10
334.989530
 20
260.593802
 30
0
 40
0
 41
0
  0
VERTEX
  8
0
  6
CONTINUOUS
 62
7
 10
339.504337
 20
260.853773
 30
0
 40
0
 41
0
  0
VERTEX
  8
0
  6
CONTINUOUS
 62
7
 10
344.045272
 20
261.099894
 30
0
 40
0
 41
0
  0
VERTEX
  8
0
  6
CONTINUOUS
 62
7
 10
348.611361
 20
261.328527
 30
0
 40
0
 41
0
  0
VERTEX
  8
0
  6
CONTINUOUS
 62
7
 10
353.204396
 20
261.536756
 30
0
 40
0
 41
0
  0
VERTEX
  8
0
  6
CONTINUOUS
 62
7
 10
357.826806
 20
261.727613
 30
0
 40
0
 41
0
  0
VERTEX
  8
0
  6
CONTINUOUS
 62
7
 10
362.479989
 20
261.907158
 30
0
 40
0
 41
0
  0
VERTEX
  8
0
  6
CONTINUOUS
 62
7
 10
367.164099
 20
262.083706
 30
0
 40
0
 41
0
  0
VERTEX
  8
0
  6
CONTINUOUS
 62
7
 10
371.873495
 20
262.263887
 30
0
 40
0
 41
0
  0
VERTEX
  8
0
  6
CONTINUOUS
 62
7
 10
376.089132
 20
262.415630
 30
0
 40
0
 41
0
  0
VERTEX
  8
0
  6
CONTINUOUS
 62
7
 10
376.590430
 20
262.432225
 30
0
 40
0
 41
0
  0
VERTEX
  8
0
  6
CONTINUOUS
 62
7
 10
381.344245
 20
262.566254
 30
0
 40
0
 41
0
  0
VERTEX
  8
0
  6
CONTINUOUS
 62
7
 10
386.120624
 20
262.662610
 30
0
 40
0
 41
0
  0
VERTEX
  8
0
  6
CONTINUOUS
 62
7
 10
390.932132
 20
262.738434
 30
0
 40
0
 41
0
  0
VERTEX
  8
0
  6
CONTINUOUS
 62
7
 10
395.778477
 20
262.808130
 30
0
 40
0
 41
0
  0
VERTEX
  8
0
  6
CONTINUOUS
 62
7
 10
400.656339
 20
262.887937
 30
0
 40
0
 41
0
  0
VERTEX
  8
0
  6
CONTINUOUS
 62
7
 10
405.553706
 20
262.979657
 30
0
 40
0
 41
0
  0
VERTEX
  8
0
  6
CONTINUOUS
 62
7
 10
410.462225
 20
263.052588
 30
0
 40
0
 41
0
  0
VERTEX
  8
0
  6
CONTINUOUS
 62
7
 10
415.391290
 20
263.075552
 30
0
 40
0
 41
0
  0
VERTEX
  8
0
  6
CONTINUOUS
 62
7
 10
420.386641
 20
268.054227
 30
0
 40
0
 41
0
  0
VERTEX
  8
0
  6
CONTINUOUS
 62
7
 10
425.398555
 20
268.011564
 30
0
 40
0
 41
0
  0
VERTEX
  8
0
  6
CONTINUOUS
 62
7
 10
430.429514
 20
267.968844
 30
0
 40
0
 41
0
  0
VERTEX
  8
0
  6
CONTINUOUS
 62
7
 10
435.486566
 20
267.936049
 30
0
 40
0
 41
0
  0
VERTEX
  8
0
  6
CONTINUOUS
 62
7
 10
440.574815
 20
267.906272
 30
0
 40
0
 41
0
  0
VERTEX
  8
0
  6
CONTINUOUS
 62
7
 10
445.698738
 20
267.868722
 30
0
 40
0
 41
0
  0
VERTEX
  8
0
  6
CONTINUOUS
 62
7
 10
450.863824
 20
267.797669
 30
0
 40
0
 41
0
  0
VERTEX
  8
0
  6
CONTINUOUS
 62
7
 10
456.055856
 20
267.659187
 30
0
 40
0
 41
0
  0
VERTEX
  8
0
  6
CONTINUOUS
 62
7
 10
461.256660
 20
267.486387
 30
0
 40
0
 41
0
  0
VERTEX
  8
0
  6
CONTINUOUS
 62
7
 10
466.471215
 20
267.321123
 30
0
 40
0
 41
0
  0
VERTEX
  8
0
  6
CONTINUOUS
 62
7
 10
471.715043
 20
267.175687
 30
0
 40
0
 41
0
  0
VERTEX
  8
0
  6
CONTINUOUS
 62
7
 10
476.995678
 20
267.027147
 30
0
 40
0
 41
0
  0
VERTEX
  8
0
  6
CONTINUOUS
 62
7
 10
482.313127
 20
266.856157
 30
0
 40
0
 41
0
  0
VERTEX
  8
0
  6
CONTINUOUS
 62
7
 10
487.664504
 20
266.639237
 30
0
 40
0
 41
0
  0
VERTEX
  8
0
  6
CONTINUOUS
 62
7
 10
493.036079
 20
266.369304
 30
0
 40
0
 41
0
  0
VERTEX
  8
0
  6
CONTINUOUS
 62
7
 10
498.419582
 20
266.082149
 30
0
 40
0
 41
0
  0
VERTEX
  8
0
  6
CONTINUOUS
 62
7
 10
503.823182
 20
265.806109
 30
0
 40
0
 41
0
  0
VERTEX
  8
0
  6
CONTINUOUS
 62
7
 10
509.258717
 20
265.541216
 30
0
 40
0
 41
0
  0
VERTEX
  8
0
  6
CONTINUOUS
 62
7
 10
514.731112
 20
265.264547
 30
0
 40
0
 41
0
  0
VERTEX
  8
0
  6
CONTINUOUS
 62
7
 10
520.239380
 20
264.954693
 30
0
 40
0
 41
0
  0
VERTEX
  8
0
  6
CONTINUOUS
 62
7
 10
525.777335
 20
264.592869
 30
0
 40
0
 41
0
  0
VERTEX
  8
0
  6
CONTINUOUS
 62
7
 10
531.332391
 20
264.185419
 30
0
 40
0
 41
0
  0
VERTEX
  8
0
  6
CONTINUOUS
 62
7
 10
536.901193
 20
263.769881
 30
0
 40
0
 41
0
  0
VERTEX
  8
0
  6
CONTINUOUS
 62
7
 10
542.493896
 20
263.366841
 30
0
 40
0
 41
0
  0
VERTEX
  8
0
  6
CONTINUOUS
 62
7
 10
548.120347
 20
262.967662
 30
0
 40
0
 41
0
  0
VERTEX
  8
0
  6
CONTINUOUS
 62
7
 10
553.783107
 20
262.548872
 30
0
 40
0
 41
0
  0
VERTEX
  8
0
  6
CONTINUOUS
 62
7
 10
559.481466
 20
262.090304
 30
0
 40
0
 41
0
  0
VERTEX
  8
0
  6
CONTINUOUS
 62
7
 10
565.204726
 20
261.572000
 30
0
 40
0
 41
0
  0
VERTEX
  8
0
  6
CONTINUOUS
 62
7
 10
570.943654
 20
261.023586
 30
0
 40
0
 41
0
  0
VERTEX
  8
0
  6
CONTINUOUS
 62
7
 10
576.701669
 20
260.467286
 30
0
 40
0
 41
0
  0
VERTEX
  8
0
  6
CONTINUOUS
 62
7
 10
582.486518
 20
259.915898
 30
0
 40
0
 41
0
  0
VERTEX
  8
0
  6
CONTINUOUS
 62
7
 10
588.304820
 20
259.355315
 30
0
 40
0
 41
0
  0
VERTEX
  8
0
  6
CONTINUOUS
 62
7
 10
594.156533
 20
258.767740
 30
0
 40
0
 41
0
  0
VERTEX
  8
0
  6
CONTINUOUS
 62
7
 10
600.037479
 20
258.139763
 30
0
 40
0
 41
0
  0
VERTEX
  8
0
  6
CONTINUOUS
 62
7
 10
605.943156
 20
257.473542
 30
0
 40
0
 41
0
  0
VERTEX
  8
0
  6
CONTINUOUS
 62
7
 10
611.870581
 20
256.777164
 30
0
 40
0
 41
0
  0
VERTEX
  8
0
  6
CONTINUOUS
 62
7
 10
617.822069
 20
256.066722
 30
0
 40
0
 41
0
  0
VERTEX
  8
0
  6
CONTINUOUS
 62
7
 10
623.801818
 20
255.338564
 30
0
 40
0
 41
0
  0
VERTEX
  8
0
  6
CONTINUOUS
 62
7
 10
629.809719
 20
254.588663
 30
0
 40
0
 41
0
  0
VERTEX
  8
0
  6
CONTINUOUS
 62
7
 10
635.845435
 20
253.814317
 30
0
 40
0
 41
0
  0
VERTEX
  8
0
  6
CONTINUOUS
 62
7
 10
641.907983
 20
253.013178
 30
0
 40
0
 41
0
  0
VERTEX
  8
0
  6
CONTINUOUS
 62
7
 10
647.998621
 20
252.187149
 30
0
 40
0
 41
0
  0
VERTEX
  8
0
  6
CONTINUOUS
 62
7
 10
654.117878
 20
251.327366
 30
0
 40
0
 41
0
  0
VERTEX
  8
0
  6
CONTINUOUS
 62
7
 10
660.266235
 20
250.433016
 30
0
 40
0
 41
0
  0
VERTEX
  8
0
  6
CONTINUOUS
 62
7
 10
666.439940
 20
249.493243
 30
0
 40
0
 41
0
  0
VERTEX
  8
0
  6
CONTINUOUS
 62
7
 10
672.634052
 20
248.527095
 30
0
 40
0
 41
0
  0
VERTEX
  8
0
  6
CONTINUOUS
 62
7
 10
678.850469
 20
247.548504
 30
0
 40
0
 41
0
  0
VERTEX
  8
0
  6
CONTINUOUS
 62
7
 10
685.095265
 20
246.565505
 30
0
 40
0
 41
0
  0
VERTEX
  8
0
  6
CONTINUOUS
 62
7
 10
691.373946
 20
245.560175
 30
0
 40
0
 41
0
  0
VERTEX
  8
0
  6
CONTINUOUS
 62
7
 10
697.687771
 20
244.512305
 30
0
 40
0
 41
0
  0
VERTEX
  8
0
  6
CONTINUOUS
 62
7
 10
704.030884
 20
243.398402
 30
0
 40
0
 41
0
  0
VERTEX
  8
0
  6
CONTINUOUS
 62
7
 10
710.394762
 20
242.230166
 30
0
 40
0
 41
0
  0
VERTEX
  8
0
  6
CONTINUOUS
 62
7
 10
716.777371
 20
241.029054
 30
0
 40
0
 41
0
  0
VERTEX
  8
0
  6
CONTINUOUS
 62
7
 10
723.183895
 20
239.816004
 30
0
 40
0
 41
0
  0
VERTEX
  8
0
  6
CONTINUOUS
 62
7
 10
729.619502
 20
238.583696
 30
0
 40
0
 41
0
  0
VERTEX
  8
0
  6
CONTINUOUS
 62
7
 10
736.079754
 20
237.326943
 30
0
 40
0
 41
0
  0
VERTEX
  8
0
  6
CONTINUOUS
 62
7
 10
736.488138
 20
237.246476
 30
0
 40
0
 41
0
  0
SEQEND
  8
0
  6
CONTINUOUS
 62
7
  0
POLYLINE
  8
0
  6
CONTINUOUS
 62
7
 66
1
 10
0
 20
0
 30
0
 70
128
 40
1.0
 41
1.0
  0
VERTEX
  8
0
  6
CONTINUOUS
 62
7
 10
-41.505855
 20
125.690278
 30
0
 40
0
 41
0
  0
VERTEX
  8
0
  6
CONTINUOUS
 62
7
 10
-41.286311
 20
122.501530
 30
0
 40
0
 41
0
  0
VERTEX
  8
0
  6
CONTINUOUS
 62
7
 10
-40.903933
 20
120.686178
 30
0
 40
0
 41
0
  0
VERTEX
  8
0
  6
CONTINUOUS
 62
7
 10
-40.417819
 20
118.626232
 30
0
 40
0
 41
0
  0
VERTEX
  8
0
  6
CONTINUOUS
 62
7
 10
-39.957630
 20
117.683448
 30
0
 40
0
 41
0
  0
VERTEX
  8
0
  6
CONTINUOUS
 62
7
 10
-39.313490
 20
116.717639
 30
0
 40
0
 41
0
  0
VERTEX
  8
0
  6
CONTINUOUS
 62
7
 10
-38.602952
 20
115.614322
 30
0
 40
0
 41
0
  0
VERTEX
  8
0
  6
CONTINUOUS
 62
7
 10
-37.978719
 20
114.932096
 30
0
 40
0
 41
0
  0
VERTEX
  8
0
  6
CONTINUOUS
 62
7
 10
-37.198333
 20
114.307024
 30
0
 40
0
 41
0
  0
VERTEX
  8
0
  6
CONTINUOUS
 62
7
 10
-36.289352
 20
113.606241
 30
0
 40
0
 41
0
  0
VERTEX
  8
0
  6
CONTINUOUS
 62
7
 10
-35.442060
 20
113.051253
 30
0
 40
0
 41
0
  0
VERTEX
  8
0
  6
CONTINUOUS
 62
7
 10
-34.535499
 20
112.629773
 30
0
 40
0
 41
0
  0
VERTEX
  8
0
  6
CONTINUOUS
 62
7
 10
-33.401919
 20
112.176960
 30
0
 40
0
 41
0
  0
VERTEX
  8
0
  6
CONTINUOUS
 62
7
 10
-32.228040
 20
111.681720
 30
0
 40
0
 41
0
  0
VERTEX
  8
0
  6
CONTINUOUS
 62
7
 10
-31.162974
 20
111.310694
 30
0
 40
0
 41
0
  0
VERTEX
  8
0
  6
CONTINUOUS
 62
7
 10
-30.023020
 20
111.062526
 30
0
 40
0
 41
0
  0
VERTEX
  8
0
  6
CONTINUOUS
 62
7
 10
-28.674810
 20
110.817317
 30
0
 40
0
 41
0
  0
VERTEX
  8
0
  6
CONTINUOUS
 62
7
 10
-27.241630
 20
110.529205
 30
0
 40
0
 41
0
  0
VERTEX
  8
0
  6
CONTINUOUS
 62
7
 10
-25.822281
 20
110.247122
 30
0
 40
0
 41
0
  0
VERTEX
  8
0
  6
CONTINUOUS
 62
7
 10
-24.387774
 20
110.003032
 30
0
 40
0
 41
0
  0
VERTEX
  8
0
  6
CONTINUOUS
 62
7
 10
-22.925275
 20
109.789317
 30
0
 40
0
 41
0
  0
VERTEX
  8
0
  6
CONTINUOUS
 62
7
 10
-21.431179
 20
109.627159
 30
0
 40
0
 41
0
  0
VERTEX
  8
0
  6
CONTINUOUS
 62
7
 10
-19.860130
 20
109.503488
 30
0
 40
0
 41
0
  0
VERTEX
  8
0
  6
CONTINUOUS
 62
7
 10
-18.210092
 20
109.382405
 30
0
 40
0
 41
0
  0
VERTEX
  8
0
  6
CONTINUOUS
 62
7
 10
-16.516749
 20
109.250859
 30
0
 40
0
 41
0
  0
VERTEX
  8
0
  6
CONTINUOUS
 62
7
 10
-14.777896
 20
109.115193
 30
0
 40
0
 41
0
  0
VERTEX
  8
0
  6
CONTINUOUS
 62
7
 10
-13.009344
 20
108.955716
 30
0
 40
0
 41
0
  0
VERTEX
  8
0
  6
CONTINUOUS
 62
7
 10
-11.274769
 20
108.804841
 30
0
 40
0
 41
0
  0
VERTEX
  8
0
  6
CONTINUOUS
 62
7
 10
-9.544542
 20
108.728792
 30
0
 40
0
 41
0
  0
VERTEX
  8
0
  6
CONTINUOUS
 62
7
 10
-7.728203
 20
108.711095
 30
0
 40
0
 41
0
  0
VERTEX
  8
0
  6
CONTINUOUS
 62
7
 10
-5.837290
 20
108.692300
 30
0
 40
0
 41
0
  0
VERTEX
  8
0
  6
CONTINUOUS
 62
7
 10
-3.914593
 20
108.673189
 30
0
 40
0
 41
0
  0
VERTEX
  8
0
  6
CONTINUOUS
 62
7
 10
-1.961575
 20
108.653776
 30
0
 40
0
 41
0
  0
VERTEX
  8
0
  6
CONTINUOUS
 62
7
 10
0.014531
 20
108.635605
 30
0
 40
0
 41
0
  0
VERTEX
  8
0
  6
CONTINUOUS
 62
7
 10
2.021987
 20
108.629446
 30
0
 40
0
 41
0
  0
VERTEX
  8
0
  6
CONTINUOUS
 62
7
 10
4.066623
 20
108.623160
 30
0
 40
0
 41
0
  0
VERTEX
  8
0
  6
CONTINUOUS
 62
7
 10
6.139950
 20
108.617216
 30
0
 40
0
 41
0
  0
VERTEX
  8
0
  6
CONTINUOUS
 62
7
 10
8.242558
 20
108.612423
 30
0
 40
0
 41
0
  0
VERTEX
  8
0
  6
CONTINUOUS
 62
7
 10
10.360410
 20
108.607555
 30
0
 40
0
 41
0
  0
VERTEX
  8
0
  6
CONTINUOUS
 62
7
 10
12.493747
 20
108.626610
 30
0
 40
0
 41
0
  0
VERTEX
  8
0
  6
CONTINUOUS
 62
7
 10
14.669045
 20
108.668446
 30
0
 40
0
 41
0
  0
VERTEX
  8
0
  6
CONTINUOUS
 62
7
 10
15.951965
 20
108.693101
 30
0
 40
0
 41
0
  0
VERTEX
  8
0
  6
CONTINUOUS
 62
7
 10
16.853039
 20
108.710217
 30
0
 40
0
 41
0
  0
VERTEX
  8
0
  6
CONTINUOUS
 62
7
 10
19.079482
 20
108.792924
 30
0
 40
0
 41
0
  0
VERTEX
  8
0
  6
CONTINUOUS
 62
7
 10
21.346472
 20
108.882901
 30
0
 40
0
 41
0
  0
VERTEX
  8
0
  6
CONTINUOUS
 62
7
 10
23.644305
 20
108.973156
 30
0
 40
0
 41
0
  0
VERTEX
  8
0
  6
CONTINUOUS
 62
7
 10
25.967859
 20
109.062323
 30
0
 40
0
 41
0
  0
VERTEX
  8
0
  6
CONTINUOUS
 62
7
 10
28.316244
 20
109.152443
 30
0
 40
0
 41
0
  0
VERTEX
  8
0
  6
CONTINUOUS
 62
7
 10
30.690295
 20
109.243548
 30
0
 40
0
 41
0
  0
VERTEX
  8
0
  6
CONTINUOUS
 62
7
 10
33.090462
 20
109.335655
 30
0
 40
0
 41
0
  0
VERTEX
  8
0
  6
CONTINUOUS
 62
7
 10
35.516839
 20
109.427367
 30
0
 40
0
 41
0
  0
VERTEX
  8
0
  6
CONTINUOUS
 62
7
 10
37.966899
 20
109.517844
 30
0
 40
0
 41
0
  0
VERTEX
  8
0
  6
CONTINUOUS
 62
7
 10
40.426867
 20
109.609547
 30
0
 40
0
 41
0
  0
VERTEX
  8
0
  6
CONTINUOUS
 62
7
 10
42.911808
 20
109.729293
 30
0
 40
0
 41
0
  0
VERTEX
  8
0
  6
CONTINUOUS
 62
7
 10
45.421749
 20
109.850175
 30
0
 40
0
 41
0
  0
VERTEX
  8
0
  6
CONTINUOUS
 62
7
 10
47.950866
 20
109.997575
 30
0
 40
0
 41
0
  0
VERTEX
  8
0
  6
CONTINUOUS
 62
7
 10
50.516478
 20
110.157071
 30
0
 40
0
 41
0
  0
VERTEX
  8
0
  6
CONTINUOUS
 62
7
 10
53.110682
 20
110.317805
 30
0
 40
0
 41
0
  0
VERTEX
  8
0
  6
CONTINUOUS
 62
7
 10
55.727941
 20
110.479334
 30
0
 40
0
 41
0
  0
VERTEX
  8
0
  6
CONTINUOUS
 62
7
 10
58.368116
 20
110.642170
 30
0
 40
0
 41
0
  0
VERTEX
  8
0
  6
CONTINUOUS
 62
7
 10
61.031134
 20
110.806075
 30
0
 40
0
 41
0
  0
VERTEX
  8
0
  6
CONTINUOUS
 62
7
 10
63.717185
 20
110.971317
 30
0
 40
0
 41
0
  0
VERTEX
  8
0
  6
CONTINUOUS
 62
7
 10
66.425668
 20
111.136795
 30
0
 40
0
 41
0
  0
VERTEX
  8
0
  6
CONTINUOUS
 62
7
 10
69.154451
 20
111.303512
 30
0
 40
0
 41
0
  0
VERTEX
  8
0
  6
CONTINUOUS
 62
7
 10
71.905242
 20
111.474803
 30
0
 40
0
 41
0
  0
VERTEX
  8
0
  6
CONTINUOUS
 62
7
 10
74.672755
 20
111.647375
 30
0
 40
0
 41
0
  0
VERTEX
  8
0
  6
CONTINUOUS
 62
7
 10
77.460818
 20
111.836140
 30
0
 40
0
 41
0
  0
VERTEX
  8
0
  6
CONTINUOUS
 62
7
 10
80.273201
 20
112.029648
 30
0
 40
0
 41
0
  0
VERTEX
  8
0
  6
CONTINUOUS
 62
7
 10
83.107194
 20
112.233496
 30
0
 40
0
 41
0
  0
VERTEX
  8
0
  6
CONTINUOUS
 62
7
 10
85.964004
 20
112.441768
 30
0
 40
0
 41
0
  0
VERTEX
  8
0
  6
CONTINUOUS
 62
7
 10
88.842276
 20
112.656969
 30
0
 40
0
 41
0
  0
VERTEX
  8
0
  6
CONTINUOUS
 62
7
 10
91.744385
 20
112.875981
 30
0
 40
0
 41
0
  0
VERTEX
  8
0
  6
CONTINUOUS
 62
7
 10
94.668381
 20
113.095297
 30
0
 40
0
 41
0
  0
VERTEX
  8
0
  6
CONTINUOUS
 62
7
 10
97.612638
 20
113.315609
 30
0
 40
0
 41
0
  0
VERTEX
  8
0
  6
CONTINUOUS
 62
7
 10
100.577249
 20
113.537033
 30
0
 40
0
 41
0
  0
VERTEX
  8
0
  6
CONTINUOUS
 62
7
 10
103.561942
 20
113.759814
 30
0
 40
0
 41
0
  0
VERTEX
  8
0
  6
CONTINUOUS
 62
7
 10
106.566783
 20
113.984388
 30
0
 40
0
 41
0
  0
VERTEX
  8
0
  6
CONTINUOUS
 62
7
 10
109.588697
 20
114.210311
 30
0
 40
0
 41
0
  0
VERTEX
  8
0
  6
CONTINUOUS
 62
7
 10
112.630160
 20
114.445393
 30
0
 40
0
 41
0
  0
VERTEX
  8
0
  6
CONTINUOUS
 62
7
 10
115.692283
 20
114.683230
 30
0
 40
0
 41
0
  0
VERTEX
  8
0
  6
CONTINUOUS
 62
7
 10
118.774361
 20
114.928339
 30
0
 40
0
 41
0
  0
VERTEX
  8
0
  6
CONTINUOUS
 62
7
 10
121.876686
 20
115.175649
 30
0
 40
0
 41
0
  0
VERTEX
  8
0
  6
CONTINUOUS
 62
7
 10
124.998665
 20
115.428629
 30
0
 40
0
 41
0
  0
VERTEX
  8
0
  6
CONTINUOUS
 62
7
 10
128.141433
 20
115.683428
 30
0
 40
0
 41
0
  0
VERTEX
  8
0
  6
CONTINUOUS
 62
7
 10
131.303559
 20
115.940244
 30
0
 40
0
 41
0
  0
VERTEX
  8
0
  6
CONTINUOUS
 62
7
 10
134.485089
 20
116.198428
 30
0
 40
0
 41
0
  0
VERTEX
  8
0
  6
CONTINUOUS
 62
7
 10
137.685640
 20
116.457841
 30
0
 40
0
 41
0
  0
VERTEX
  8
0
  6
CONTINUOUS
 62
7
 10
140.905028
 20
116.718497
 30
0
 40
0
 41
0
  0
VERTEX
  8
0
  6
CONTINUOUS
 62
7
 10
144.142990
 20
116.980453
 30
0
 40
0
 41
0
  0
VERTEX
  8
0
  6
CONTINUOUS
 62
7
 10
147.399493
 20
117.244141
 30
0
 40
0
 41
0
  0
VERTEX
  8
0
  6
CONTINUOUS
 62
7
 10
150.672408
 20
117.509275
 30
0
 40
0
 41
0
  0
VERTEX
  8
0
  6
CONTINUOUS
 62
7
 10
153.963494
 20
117.781801
 30
0
 40
0
 41
0
  0
VERTEX
  8
0
  6
CONTINUOUS
 62
7
 10
157.274268
 20
118.056864
 30
0
 40
0
 41
0
  0
VERTEX
  8
0
  6
CONTINUOUS
 62
7
 10
159.790970
 20
118.268029
 30
0
 40
0
 41
0
  0
SEQEND
  8
0
  6
CONTINUOUS
 62
7
  0
POLYLINE
  8
0
  6
CONTINUOUS
 62
7
 66
1
 10
0
 20
0
 30
0
 70
128
 40
1.0
 41
1.0
  0
VERTEX
  8
0
  6
CONTINUOUS
 62
7
 10
736.195255
 20
235.775347
 30
0
 40
0
 41
0
  0
VERTEX
  8
0
  6
CONTINUOUS
 62
7
 10
742.282327
 20
234.562674
 30
0
 40
0
 41
0
  0
VERTEX
  8
0
  6
CONTINUOUS
 62
7
 10
748.796191
 20
233.241198
 30
0
 40
0
 41
0
  0
VERTEX
  8
0
  6
CONTINUOUS
 62
7
 10
755.337575
 20
231.883480
 30
0
 40
0
 41
0
  0
VERTEX
  8
0
  6
CONTINUOUS
 62
7
 10
761.906765
 20
230.487174
 30
0
 40
0
 41
0
  0
VERTEX
  8
0
  6
CONTINUOUS
 62
7
 10
768.503513
 20
229.040357
 30
0
 40
0
 41
0
  0
VERTEX
  8
0
  6
CONTINUOUS
 62
7
 10
775.125892
 20
227.544386
 30
0
 40
0
 41
0
  0
VERTEX
  8
0
  6
CONTINUOUS
 62
7
 10
781.772968
 20
226.014863
 30
0
 40
0
 41
0
  0
VERTEX
  8
0
  6
CONTINUOUS
 62
7
 10
788.445782
 20
224.466315
 30
0
 40
0
 41
0
  0
VERTEX
  8
0
  6
CONTINUOUS
 62
7
 10
795.146227
 20
222.899168
 30
0
 40
0
 41
0
  0
VERTEX
  8
0
  6
CONTINUOUS
 62
7
 10
801.874857
 20
221.300748
 30
0
 40
0
 41
0
  0
VERTEX
  8
0
  6
CONTINUOUS
 62
7
 10
808.631139
 20
219.663714
 30
0
 40
0
 41
0
  0
VERTEX
  8
0
  6
CONTINUOUS
 62
7
 10
815.414495
 20
217.983146
 30
0
 40
0
 41
0
  0
VERTEX
  8
0
  6
CONTINUOUS
 62
7
 10
822.224126
 20
216.260092
 30
0
 40
0
 41
0
  0
VERTEX
  8
0
  6
CONTINUOUS
 62
7
 10
829.060347
 20
214.501323
 30
0
 40
0
 41
0
  0
VERTEX
  8
0
  6
CONTINUOUS
 62
7
 10
835.923831
 20
212.702944
 30
0
 40
0
 41
0
  0
VERTEX
  8
0
  6
CONTINUOUS
 62
7
 10
842.813550
 20
210.861902
 30
0
 40
0
 41
0
  0
VERTEX
  8
0
  6
CONTINUOUS
 62
7
 10
849.728618
 20
208.990341
 30
0
 40
0
 41
0
  0
VERTEX
  8
0
  6
CONTINUOUS
 62
7
 10
856.669805
 20
207.098585
 30
0
 40
0
 41
0
  0
VERTEX
  8
0
  6
CONTINUOUS
 62
7
 10
863.638093
 20
205.186752
 30
0
 40
0
 41
0
  0
VERTEX
  8
0
  6
CONTINUOUS
 62
7
 10
870.633876
 20
203.250115
 30
0
 40
0
 41
0
  0
VERTEX
  8
0
  6
CONTINUOUS
 62
7
 10
877.657076
 20
201.282856
 30
0
 40
0
 41
0
  0
VERTEX
  8
0
  6
CONTINUOUS
 62
7
 10
884.707120
 20
199.281542
 30
0
 40
0
 41
0
  0
VERTEX
  8
0
  6
CONTINUOUS
 62
7
 10
891.783155
 20
197.249519
 30
0
 40
0
 41
0
  0
VERTEX
  8
0
  6
CONTINUOUS
 62
7
 10
898.884862
 20
195.196917
 30
0
 40
0
 41
0
  0
VERTEX
  8
0
  6
CONTINUOUS
 62
7
 10
906.013197
 20
193.131942
 30
0
 40
0
 41
0
  0
VERTEX
  8
0
  6
CONTINUOUS
 62
7
 10
913.168492
 20
191.049345
 30
0
 40
0
 41
0
  0
VERTEX
  8
0
  6
CONTINUOUS
 62
7
 10
920.350077
 20
188.952517
 30
0
 40
0
 41
0
  0
VERTEX
  8
0
  6
CONTINUOUS
 62
7
 10
927.558288
 20
186.847046
 30
0
 40
0
 41
0
  0
VERTEX
  8
0
  6
CONTINUOUS
 62
7
 10
934.793405
 20
184.730703
 30
0
 40
0
 41
0
  0
VERTEX
  8
0
  6
CONTINUOUS
 62
7
 10
942.054924
 20
182.604760
 30
0
 40
0
 41
0
  0
VERTEX
  8
0
  6
CONTINUOUS
 62
7
 10
949.342941
 20
180.475319
 30
0
 40
0
 41
0
  0
VERTEX
  8
0
  6
CONTINUOUS
 62
7
 10
956.657895
 20
178.341875
 30
0
 40
0
 41
0
  0
VERTEX
  8
0
  6
CONTINUOUS
 62
7
 10
963.999365
 20
176.203460
 30
0
 40
0
 41
0
  0
VERTEX
  8
0
  6
CONTINUOUS
 62
7
 10
971.366824
 20
174.066827
 30
0
 40
0
 41
0
  0
VERTEX
  8
0
  6
CONTINUOUS
 62
7
 10
978.760888
 20
171.939554
 30
0
 40
0
 41
0
  0
VERTEX
  8
0
  6
CONTINUOUS
 62
7
 10
986.182092
 20
169.817888
 30
0
 40
0
 41
0
  0
VERTEX
  8
0
  6
CONTINUOUS
 62
7
 10
993.630246
 20
167.700733
 30
0
 40
0
 41
0
  0
VERTEX
  8
0
  6
CONTINUOUS
 62
7
 10
1001.105411
 20
165.587609
 30
0
 40
0
 41
0
  0
VERTEX
  8
0
  6
CONTINUOUS
 62
7
 10
1008.607379
 20
163.476400
 30
0
 40
0
 41
0
  0
VERTEX
  8
0
  6
CONTINUOUS
 62
7
 10
1016.135674
 20
161.370267
 30
0
 40
0
 41
0
  0
VERTEX
  8
0
  6
CONTINUOUS
 62
7
 10
1023.690454
 20
159.275006
 30
0
 40
0
 41
0
  0
VERTEX
  8
0
  6
CONTINUOUS
 62
7
 10
1031.272210
 20
157.190899
 30
0
 40
0
 41
0
  0
VERTEX
  8
0
  6
CONTINUOUS
 62
7
 10
1038.880422
 20
155.115643
 30
0
 40
0
 41
0
  0
VERTEX
  8
0
  6
CONTINUOUS
 62
7
 10
1046.514453
 20
153.058658
 30
0
 40
0
 41
0
  0
VERTEX
  8
0
  6
CONTINUOUS
 62
7
 10
1054.175000
 20
151.028108
 30
0
 40
0
 41
0
  0
VERTEX
  8
0
  6
CONTINUOUS
 62
7
 10
1061.862817
 20
149.021280
 30
0
 40
0
 41
0
  0
VERTEX
  8
0
  6
CONTINUOUS
 62
7
 10
1069.577983
 20
147.033714
 30
0
 40
0
 41
0
  0
VERTEX
  8
0
  6
CONTINUOUS
 62
7
 10
1077.320442
 20
145.061551
 30
0
 40
0
 41
0
  0
VERTEX
  8
0
  6
CONTINUOUS
 62
7
 10
1085.089740
 20
143.101369
 30
0
 40
0
 41
0
  0
VERTEX
  8
0
  6
CONTINUOUS
 62
7
 10
1092.885253
 20
141.157208
 30
0
 40
0
 41
0
  0
VERTEX
  8
0
  6
CONTINUOUS
 62
7
 10
1100.707164
 20
139.236091
 30
0
 40
0
 41
0
  0
VERTEX
  8
0
  6
CONTINUOUS
 62
7
 10
1108.556122
 20
137.338671
 30
0
 40
0
 41
0
  0
VERTEX
  8
0
  6
CONTINUOUS
 62
7
 10
1116.431668
 20
135.461039
 30
0
 40
0
 41
0
  0
VERTEX
  8
0
  6
CONTINUOUS
 62
7
 10
1124.333066
 20
133.612057
 30
0
 40
0
 41
0
  0
VERTEX
  8
0
  6
CONTINUOUS
 62
7
 10
1132.261030
 20
131.800121
 30
0
 40
0
 41
0
  0
VERTEX
  8
0
  6
CONTINUOUS
 62
7
 10
1140.216146
 20
130.021575
 30
0
 40
0
 41
0
  0
VERTEX
  8
0
  6
CONTINUOUS
 62
7
 10
1148.198104
 20
128.275041
 30
0
 40
0
 41
0
  0
SEQEND
  8
0
  6
CONTINUOUS
 62
7
  0
POLYLINE
  8
0
  6
CONTINUOUS
 62
7
 66
1
 10
0
 20
0
 30
0
 70
128
 40
1.0
 41
1.0
  0
VERTEX
  8
0
  6
CONTINUOUS
 62
7
 10
159.916388
 20
116.773282
 30
0
 40
0
 41
0
  0
VERTEX
  8
0
  6
CONTINUOUS
 62
7
 10
160.728898
 20
116.841456
 30
0
 40
0
 41
0
  0
VERTEX
  8
0
  6
CONTINUOUS
 62
7
 10
164.077398
 20
117.121870
 30
0
 40
0
 41
0
  0
VERTEX
  8
0
  6
CONTINUOUS
 62
7
 10
167.443923
 20
117.403261
 30
0
 40
0
 41
0
  0
VERTEX
  8
0
  6
CONTINUOUS
 62
7
 10
170.828327
 20
117.686103
 30
0
 40
0
 41
0
  0
VERTEX
  8
0
  6
CONTINUOUS
 62
7
 10
174.230584
 20
117.970426
 30
0
 40
0
 41
0
  0
VERTEX
  8
0
  6
CONTINUOUS
 62
7
 10
177.650606
 20
118.256235
 30
0
 40
0
 41
0
  0
VERTEX
  8
0
  6
CONTINUOUS
 62
7
 10
181.088302
 20
118.543520
 30
0
 40
0
 41
0
  0
VERTEX
  8
0
  6
CONTINUOUS
 62
7
 10
184.543584
 20
118.832274
 30
0
 40
0
 41
0
  0
VERTEX
  8
0
  6
CONTINUOUS
 62
7
 10
188.016361
 20
119.122487
 30
0
 40
0
 41
0
  0
VERTEX
  8
0
  6
CONTINUOUS
 62
7
 10
191.506545
 20
119.414153
 30
0
 40
0
 41
0
  0
VERTEX
  8
0
  6
CONTINUOUS
 62
7
 10
195.014051
 20
119.707264
 30
0
 40
0
 41
0
  0
VERTEX
  8
0
  6
CONTINUOUS
 62
7
 10
198.538792
 20
120.001815
 30
0
 40
0
 41
0
  0
VERTEX
  8
0
  6
CONTINUOUS
 62
7
 10
202.080686
 20
120.297799
 30
0
 40
0
 41
0
  0
VERTEX
  8
0
  6
CONTINUOUS
 62
7
 10
205.639645
 20
120.595207
 30
0
 40
0
 41
0
  0
VERTEX
  8
0
  6
CONTINUOUS
 62
7
 10
209.215561
 20
120.894057
 30
0
 40
0
 41
0
  0
VERTEX
  8
0
  6
CONTINUOUS
 62
7
 10
212.808391
 20
121.194549
 30
0
 40
0
 41
0
  0
VERTEX
  8
0
  6
CONTINUOUS
 62
7
 10
216.418084
 20
121.496432
 30
0
 40
0
 41
0
  0
VERTEX
  8
0
  6
CONTINUOUS
 62
7
 10
220.044745
 20
121.799713
 30
0
 40
0
 41
0
  0
VERTEX
  8
0
  6
CONTINUOUS
 62
7
 10
223.688171
 20
122.102777
 30
0
 40
0
 41
0
  0
VERTEX
  8
0
  6
CONTINUOUS
 62
7
 10
227.348137
 20
122.406508
 30
0
 40
0
 41
0
  0
VERTEX
  8
0
  6
CONTINUOUS
 62
7
 10
231.024639
 20
122.710408
 30
0
 40
0
 41
0
  0
VERTEX
  8
0
  6
CONTINUOUS
 62
7
 10
234.717497
 20
123.014848
 30
0
 40
0
 41
0
  0
VERTEX
  8
0
  6
CONTINUOUS
 62
7
 10
238.426775
 20
123.320122
 30
0
 40
0
 41
0
  0
VERTEX
  8
0
  6
CONTINUOUS
 62
7
 10
242.152307
 20
123.625582
 30
0
 40
0
 41
0
  0
VERTEX
  8
0
  6
CONTINUOUS
 62
7
 10
245.893930
 20
123.932204
 30
0
 40
0
 41
0
  0
VERTEX
  8
0
  6
CONTINUOUS
 62
7
 10
249.651553
 20
124.240056
 30
0
 40
0
 41
0
  0
VERTEX
  8
0
  6
CONTINUOUS
 62
7
 10
253.425324
 20
124.550308
 30
0
 40
0
 41
0
  0
VERTEX
  8
0
  6
CONTINUOUS
 62
7
 10
257.215327
 20
124.861401
 30
0
 40
0
 41
0
  0
VERTEX
  8
0
  6
CONTINUOUS
 62
7
 10
261.021704
 20
125.173328
 30
0
 40
0
 41
0
  0
VERTEX
  8
0
  6
CONTINUOUS
 62
7
 10
264.844085
 20
125.482858
 30
0
 40
0
 41
0
  0
VERTEX
  8
0
  6
CONTINUOUS
 62
7
 10
268.682012
 20
125.792251
 30
0
 40
0
 41
0
  0
VERTEX
  8
0
  6
CONTINUOUS
 62
7
 10
272.535658
 20
126.101343
 30
0
 40
0
 41
0
  0
VERTEX
  8
0
  6
CONTINUOUS
 62
7
 10
276.404885
 20
126.410601
 30
0
 40
0
 41
0
  0
VERTEX
  8
0
  6
CONTINUOUS
 62
7
 10
280.289706
 20
126.720422
 30
0
 40
0
 41
0
  0
VERTEX
  8
0
  6
CONTINUOUS
 62
7
 10
284.190056
 20
127.030697
 30
0
 40
0
 41
0
  0
VERTEX
  8
0
  6
CONTINUOUS
 62
7
 10
288.105713
 20
127.341818
 30
0
 40
0
 41
0
  0
VERTEX
  8
0
  6
CONTINUOUS
 62
7
 10
292.036651
 20
127.654956
 30
0
 40
0
 41
0
  0
VERTEX
  8
0
  6
CONTINUOUS
 62
7
 10
295.983163
 20
127.970288
 30
0
 40
0
 41
0
  0
VERTEX
  8
0
  6
CONTINUOUS
 62
7
 10
299.945556
 20
128.286199
 30
0
 40
0
 41
0
  0
VERTEX
  8
0
  6
CONTINUOUS
 62
7
 10
303.923578
 20
128.599862
 30
0
 40
0
 41
0
  0
VERTEX
  8
0
  6
CONTINUOUS
 62
7
 10
307.917163
 20
128.911130
 30
0
 40
0
 41
0
  0
VERTEX
  8
0
  6
CONTINUOUS
 62
7
 10
311.925556
 20
129.217190
 30
0
 40
0
 41
0
  0
VERTEX
  8
0
  6
CONTINUOUS
 62
7
 10
315.948278
 20
129.523460
 30
0
 40
0
 41
0
  0
VERTEX
  8
0
  6
CONTINUOUS
 62
7
 10
319.985717
 20
129.830683
 30
0
 40
0
 41
0
  0
VERTEX
  8
0
  6
CONTINUOUS
 62
7
 10
324.038151
 20
130.140779
 30
0
 40
0
 41
0
  0
VERTEX
  8
0
  6
CONTINUOUS
 62
7
 10
328.105853
 20
130.451781
 30
0
 40
0
 41
0
  0
VERTEX
  8
0
  6
CONTINUOUS
 62
7
 10
332.188649
 20
130.762866
 30
0
 40
0
 41
0
  0
VERTEX
  8
0
  6
CONTINUOUS
 62
7
 10
336.286422
 20
131.072991
 30
0
 40
0
 41
0
  0
VERTEX
  8
0
  6
CONTINUOUS
 62
7
 10
340.398928
 20
131.381842
 30
0
 40
0
 41
0
  0
VERTEX
  8
0
  6
CONTINUOUS
 62
7
 10
344.526108
 20
131.689934
 30
0
 40
0
 41
0
  0
VERTEX
  8
0
  6
CONTINUOUS
 62
7
 10
348.668259
 20
131.997061
 30
0
 40
0
 41
0
  0
VERTEX
  8
0
  6
CONTINUOUS
 62
7
 10
352.825119
 20
132.300803
 30
0
 40
0
 41
0
  0
VERTEX
  8
0
  6
CONTINUOUS
 62
7
 10
356.996172
 20
132.602632
 30
0
 40
0
 41
0
  0
VERTEX
  8
0
  6
CONTINUOUS
 62
7
 10
361.181405
 20
132.904050
 30
0
 40
0
 41
0
  0
VERTEX
  8
0
  6
CONTINUOUS
 62
7
 10
365.380556
 20
133.206254
 30
0
 40
0
 41
0
  0
VERTEX
  8
0
  6
CONTINUOUS
 62
7
 10
369.594111
 20
133.512623
 30
0
 40
0
 41
0
  0
VERTEX
  8
0
  6
CONTINUOUS
 62
7
 10
373.822605
 20
133.819893
 30
0
 40
0
 41
0
  0
VERTEX
  8
0
  6
CONTINUOUS
 62
7
 10
378.066220
 20
134.126439
 30
0
 40
0
 41
0
  0
VERTEX
  8
0
  6
CONTINUOUS
 62
7
 10
382.324851
 20
134.426916
 30
0
 40
0
 41
0
  0
VERTEX
  8
0
  6
CONTINUOUS
 62
7
 10
386.597312
 20
134.720030
 30
0
 40
0
 41
0
  0
VERTEX
  8
0
  6
CONTINUOUS
 62
7
 10
390.883209
 20
135.010166
 30
0
 40
0
 41
0
  0
VERTEX
  8
0
  6
CONTINUOUS
 62
7
 10
395.182510
 20
135.299142
 30
0
 40
0
 41
0
  0
VERTEX
  8
0
  6
CONTINUOUS
 62
7
 10
399.495444
 20
135.591329
 30
0
 40
0
 41
0
  0
VERTEX
  8
0
  6
CONTINUOUS
 62
7
 10
403.822758
 20
135.886244
 30
0
 40
0
 41
0
  0
VERTEX
  8
0
  6
CONTINUOUS
 62
7
 10
408.164553
 20
136.181380
 30
0
 40
0
 41
0
  0
VERTEX
  8
0
  6
CONTINUOUS
 62
7
 10
412.521078
 20
136.474909
 30
0
 40
0
 41
0
  0
VERTEX
  8
0
  6
CONTINUOUS
 62
7
 10
416.891733
 20
136.761641
 30
0
 40
0
 41
0
  0
VERTEX
  8
0
  6
CONTINUOUS
 62
7
 10
421.275715
 20
137.044522
 30
0
 40
0
 41
0
  0
VERTEX
  8
0
  6
CONTINUOUS
 62
7
 10
425.673220
 20
137.325100
 30
0
 40
0
 41
0
  0
VERTEX
  8
0
  6
CONTINUOUS
 62
7
 10
430.084281
 20
137.604291
 30
0
 40
0
 41
0
  0
VERTEX
  8
0
  6
CONTINUOUS
 62
7
 10
434.509017
 20
137.882995
 30
0
 40
0
 41
0
  0
VERTEX
  8
0
  6
CONTINUOUS
 62
7
 10
438.947549
 20
138.160684
 30
0
 40
0
 41
0
  0
VERTEX
  8
0
  6
CONTINUOUS
 62
7
 10
443.399825
 20
138.436813
 30
0
 40
0
 41
0
  0
VERTEX
  8
0
  6
CONTINUOUS
 62
7
 10
447.865841
 20
138.710916
 30
0
 40
0
 41
0
  0
VERTEX
  8
0
  6
CONTINUOUS
 62
7
 10
452.345466
 20
138.982096
 30
0
 40
0
 41
0
  0
VERTEX
  8
0
  6
CONTINUOUS
 62
7
 10
456.838570
 20
139.250668
 30
0
 40
0
 41
0
  0
VERTEX
  8
0
  6
CONTINUOUS
 62
7
 10
461.345201
 20
139.516570
 30
0
 40
0
 41
0
  0
VERTEX
  8
0
  6
CONTINUOUS
 62
7
 10
465.865365
 20
139.779304
 30
0
 40
0
 41
0
  0
VERTEX
  8
0
  6
CONTINUOUS
 62
7
 10
470.399063
 20
140.038396
 30
0
 40
0
 41
0
  0
VERTEX
  8
0
  6
CONTINUOUS
 62
7
 10
474.945915
 20
140.292937
 30
0
 40
0
 41
0
  0
VERTEX
  8
0
  6
CONTINUOUS
 62
7
 10
479.505683
 20
140.545545
 30
0
 40
0
 41
0
  0
VERTEX
  8
0
  6
CONTINUOUS
 62
7
 10
484.078570
 20
140.797195
 30
0
 40
0
 41
0
  0
VERTEX
  8
0
  6
CONTINUOUS
 62
7
 10
488.664694
 20
141.048320
 30
0
 40
0
 41
0
  0
VERTEX
  8
0
  6
CONTINUOUS
 62
7
 10
493.264488
 20
141.298472
 30
0
 40
0
 41
0
  0
VERTEX
  8
0
  6
CONTINUOUS
 62
7
 10
497.877982
 20
141.543730
 30
0
 40
0
 41
0
  0
VERTEX
  8
0
  6
CONTINUOUS
 62
7
 10
502.504678
 20
141.782926
 30
0
 40
0
 41
0
  0
VERTEX
  8
0
  6
CONTINUOUS
 62
7
 10
507.144307
 20
142.016372
 30
0
 40
0
 41
0
  0
VERTEX
  8
0
  6
CONTINUOUS
 62
7
 10
511.796698
 20
142.245071
 30
0
 40
0
 41
0
  0
VERTEX
  8
0
  6
CONTINUOUS
 62
7
 10
516.461619
 20
142.470609
 30
0
 40
0
 41
0
  0
VERTEX
  8
0
  6
CONTINUOUS
 62
7
 10
521.139134
 20
142.695860
 30
0
 40
0
 41
0
  0
VERTEX
  8
0
  6
CONTINUOUS
 62
7
 10
525.829755
 20
142.921521
 30
0
 40
0
 41
0
  0
VERTEX
  8
0
  6
CONTINUOUS
 62
7
 10
530.533821
 20
143.145355
 30
0
 40
0
 41
0
  0
VERTEX
  8
0
  6
CONTINUOUS
 62
7
 10
535.251416
 20
143.364485
 30
0
 40
0
 41
0
  0
VERTEX
  8
0
  6
CONTINUOUS
 62
7
 10
539.982429
 20
143.575484
 30
0
 40
0
 41
0
  0
VERTEX
  8
0
  6
CONTINUOUS
 62
7
 10
544.725901
 20
143.776084
 30
0
 40
0
 41
0
  0
VERTEX
  8
0
  6
CONTINUOUS
 62
7
 10
549.481341
 20
143.971629
 30
0
 40
0
 41
0
  0
VERTEX
  8
0
  6
CONTINUOUS
 62
7
 10
554.249068
 20
144.164284
 30
0
 40
0
 41
0
  0
VERTEX
  8
0
  6
CONTINUOUS
 62
7
 10
559.029144
 20
144.356092
 30
0
 40
0
 41
0
  0
VERTEX
  8
0
  6
CONTINUOUS
 62
7
 10
563.822027
 20
144.548331
 30
0
 40
0
 41
0
  0
VERTEX
  8
0
  6
CONTINUOUS
 62
7
 10
568.628375
 20
144.738361
 30
0
 40
0
 41
0
  0
VERTEX
  8
0
  6
CONTINUOUS
 62
7
 10
573.448080
 20
144.920765
 30
0
 40
0
 41
0
  0
VERTEX
  8
0
  6
CONTINUOUS
 62
7
 10
578.280424
 20
145.093507
 30
0
 40
0
 41
0
  0
VERTEX
  8
0
  6
CONTINUOUS
 62
7
 10
583.124959
 20
145.257744
 30
0
 40
0
 41
0
  0
VERTEX
  8
0
  6
CONTINUOUS
 62
7
 10
587.981563
 20
145.415505
 30
0
 40
0
 41
0
  0
VERTEX
  8
0
  6
CONTINUOUS
 62
7
 10
592.850199
 20
145.568857
 30
0
 40
0
 41
0
  0
VERTEX
  8
0
  6
CONTINUOUS
 62
7
 10
597.730928
 20
145.719911
 30
0
 40
0
 41
0
  0
VERTEX
  8
0
  6
CONTINUOUS
 62
7
 10
602.624177
 20
145.869876
 30
0
 40
0
 41
0
  0
VERTEX
  8
0
  6
CONTINUOUS
 62
7
 10
607.530296
 20
146.016386
 30
0
 40
0
 41
0
  0
VERTEX
  8
0
  6
CONTINUOUS
 62
7
 10
612.449160
 20
146.156878
 30
0
 40
0
 41
0
  0
VERTEX
  8
0
  6
CONTINUOUS
 62
7
 10
617.380469
 20
146.289856
 30
0
 40
0
 41
0
  0
VERTEX
  8
0
  6
CONTINUOUS
 62
7
 10
622.323865
 20
146.415383
 30
0
 40
0
 41
0
  0
VERTEX
  8
0
  6
CONTINUOUS
 62
7
 10
627.279401
 20
146.535213
 30
0
 40
0
 41
0
  0
VERTEX
  8
0
  6
CONTINUOUS
 62
7
 10
632.247059
 20
146.648586
 30
0
 40
0
 41
0
  0
VERTEX
  8
0
  6
CONTINUOUS
 62
7
 10
637.226650
 20
146.757153
 30
0
 40
0
 41
0
  0
VERTEX
  8
0
  6
CONTINUOUS
 62
7
 10
642.218345
 20
146.861754
 30
0
 40
0
 41
0
  0
VERTEX
  8
0
  6
CONTINUOUS
 62
7
 10
647.222282
 20
146.962050
 30
0
 40
0
 41
0
  0
VERTEX
  8
0
  6
CONTINUOUS
 62
7
 10
652.238429
 20
147.057191
 30
0
 40
0
 41
0
  0
VERTEX
  8
0
  6
CONTINUOUS
 62
7
 10
657.266532
 20
147.146865
 30
0
 40
0
 41
0
  0
VERTEX
  8
0
  6
CONTINUOUS
 62
7
 10
662.306535
 20
147.232471
 30
0
 40
0
 41
0
  0
VERTEX
  8
0
  6
CONTINUOUS
 62
7
 10
667.358908
 20
147.314002
 30
0
 40
0
 41
0
  0
VERTEX
  8
0
  6
CONTINUOUS
 62
7
 10
672.423871
 20
147.387804
 30
0
 40
0
 41
0
  0
VERTEX
  8
0
  6
CONTINUOUS
 62
7
 10
677.500849
 20
147.451318
 30
0
 40
0
 41
0
  0
VERTEX
  8
0
  6
CONTINUOUS
 62
7
 10
682.589350
 20
147.506407
 30
0
 40
0
 41
0
  0
VERTEX
  8
0
  6
CONTINUOUS
 62
7
 10
687.689393
 20
147.555232
 30
0
 40
0
 41
0
  0
VERTEX
  8
0
  6
CONTINUOUS
 62
7
 10
692.801017
 20
147.599215
 30
0
 40
0
 41
0
  0
VERTEX
  8
0
  6
CONTINUOUS
 62
7
 10
697.924028
 20
147.639855
 30
0
 40
0
 41
0
  0
VERTEX
  8
0
  6
CONTINUOUS
 62
7
 10
703.058380
 20
147.680318
 30
0
 40
0
 41
0
  0
VERTEX
  8
0
  6
CONTINUOUS
 62
7
 10
708.205355
 20
147.722314
 30
0
 40
0
 41
0
  0
VERTEX
  8
0
  6
CONTINUOUS
 62
7
 10
713.365925
 20
147.755570
 30
0
 40
0
 41
0
  0
VERTEX
  8
0
  6
CONTINUOUS
 62
7
 10
718.538857
 20
147.771389
 30
0
 40
0
 41
0
  0
VERTEX
  8
0
  6
CONTINUOUS
 62
7
 10
723.722656
 20
147.771848
 30
0
 40
0
 41
0
  0
VERTEX
  8
0
  6
CONTINUOUS
 62
7
 10
728.917061
 20
147.763463
 30
0
 40
0
 41
0
  0
VERTEX
  8
0
  6
CONTINUOUS
 62
7
 10
734.122477
 20
147.750826
 30
0
 40
0
 41
0
  0
VERTEX
  8
0
  6
CONTINUOUS
 62
7
 10
739.339234
 20
147.736025
 30
0
 40
0
 41
0
  0
VERTEX
  8
0
  6
CONTINUOUS
 62
7
 10
744.567686
 20
147.719965
 30
0
 40
0
 41
0
  0
VERTEX
  8
0
  6
CONTINUOUS
 62
7
 10
749.808018
 20
147.700782
 30
0
 40
0
 41
0
  0
VERTEX
  8
0
  6
CONTINUOUS
 62
7
 10
755.060128
 20
147.677161
 30
0
 40
0
 41
0
  0
VERTEX
  8
0
  6
CONTINUOUS
 62
7
 10
760.324095
 20
147.648028
 30
0
 40
0
 41
0
  0
VERTEX
  8
0
  6
CONTINUOUS
 62
7
 10
765.600465
 20
147.610948
 30
0
 40
0
 41
0
  0
VERTEX
  8
0
  6
CONTINUOUS
 62
7
 10
770.888712
 20
147.558781
 30
0
 40
0
 41
0
  0
VERTEX
  8
0
  6
CONTINUOUS
 62
7
 10
776.187619
 20
147.494361
 30
0
 40
0
 41
0
  0
VERTEX
  8
0
  6
CONTINUOUS
 62
7
 10
781.497066
 20
147.423176
 30
0
 40
0
 41
0
  0
VERTEX
  8
0
  6
CONTINUOUS
 62
7
 10
786.817643
 20
147.349092
 30
0
 40
0
 41
0
  0
VERTEX
  8
0
  6
CONTINUOUS
 62
7
 10
792.149927
 20
147.271116
 30
0
 40
0
 41
0
  0
VERTEX
  8
0
  6
CONTINUOUS
 62
7
 10
797.493715
 20
147.186711
 30
0
 40
0
 41
0
  0
VERTEX
  8
0
  6
CONTINUOUS
 62
7
 10
802.848647
 20
147.096787
 30
0
 40
0
 41
0
  0
VERTEX
  8
0
  6
CONTINUOUS
 62
7
 10
808.214741
 20
147.002397
 30
0
 40
0
 41
0
  0
VERTEX
  8
0
  6
CONTINUOUS
 62
7
 10
813.592196
 20
146.904006
 30
0
 40
0
 41
0
  0
VERTEX
  8
0
  6
CONTINUOUS
 62
7
 10
818.981222
 20
146.800278
 30
0
 40
0
 41
0
  0
VERTEX
  8
0
  6
CONTINUOUS
 62
7
 10
824.381777
 20
146.689141
 30
0
 40
0
 41
0
  0
VERTEX
  8
0
  6
CONTINUOUS
 62
7
 10
829.793976
 20
146.569457
 30
0
 40
0
 41
0
  0
VERTEX
  8
0
  6
CONTINUOUS
 62
7
 10
835.217770
 20
146.437614
 30
0
 40
0
 41
0
  0
VERTEX
  8
0
  6
CONTINUOUS
 62
7
 10
840.652470
 20
146.292762
 30
0
 40
0
 41
0
  0
VERTEX
  8
0
  6
CONTINUOUS
 62
7
 10
846.097554
 20
146.138511
 30
0
 40
0
 41
0
  0
VERTEX
  8
0
  6
CONTINUOUS
 62
7
 10
851.553066
 20
145.979474
 30
0
 40
0
 41
0
  0
VERTEX
  8
0
  6
CONTINUOUS
 62
7
 10
857.019489
 20
145.818545
 30
0
 40
0
 41
0
  0
VERTEX
  8
0
  6
CONTINUOUS
 62
7
 10
862.497295
 20
145.654841
 30
0
 40
0
 41
0
  0
VERTEX
  8
0
  6
CONTINUOUS
 62
7
 10
867.986572
 20
145.485839
 30
0
 40
0
 41
0
  0
VERTEX
  8
0
  6
CONTINUOUS
 62
7
 10
873.487253
 20
145.309439
 30
0
 40
0
 41
0
  0
VERTEX
  8
0
  6
CONTINUOUS
 62
7
 10
878.999242
 20
145.123578
 30
0
 40
0
 41
0
  0
VERTEX
  8
0
  6
CONTINUOUS
 62
7
 10
884.522282
 20
144.926976
 30
0
 40
0
 41
0
  0
VERTEX
  8
0
  6
CONTINUOUS
 62
7
 10
890.056114
 20
144.720136
 30
0
 40
0
 41
0
  0
VERTEX
  8
0
  6
CONTINUOUS
 62
7
 10
895.600665
 20
144.504415
 30
0
 40
0
 41
0
  0
VERTEX
  8
0
  6
CONTINUOUS
 62
7
 10
901.156108
 20
144.280878
 30
0
 40
0
 41
0
  0
VERTEX
  8
0
  6
CONTINUOUS
 62
7
 10
906.722690
 20
144.048719
 30
0
 40
0
 41
0
  0
VERTEX
  8
0
  6
CONTINUOUS
 62
7
 10
912.300106
 20
143.806028
 30
0
 40
0
 41
0
  0
VERTEX
  8
0
  6
CONTINUOUS
 62
7
 10
917.887947
 20
143.555177
 30
0
 40
0
 41
0
  0
VERTEX
  8
0
  6
CONTINUOUS
 62
7
 10
923.486193
 20
143.298605
 30
0
 40
0
 41
0
  0
VERTEX
  8
0
  6
CONTINUOUS
 62
7
 10
929.095124
 20
143.038682
 30
0
 40
0
 41
0
  0
VERTEX
  8
0
  6
CONTINUOUS
 62
7
 10
934.715147
 20
142.774444
 30
0
 40
0
 41
0
  0
VERTEX
  8
0
  6
CONTINUOUS
 62
7
 10
940.346376
 20
142.503462
 30
0
 40
0
 41
0
  0
VERTEX
  8
0
  6
CONTINUOUS
 62
7
 10
945.988804
 20
142.223242
 30
0
 40
0
 41
0
  0
VERTEX
  8
0
  6
CONTINUOUS
 62
7
 10
951.642323
 20
141.931184
 30
0
 40
0
 41
0
  0
VERTEX
  8
0
  6
CONTINUOUS
 62
7
 10
957.306539
 20
141.625776
 30
0
 40
0
 41
0
  0
VERTEX
  8
0
  6
CONTINUOUS
 62
7
 10
962.981078
 20
141.308647
 30
0
 40
0
 41
0
  0
VERTEX
  8
0
  6
CONTINUOUS
 62
7
 10
968.665842
 20
140.982335
 30
0
 40
0
 41
0
  0
VERTEX
  8
0
  6
CONTINUOUS
 62
7
 10
974.361125
 20
140.649339
 30
0
 40
0
 41
0
  0
VERTEX
  8
0
  6
CONTINUOUS
 62
7
 10
980.067206
 20
140.308605
 30
0
 40
0
 41
0
  0
VERTEX
  8
0
  6
CONTINUOUS
 62
7
 10
985.783882
 20
139.959241
 30
0
 40
0
 41
0
  0
VERTEX
  8
0
  6
CONTINUOUS
 62
7
 10
991.510913
 20
139.602310
 30
0
 40
0
 41
0
  0
VERTEX
  8
0
  6
CONTINUOUS
 62
7
 10
997.248258
 20
139.239477
 30
0
 40
0
 41
0
  0
VERTEX
  8
0
  6
CONTINUOUS
 62
7
 10
1002.996077
 20
138.872025
 30
0
 40
0
 41
0
  0
VERTEX
  8
0
  6
CONTINUOUS
 62
7
 10
1008.754595
 20
138.499541
 30
0
 40
0
 41
0
  0
VERTEX
  8
0
  6
CONTINUOUS
 62
7
 10
1014.523905
 20
138.120495
 30
0
 40
0
 41
0
  0
VERTEX
  8
0
  6
CONTINUOUS
 62
7
 10
1020.304012
 20
137.733167
 30
0
 40
0
 41
0
  0
VERTEX
  8
0
  6
CONTINUOUS
 62
7
 10
1026.094854
 20
137.335727
 30
0
 40
0
 41
0
  0
VERTEX
  8
0
  6
CONTINUOUS
 62
7
 10
1031.896170
 20
136.926961
 30
0
 40
0
 41
0
  0
VERTEX
  8
0
  6
CONTINUOUS
 62
7
 10
1037.707643
 20
136.507880
 30
0
 40
0
 41
0
  0
VERTEX
  8
0
  6
CONTINUOUS
 62
7
 10
1043.529145
 20
136.080733
 30
0
 40
0
 41
0
  0
VERTEX
  8
0
  6
CONTINUOUS
 62
7
 10
1049.360806
 20
135.647832
 30
0
 40
0
 41
0
  0
VERTEX
  8
0
  6
CONTINUOUS
 62
7
 10
1055.202889
 20
135.209650
 30
0
 40
0
 41
0
  0
VERTEX
  8
0
  6
CONTINUOUS
 62
7
 10
1061.055457
 20
134.765218
 30
0
 40
0
 41
0
  0
VERTEX
  8
0
  6
CONTINUOUS
 62
7
 10
1066.918416
 20
134.314065
 30
0
 40
0
 41
0
  0
VERTEX
  8
0
  6
CONTINUOUS
 62
7
 10
1072.791699
 20
133.856119
 30
0
 40
0
 41
0
  0
VERTEX
  8
0
  6
CONTINUOUS
 62
7
 10
1078.675261
 20
133.391483
 30
0
 40
0
 41
0
  0
VERTEX
  8
0
  6
CONTINUOUS
 62
7
 10
1084.569147
 20
132.920384
 30
0
 40
0
 41
0
  0
VERTEX
  8
0
  6
CONTINUOUS
 62
7
 10
1090.473451
 20
132.442180
 30
0
 40
0
 41
0
  0
VERTEX
  8
0
  6
CONTINUOUS
 62
7
 10
1096.388197
 20
131.955756
 30
0
 40
0
 41
0
  0
VERTEX
  8
0
  6
CONTINUOUS
 62
7
 10
1102.313338
 20
131.459969
 30
0
 40
0
 41
0
  0
VERTEX
  8
0
  6
CONTINUOUS
 62
7
 10
1108.248745
 20
130.954041
 30
0
 40
0
 41
0
  0
VERTEX
  8
0
  6
CONTINUOUS
 62
7
 10
1114.194281
 20
130.438190
 30
0
 40
0
 41
0
  0
VERTEX
  8
0
  6
CONTINUOUS
 62
7
 10
1120.149889
 20
129.913057
 30
0
 40
0
 41
0
  0
VERTEX
  8
0
  6
CONTINUOUS
 62
7
 10
1126.115572
 20
129.379321
 30
0
 40
0
 41
0
  0
VERTEX
  8
0
  6
CONTINUOUS
 62
7
 10
1132.091433
 20
128.837367
 30
0
 40
0
 41
0
  0
VERTEX
  8
0
  6
CONTINUOUS
 62
7
 10
1138.077500
 20
128.286437
 30
0
 40
0
 41
0
  0
VERTEX
  8
0
  6
CONTINUOUS
 62
7
 10
1144.073685
 20
127.726380
 30
0
 40
0
 41
0
  0
VERTEX
  8
0
  6
CONTINUOUS
 62
7
 10
1150.079948
 20
127.157296
 30
0
 40
0
 41
0
  0
SEQEND
  8
0
  6
CONTINUOUS
 62
7
  0
POLYLINE
  8
0
  6
CONTINUOUS
 62
7
 66
1
 10
0
 20
0
 30
0
 70
128
 40
1.0
 41
1.0
  0
VERTEX
  8
0
  6
CONTINUOUS
 62
7
 10
74.246982
 20
206.273106
 30
0
 40
0
 41
0
  0
VERTEX
  8
0
  6
CONTINUOUS
 62
7
 10
78.938662
 20
208.001731
 30
0
 40
0
 41
0
  0
VERTEX
  8
0
  6
CONTINUOUS
 62
7
 10
78.247212
 20
209.878402
 30
0
 40
0
 41
0
  0
VERTEX
  8
0
  6
CONTINUOUS
 62
7
 10
73.555532
 20
208.149778
 30
0
 40
0
 41
0
  0
SEQEND
  8
0
  6
CONTINUOUS
 62
7
  0
POLYLINE
  8
0
  6
CONTINUOUS
 62
7
 66
1
 10
0
 20
0
 30
0
 70
128
 40
1.0
 41
1.0
  0
VERTEX
  8
0
  6
CONTINUOUS
 62
7
 10
192.641076
 20
237.790792
 30
0
 40
0
 41
0
  0
VERTEX
  8
0
  6
CONTINUOUS
 62
7
 10
197.556528
 20
238.706397
 30
0
 40
0
 41
0
  0
VERTEX
  8
0
  6
CONTINUOUS
 62
7
 10
197.190286
 20
240.672578
 30
0
 40
0
 41
0
  0
VERTEX
  8
0
  6
CONTINUOUS
 62
7
 10
192.274834
 20
239.756973
 30
0
 40
0
 41
0
  0
SEQEND
  8
0
  6
CONTINUOUS
 62
7
  0
POLYLINE
  8
0
  6
CONTINUOUS
 62
7
 66
1
 10
0
 20
0
 30
0
 70
128
 40
1.0
 41
1.0
  0
VERTEX
  8
0
  6
CONTINUOUS
 62
7
 10
371.306229
 20
256.241180
 30
0
 40
0
 41
0
  0
VERTEX
  8
0
  6
CONTINUOUS
 62
7
 10
376.303050
 20
256.419445
 30
0
 40
0
 41
0
  0
VERTEX
  8
0
  6
CONTINUOUS
 62
7
 10
376.231744
 20
258.418173
 30
0
 40
0
 41
0
  0
VERTEX
  8
0
  6
CONTINUOUS
 62
7
 10
371.234923
 20
258.239908
 30
0
 40
0
 41
0
  0
SEQEND
  8
0
  6
CONTINUOUS
 62
7
  0
POLYLINE
  8
0
  6
CONTINUOUS
 62
7
 66
1
 10
0
 20
0
 30
0
 70
128
 40
1.0
 41
1.0
  0
VERTEX
  8
0
  6
CONTINUOUS
 62
7
 10
744.820057
 20
240.685825
 30
0
 40
0
 41
0
  0
VERTEX
  8
0
  6
CONTINUOUS
 62
7
 10
737.464413
 20
242.150238
 30
0
 40
0
 41
0
  0
VERTEX
  8
0
  6
CONTINUOUS
 62
7
 10
737.073903
 20
240.188733
 30
0
 40
0
 41
0
  0
VERTEX
  8
0
  6
CONTINUOUS
 62
7
 10
741.977665
 20
239.212458
 30
0
 40
0
 41
0
  0
SEQEND
  8
0
  6
CONTINUOUS
 62
7
  0
POLYLINE
  8
0
  6
CONTINUOUS
 62
7
 66
1
 10
0
 20
0
 30
0
 70
128
 40
1.0
 41
1.0
  0
VERTEX
  8
0
  6
CONTINUOUS
 62
7
 10
20.835759
 20
114.788062
 30
0
 40
0
 41
0
  0
VERTEX
  8
0
  6
CONTINUOUS
 62
7
 10
15.836682
 20
114.691993
 30
0
 40
0
 41
0
  0
VERTEX
  8
0
  6
CONTINUOUS
 62
7
 10
15.875110
 20
112.692362
 30
0
 40
0
 41
0
  0
VERTEX
  8
0
  6
CONTINUOUS
 62
7
 10
20.874187
 20
112.788432
 30
0
 40
0
 41
0
  0
SEQEND
  8
0
  6
CONTINUOUS
 62
7
  0
POLYLINE
  8
0
  6
CONTINUOUS
 62
7
 66
1
 10
0
 20
0
 30
0
 70
128
 40
1.0
 41
1.0
  0
VERTEX
  8
0
  6
CONTINUOUS
 62
7
 10
164.188179
 20
125.661578
 30
0
 40
0
 41
0
  0
VERTEX
  8
0
  6
CONTINUOUS
 62
7
 10
159.205687
 20
125.243518
 30
0
 40
0
 41
0
  0
VERTEX
  8
0
  6
CONTINUOUS
 62
7
 10
159.372911
 20
123.250521
 30
0
 40
0
 41
0
  0
VERTEX
  8
0
  6
CONTINUOUS
 62
7
 10
166.846649
 20
123.877611
 30
0
 40
0
 41
0
  0
SEQEND
  8
0
  6
CONTINUOUS
 62
7
  0
POLYLINE
  8
0
  6
CONTINUOUS
 62
7
 66
1
 10
0
 20
0
 30
0
 70
128
 40
1.0
 41
1.0
  0
VERTEX
  8
0
  6
CONTINUOUS
 62
7
 10
1116.000000
 20
129.275092
 30
0
 40
0
 41
0
  0
VERTEX
  8
0
  6
CONTINUOUS
 62
7
 10
1116.918882
 20
139.232785
 30
0
 40
0
 41
0
  0
SEQEND
  8
0
  6
CONTINUOUS
 62
7
  0
POLYLINE
  8
0
  6
CONTINUOUS
 62
7
 66
1
 10
0
 20
0
 30
0
 70
128
 40
1.0
 41
1.0
  0
VERTEX
  8
0
  6
CONTINUOUS
 62
7
 10
-44.000000
 20
125.583936
 30
0
 40
0
 41
0
  0
VERTEX
  8
0
  6
CONTINUOUS
 62
7
 10
1156.000000
 20
125.583936
 30
0
 40
0
 41
0
  0
SEQEND
  8
0
  6
CONTINUOUS
 62
7
  0
POLYLINE
  8
0
  6
CONTINUOUS
 62
7
 66
1
 10
0
 20
0
 30
0
 70
128
 40
1.0
 41
1.0
  0
VERTEX
  8
0
  6
CONTINUOUS
 62
7
 10
400.000000
 20
0.000000
 30
0
 40
0
 41
0
  0
VERTEX
  8
0
  6
CONTINUOUS
 62
7
 10
400.000000
 20
841.000000
 30
0
 40
0
 41
0
  0
SEQEND
  8
0
  6
CONTINUOUS
 62
7
  0
POLYLINE
  8
0
  6
CONTINUOUS
 62
7
 66
1
 10
0
 20
0
 30
0
 70
128
 40
1.0
 41
1.0
  0
VERTEX
  8
0
  6
CONTINUOUS
 62
7
 10
0.000000
 20
199.250000
 30
0
 40
0
 41
0
  0
VERTEX
  8
0
  6
CONTINUOUS
 62
7
 10
1189.000000
 20
199.250000
 30
0
 40
0
 41
0
  0
SEQEND
  8
0
  6
CONTINUOUS
 62
7
  0
POLYLINE
  8
0
  6
CONTINUOUS
 62
7
 66
1
 10
0
 20
0
 30
0
 70
128
 40
1.0
 41
1.0
  0
VERTEX
  8
0
  6
CONTINUOUS
 62
7
 10
0.000000
 20
169.173849
 30
0
 40
0
 41
0
  0
VERTEX
  8
0
  6
CONTINUOUS
 62
7
 10
1100.000000
 20
251.883264
 30
0
 40
0
 41
0
  0
SEQEND
  8
0
  6
CONTINUOUS
 62
7
  0
ENDSEC
  0
EOF
